<svg width="176" height="229" viewBox="0 0 176 229" fill="none" xmlns="http://www.w3.org/2000/svg">
<mask id="path-1-inside-1_1375_1564" fill="white">
<path d="M125.724 44.625C153.111 44.6253 175.313 66.8271 175.313 94.2148V139.606C175.313 166.994 153.111 189.197 125.724 189.197C110.429 189.197 96.753 182.271 87.6562 171.387C78.5596 182.271 64.8852 189.197 49.5908 189.197C22.2028 189.197 0 166.994 0 139.606V94.2148C0.000119472 66.8269 22.2029 44.625 49.5908 44.625C64.885 44.6251 78.5596 51.5506 87.6562 62.4346C96.753 51.5502 110.429 44.625 125.724 44.625Z"/>
</mask>
<path d="M125.724 44.625C153.111 44.6253 175.313 66.8271 175.313 94.2148V139.606C175.313 166.994 153.111 189.197 125.724 189.197C110.429 189.197 96.753 182.271 87.6562 171.387C78.5596 182.271 64.8852 189.197 49.5908 189.197C22.2028 189.197 0 166.994 0 139.606V94.2148C0.000119472 66.8269 22.2029 44.625 49.5908 44.625C64.885 44.6251 78.5596 51.5506 87.6562 62.4346C96.753 51.5502 110.429 44.625 125.724 44.625Z" fill="#775DFF"/>
<path d="M125.724 44.625L125.724 42.0302H125.724V44.625ZM175.313 94.2148L177.908 94.2148L177.908 94.2148L175.313 94.2148ZM125.724 189.197L125.724 191.792L125.724 191.792L125.724 189.197ZM87.6562 171.387L89.6472 169.723L87.6563 167.34L85.6653 169.723L87.6562 171.387ZM49.5908 189.197L49.5908 191.792L49.5908 191.792L49.5908 189.197ZM0 94.2148L-2.59477 94.2148V94.2148H0ZM49.5908 44.625L49.5908 42.0302H49.5908V44.625ZM87.6562 62.4346L85.6653 64.0986L87.6563 66.4808L89.6472 64.0985L87.6562 62.4346ZM125.724 44.625L125.724 47.2198C151.678 47.22 172.719 68.2601 172.719 94.2149L175.313 94.2148L177.908 94.2148C177.908 65.394 154.544 42.0305 125.724 42.0302L125.724 44.625ZM175.313 94.2148H172.719V139.606H175.313H177.908V94.2148H175.313ZM175.313 139.606H172.719C172.719 165.561 151.678 186.602 125.724 186.602L125.724 189.197L125.724 191.792C154.545 191.792 177.908 168.427 177.908 139.606H175.313ZM125.724 189.197V186.602C111.23 186.602 98.2723 180.043 89.6472 169.723L87.6562 171.387L85.6653 173.051C95.2337 184.5 109.627 191.792 125.724 191.792V189.197ZM87.6562 171.387L85.6653 169.723C77.0402 180.043 64.0836 186.602 49.5908 186.602L49.5908 189.197L49.5908 191.792C65.6867 191.792 80.079 184.499 89.6472 173.051L87.6562 171.387ZM49.5908 189.197V186.602C23.6358 186.602 2.59477 165.561 2.59477 139.606H0H-2.59477C-2.59477 168.428 20.7697 191.792 49.5908 191.792V189.197ZM0 139.606H2.59477V94.2148H0H-2.59477V139.606H0ZM0 94.2148L2.59477 94.2149C2.59488 68.26 23.6359 47.2198 49.5908 47.2198V44.625V42.0302C20.7699 42.0302 -2.59465 65.3938 -2.59477 94.2148L0 94.2148ZM49.5908 44.625L49.5908 47.2198C64.0836 47.2199 77.0403 53.7789 85.6653 64.0986L87.6562 62.4346L89.6472 60.7706C80.0789 49.3222 65.6865 42.0303 49.5908 42.0302L49.5908 44.625ZM87.6562 62.4346L89.6472 64.0985C98.2722 53.7786 111.23 47.2198 125.724 47.2198V44.625V42.0302C109.628 42.0302 95.2337 49.3217 85.6653 60.7706L87.6562 62.4346Z" fill="black" mask="url(#path-1-inside-1_1375_1564)"/>
<mask id="path-3-inside-2_1375_1564" fill="white">
<path d="M105.298 81.3164C117.659 81.3164 127.679 90.8442 127.679 102.597C127.679 114.349 117.659 123.877 105.298 123.877C97.9325 123.877 91.3982 120.493 87.3198 115.271C83.2414 120.492 76.7078 123.877 69.3423 123.877C56.9821 123.877 46.9624 114.349 46.9624 102.597C46.9624 90.8443 56.9821 81.3166 69.3423 81.3164C76.7075 81.3164 83.2413 84.7003 87.3198 89.9209C91.3983 84.6999 97.9328 81.3164 105.298 81.3164Z"/>
</mask>
<path d="M105.298 81.3164C117.659 81.3164 127.679 90.8442 127.679 102.597C127.679 114.349 117.659 123.877 105.298 123.877C97.9325 123.877 91.3982 120.493 87.3198 115.271C83.2414 120.492 76.7078 123.877 69.3423 123.877C56.9821 123.877 46.9624 114.349 46.9624 102.597C46.9624 90.8443 56.9821 81.3166 69.3423 81.3164C76.7075 81.3164 83.2413 84.7003 87.3198 89.9209C91.3983 84.6999 97.9328 81.3164 105.298 81.3164Z" fill="white"/>
<path d="M105.298 81.3164L105.298 78.7216L105.298 78.7216L105.298 81.3164ZM127.679 102.597L130.274 102.597L130.274 102.597L127.679 102.597ZM105.298 123.877L105.298 126.472L105.298 126.472L105.298 123.877ZM87.3198 115.271L89.3647 113.674L87.3199 111.056L85.275 113.674L87.3198 115.271ZM69.3423 123.877L69.3422 126.472L69.3423 126.472L69.3423 123.877ZM46.9624 102.597L44.3676 102.597L44.3676 102.597L46.9624 102.597ZM69.3423 81.3164L69.3423 78.7216L69.3422 78.7216L69.3423 81.3164ZM87.3198 89.9209L85.2751 91.5183L87.3199 94.1358L89.3647 91.5182L87.3198 89.9209ZM105.298 81.3164L105.298 83.9112C116.351 83.9112 125.084 92.399 125.084 102.597L127.679 102.597L130.274 102.597C130.274 89.2894 118.967 78.7217 105.298 78.7216L105.298 81.3164ZM127.679 102.597L125.084 102.597C125.084 112.794 116.351 121.282 105.298 121.282L105.298 123.877L105.298 126.472C118.967 126.472 130.274 115.904 130.274 102.597L127.679 102.597ZM105.298 123.877L105.298 121.282C98.7354 121.282 92.9539 118.269 89.3647 113.674L87.3198 115.271L85.2749 116.869C89.8426 122.716 97.1296 126.472 105.298 126.472L105.298 123.877ZM87.3198 115.271L85.275 113.674C81.6856 118.269 75.9047 121.282 69.3423 121.282L69.3423 123.877L69.3423 126.472C77.5109 126.472 84.7971 122.716 89.3647 116.869L87.3198 115.271ZM69.3423 123.877L69.3423 121.282C58.2904 121.282 49.5572 112.794 49.5572 102.597L46.9624 102.597L44.3676 102.597C44.3676 115.904 55.6737 126.471 69.3422 126.472L69.3423 123.877ZM46.9624 102.597L49.5572 102.597C49.5572 92.399 58.2904 83.9114 69.3423 83.9112L69.3423 81.3164L69.3422 78.7216C55.6737 78.7219 44.3677 89.2896 44.3676 102.597L46.9624 102.597ZM69.3423 81.3164L69.3423 83.9112C75.9046 83.9112 81.6858 86.9239 85.2751 91.5183L87.3198 89.9209L89.3646 88.3235C84.7969 82.4767 77.5104 78.7216 69.3423 78.7216L69.3423 81.3164ZM87.3198 89.9209L89.3647 91.5182C92.9538 86.9236 98.7356 83.9112 105.298 83.9112L105.298 81.3164L105.298 78.7216C97.1301 78.7216 89.8428 82.4761 85.275 88.3236L87.3198 89.9209Z" fill="black" mask="url(#path-3-inside-2_1375_1564)"/>
<ellipse cx="105.299" cy="103.195" rx="10.6399" ry="10.6399" transform="rotate(90 105.299 103.195)" fill="black"/>
<ellipse cx="69.343" cy="103.195" rx="10.6399" ry="10.6399" transform="rotate(90 69.343 103.195)" fill="black"/>
<rect x="61.6382" y="43.2773" width="55.0341" height="19.8123" fill="white"/>
<path d="M110.042 38.3789C116.61 38.3794 121.935 43.7038 121.935 50.2715V54.9863C121.935 61.5542 116.61 66.8784 110.042 66.8789H55.5854C53.7941 66.8789 52.3423 65.427 52.3423 63.6357C52.3425 61.8446 53.7943 60.3926 55.5854 60.3926H58.7036V44.8652H55.5854C53.7941 44.8652 52.3423 43.4134 52.3423 41.6221C52.3425 39.831 53.7943 38.3789 55.5854 38.3789H110.042ZM63.8931 60.3926H110.042C113.028 60.3921 115.448 57.9715 115.448 54.9863V50.2715C115.448 47.2865 113.027 44.8657 110.042 44.8652H63.8931V60.3926Z" fill="black"/>
<rect x="109.23" y="37.0938" width="50.3327" height="12.563" transform="rotate(-180 109.23 37.0938)" fill="white"/>
<path d="M64.0229 41.668C58.382 41.6678 53.8094 37.095 53.8091 31.4541C53.8091 25.8129 58.3818 21.2394 64.023 21.2393L114.288 21.2393C116.079 21.2393 117.531 22.6913 117.531 24.4824C117.531 26.2736 116.079 27.7266 114.288 27.7266L111.915 27.7266L111.915 35.1816L114.288 35.1816C116.079 35.1816 117.531 36.6335 117.531 38.4248C117.531 40.216 116.079 41.668 114.288 41.668L64.0229 41.668ZM106.725 27.7266L64.023 27.7266C61.9644 27.7267 60.2954 29.3956 60.2954 31.4541C60.2958 33.5123 61.9647 35.1815 64.0229 35.1816L106.725 35.1816L106.725 27.7266Z" fill="black"/>
<rect x="104.928" y="16.6211" width="42.2968" height="12.563" transform="rotate(175.425 104.928 16.6211)" fill="white"/>
<path d="M68.5284 23.9586C62.9005 24.4089 57.9733 20.2119 57.5229 14.584C57.0727 8.9562 61.2697 4.0289 66.8975 3.57845L108.299 0.265267C110.085 0.122383 111.648 1.45396 111.791 3.23939C111.934 5.025 110.602 6.58803 108.817 6.73092L106.414 6.92318L107.01 14.372L109.413 14.1798C111.198 14.0369 112.761 15.3684 112.904 17.1539C113.047 18.9395 111.716 20.5025 109.93 20.6454L68.5284 23.9586ZM101.241 7.33715L67.4149 10.0441C65.3584 10.2088 63.8242 12.01 63.9886 14.0666C64.1531 16.1233 65.9543 17.6574 68.011 17.493L101.837 14.786L101.241 7.33715Z" fill="black"/>
<ellipse cx="87.9727" cy="217.64" rx="10.6399" ry="44.0273" transform="rotate(90 87.9727 217.64)" fill="black"/>
</svg>
