<svg width="176" height="229" viewBox="0 0 176 229" fill="none" xmlns="http://www.w3.org/2000/svg">
<mask id="path-1-inside-1_1375_1745" fill="white">
<path d="M125.724 44.625C153.111 44.6253 175.313 66.8271 175.313 94.2148V139.606C175.313 166.994 153.111 189.197 125.724 189.197C110.429 189.197 96.753 182.271 87.6562 171.387C78.5596 182.271 64.8852 189.197 49.5908 189.197C22.2028 189.197 0 166.994 0 139.606V94.2148C0.000119472 66.8269 22.2029 44.625 49.5908 44.625C64.885 44.6251 78.5596 51.5506 87.6562 62.4346C96.753 51.5502 110.429 44.625 125.724 44.625Z"/>
</mask>
<path d="M125.724 44.625C153.111 44.6253 175.313 66.8271 175.313 94.2148V139.606C175.313 166.994 153.111 189.197 125.724 189.197C110.429 189.197 96.753 182.271 87.6562 171.387C78.5596 182.271 64.8852 189.197 49.5908 189.197C22.2028 189.197 0 166.994 0 139.606V94.2148C0.000119472 66.8269 22.2029 44.625 49.5908 44.625C64.885 44.6251 78.5596 51.5506 87.6562 62.4346C96.753 51.5502 110.429 44.625 125.724 44.625Z" fill="#775DFF"/>
<path d="M125.724 44.625L125.724 42.0302H125.724V44.625ZM175.313 94.2148L177.908 94.2148L177.908 94.2148L175.313 94.2148ZM125.724 189.197L125.724 191.792L125.724 191.792L125.724 189.197ZM87.6562 171.387L89.6472 169.723L87.6563 167.34L85.6653 169.723L87.6562 171.387ZM49.5908 189.197L49.5908 191.792L49.5908 191.792L49.5908 189.197ZM0 94.2148L-2.59477 94.2148V94.2148H0ZM49.5908 44.625L49.5908 42.0302H49.5908V44.625ZM87.6562 62.4346L85.6653 64.0986L87.6563 66.4808L89.6472 64.0985L87.6562 62.4346ZM125.724 44.625L125.724 47.2198C151.678 47.22 172.719 68.2601 172.719 94.2149L175.313 94.2148L177.908 94.2148C177.908 65.394 154.544 42.0305 125.724 42.0302L125.724 44.625ZM175.313 94.2148H172.719V139.606H175.313H177.908V94.2148H175.313ZM175.313 139.606H172.719C172.719 165.561 151.678 186.602 125.724 186.602L125.724 189.197L125.724 191.792C154.545 191.792 177.908 168.427 177.908 139.606H175.313ZM125.724 189.197V186.602C111.23 186.602 98.2723 180.043 89.6472 169.723L87.6562 171.387L85.6653 173.051C95.2337 184.5 109.627 191.792 125.724 191.792V189.197ZM87.6562 171.387L85.6653 169.723C77.0402 180.043 64.0836 186.602 49.5908 186.602L49.5908 189.197L49.5908 191.792C65.6867 191.792 80.079 184.499 89.6472 173.051L87.6562 171.387ZM49.5908 189.197V186.602C23.6358 186.602 2.59477 165.561 2.59477 139.606H0H-2.59477C-2.59477 168.428 20.7697 191.792 49.5908 191.792V189.197ZM0 139.606H2.59477V94.2148H0H-2.59477V139.606H0ZM0 94.2148L2.59477 94.2149C2.59488 68.26 23.6359 47.2198 49.5908 47.2198V44.625V42.0302C20.7699 42.0302 -2.59465 65.3938 -2.59477 94.2148L0 94.2148ZM49.5908 44.625L49.5908 47.2198C64.0836 47.2199 77.0403 53.7789 85.6653 64.0986L87.6562 62.4346L89.6472 60.7706C80.0789 49.3222 65.6865 42.0303 49.5908 42.0302L49.5908 44.625ZM87.6562 62.4346L89.6472 64.0985C98.2722 53.7786 111.23 47.2198 125.724 47.2198V44.625V42.0302C109.628 42.0302 95.2337 49.3217 85.6653 60.7706L87.6562 62.4346Z" fill="black" mask="url(#path-1-inside-1_1375_1745)"/>
<mask id="path-3-inside-2_1375_1745" fill="white">
<path d="M105.298 81.3125C117.659 81.3125 127.679 90.8403 127.679 102.593C127.679 114.345 117.659 123.873 105.298 123.873C97.9325 123.873 91.3982 120.489 87.3198 115.268C83.2414 120.489 76.7078 123.873 69.3423 123.873C56.9821 123.873 46.9624 114.345 46.9624 102.593C46.9624 90.8404 56.9821 81.3127 69.3423 81.3125C76.7075 81.3125 83.2413 84.6964 87.3198 89.917C91.3983 84.696 97.9328 81.3125 105.298 81.3125Z"/>
</mask>
<path d="M105.298 81.3125C117.659 81.3125 127.679 90.8403 127.679 102.593C127.679 114.345 117.659 123.873 105.298 123.873C97.9325 123.873 91.3982 120.489 87.3198 115.268C83.2414 120.489 76.7078 123.873 69.3423 123.873C56.9821 123.873 46.9624 114.345 46.9624 102.593C46.9624 90.8404 56.9821 81.3127 69.3423 81.3125C76.7075 81.3125 83.2413 84.6964 87.3198 89.917C91.3983 84.696 97.9328 81.3125 105.298 81.3125Z" fill="white"/>
<path d="M105.298 81.3125L105.298 78.7177L105.298 78.7177L105.298 81.3125ZM127.679 102.593L130.274 102.593L130.274 102.593L127.679 102.593ZM105.298 123.873L105.298 126.468L105.298 126.468L105.298 123.873ZM87.3198 115.268L89.3647 113.67L87.3199 111.052L85.275 113.67L87.3198 115.268ZM69.3423 123.873L69.3422 126.468L69.3423 126.468L69.3423 123.873ZM46.9624 102.593L44.3676 102.593L44.3676 102.593L46.9624 102.593ZM69.3423 81.3125L69.3423 78.7177L69.3422 78.7177L69.3423 81.3125ZM87.3198 89.917L85.2751 91.5144L87.3199 94.1319L89.3647 91.5143L87.3198 89.917ZM105.298 81.3125L105.298 83.9073C116.351 83.9073 125.084 92.3951 125.084 102.593L127.679 102.593L130.274 102.593C130.274 89.2855 118.967 78.7178 105.298 78.7177L105.298 81.3125ZM127.679 102.593L125.084 102.593C125.084 112.791 116.351 121.278 105.298 121.278L105.298 123.873L105.298 126.468C118.967 126.468 130.274 115.9 130.274 102.593L127.679 102.593ZM105.298 123.873L105.298 121.278C98.7354 121.278 92.9539 118.265 89.3647 113.67L87.3198 115.268L85.2749 116.865C89.8426 122.713 97.1296 126.468 105.298 126.468L105.298 123.873ZM87.3198 115.268L85.275 113.67C81.6856 118.265 75.9047 121.278 69.3423 121.278L69.3423 123.873L69.3423 126.468C77.5109 126.468 84.7971 122.712 89.3647 116.865L87.3198 115.268ZM69.3423 123.873L69.3423 121.278C58.2904 121.278 49.5572 112.79 49.5572 102.593L46.9624 102.593L44.3676 102.593C44.3676 115.9 55.6737 126.468 69.3422 126.468L69.3423 123.873ZM46.9624 102.593L49.5572 102.593C49.5572 92.3951 58.2904 83.9075 69.3423 83.9073L69.3423 81.3125L69.3422 78.7177C55.6737 78.718 44.3677 89.2857 44.3676 102.593L46.9624 102.593ZM69.3423 81.3125L69.3423 83.9073C75.9046 83.9073 81.6858 86.92 85.2751 91.5144L87.3198 89.917L89.3646 88.3196C84.7969 82.4728 77.5104 78.7177 69.3423 78.7177L69.3423 81.3125ZM87.3198 89.917L89.3647 91.5143C92.9538 86.9197 98.7356 83.9073 105.298 83.9073L105.298 81.3125L105.298 78.7177C97.1301 78.7177 89.8428 82.4722 85.275 88.3197L87.3198 89.917Z" fill="black" mask="url(#path-3-inside-2_1375_1745)"/>
<ellipse cx="105.299" cy="99.6399" rx="10.6399" ry="10.6399" transform="rotate(90 105.299 99.6399)" fill="black"/>
<ellipse cx="69.343" cy="99.6399" rx="10.6399" ry="10.6399" transform="rotate(90 69.343 99.6399)" fill="black"/>
<rect x="61.6382" y="43.2734" width="55.0341" height="19.8123" fill="white"/>
<path d="M110.042 38.375C116.61 38.3755 121.935 43.6999 121.935 50.2676V54.9824C121.935 61.5503 116.61 66.8745 110.042 66.875H55.5854C53.7941 66.875 52.3423 65.4231 52.3423 63.6318C52.3425 61.8407 53.7943 60.3887 55.5854 60.3887H58.7036V44.8613H55.5854C53.7941 44.8613 52.3423 43.4095 52.3423 41.6182C52.3425 39.827 53.7943 38.375 55.5854 38.375H110.042ZM63.8931 60.3887H110.042C113.028 60.3882 115.448 57.9676 115.448 54.9824V50.2676C115.448 47.2826 113.027 44.8618 110.042 44.8613H63.8931V60.3887Z" fill="black"/>
<rect x="109.23" y="37.0938" width="50.3327" height="12.563" transform="rotate(-180 109.23 37.0938)" fill="white"/>
<path d="M64.0229 41.668C58.382 41.6678 53.8094 37.095 53.8091 31.4541C53.8091 25.8129 58.3818 21.2394 64.023 21.2393L114.288 21.2393C116.079 21.2393 117.531 22.6913 117.531 24.4824C117.531 26.2736 116.079 27.7266 114.288 27.7266L111.915 27.7266L111.915 35.1816L114.288 35.1816C116.079 35.1816 117.531 36.6335 117.531 38.4248C117.531 40.216 116.079 41.668 114.288 41.668L64.0229 41.668ZM106.725 27.7266L64.023 27.7266C61.9644 27.7267 60.2954 29.3956 60.2954 31.4541C60.2958 33.5123 61.9647 35.1815 64.0229 35.1816L106.725 35.1816L106.725 27.7266Z" fill="black"/>
<rect x="104.928" y="16.6172" width="42.2968" height="12.563" transform="rotate(175.425 104.928 16.6172)" fill="white"/>
<path d="M68.5284 23.9547C62.9005 24.405 57.9733 20.208 57.5229 14.5801C57.0727 8.9523 61.2697 4.025 66.8975 3.57454L108.299 0.261361C110.085 0.118477 111.648 1.45005 111.791 3.23548C111.934 5.02109 110.602 6.58413 108.817 6.72702L106.414 6.91928L107.01 14.3681L109.413 14.1759C111.198 14.033 112.761 15.3645 112.904 17.15C113.047 18.9356 111.716 20.4986 109.93 20.6415L68.5284 23.9547ZM101.241 7.33324L67.4149 10.0402C65.3584 10.2049 63.8242 12.0061 63.9886 14.0627C64.1531 16.1194 65.9543 17.6535 68.011 17.489L101.837 14.7821L101.241 7.33324Z" fill="black"/>
<ellipse cx="87.9727" cy="217.64" rx="10.6399" ry="44.0273" transform="rotate(90 87.9727 217.64)" fill="black"/>
</svg>
