<svg width="176" height="228" viewBox="0 0 176 228" fill="none" xmlns="http://www.w3.org/2000/svg">
<ellipse cx="87.3208" cy="217.359" rx="10.6399" ry="44.0273" transform="rotate(90 87.3208 217.359)" fill="black"/>
<mask id="path-2-inside-1_1375_1507" fill="white">
<path d="M125.723 44.6211C153.111 44.6211 175.313 66.8239 175.313 94.2119V139.604C175.313 166.992 153.111 189.193 125.723 189.193C110.428 189.193 96.7529 182.267 87.6562 171.383C78.5596 182.267 64.8853 189.193 49.5908 189.193C22.2028 189.193 5.86451e-05 166.991 0 139.604V94.2119C0 66.8239 22.2028 44.6211 49.5908 44.6211C64.8851 44.6212 78.5596 51.5475 87.6562 62.4316C96.7529 51.5472 110.428 44.6212 125.723 44.6211Z"/>
</mask>
<path d="M125.723 44.6211C153.111 44.6211 175.313 66.8239 175.313 94.2119V139.604C175.313 166.992 153.111 189.193 125.723 189.193C110.428 189.193 96.7529 182.267 87.6562 171.383C78.5596 182.267 64.8853 189.193 49.5908 189.193C22.2028 189.193 5.86451e-05 166.991 0 139.604V94.2119C0 66.8239 22.2028 44.6211 49.5908 44.6211C64.8851 44.6212 78.5596 51.5475 87.6562 62.4316C96.7529 51.5472 110.428 44.6212 125.723 44.6211Z" fill="#775DFF"/>
<path d="M125.723 44.6211L125.723 42.0263L125.723 42.0263L125.723 44.6211ZM175.313 139.604L177.908 139.604V139.604H175.313ZM125.723 189.193L125.723 191.788H125.723V189.193ZM87.6562 171.383L89.6473 169.719L87.6563 167.337L85.6653 169.719L87.6562 171.383ZM49.5908 189.193L49.5908 191.788L49.5908 191.788L49.5908 189.193ZM0 139.604L-2.59477 139.604L-2.59477 139.604L0 139.604ZM49.5908 44.6211L49.5908 42.0263H49.5908V44.6211ZM87.6562 62.4316L85.6653 64.0956L87.6563 66.4779L89.6472 64.0956L87.6562 62.4316ZM125.723 44.6211V47.2159C151.678 47.2159 172.719 68.2569 172.719 94.2119H175.313H177.908C177.908 65.3908 154.544 42.0263 125.723 42.0263V44.6211ZM175.313 94.2119H172.719V139.604H175.313H177.908V94.2119H175.313ZM175.313 139.604L172.719 139.604C172.719 165.558 151.678 186.599 125.723 186.599V189.193V191.788C154.544 191.788 177.908 168.425 177.908 139.604L175.313 139.604ZM125.723 189.193L125.723 186.599C111.229 186.598 98.2722 180.039 89.6473 169.719L87.6562 171.383L85.6652 173.047C95.2335 184.496 109.626 191.788 125.723 191.788L125.723 189.193ZM87.6562 171.383L85.6653 169.719C77.0402 180.039 64.0838 186.598 49.5908 186.599L49.5908 189.193L49.5908 191.788C65.6869 191.788 80.079 184.495 89.6472 173.047L87.6562 171.383ZM49.5908 189.193V186.599C23.6358 186.599 2.59483 165.558 2.59477 139.604L0 139.604L-2.59477 139.604C-2.59471 168.425 20.7698 191.788 49.5908 191.788V189.193ZM0 139.604H2.59477V94.2119H0H-2.59477V139.604H0ZM0 94.2119H2.59477C2.59477 68.2569 23.6358 47.2159 49.5908 47.2159V44.6211V42.0263C20.7697 42.0263 -2.59477 65.3908 -2.59477 94.2119H0ZM49.5908 44.6211L49.5908 47.2159C64.0836 47.216 77.0402 53.7757 85.6653 64.0956L87.6562 62.4316L89.6472 60.7676C80.079 49.3192 65.6867 42.0265 49.5908 42.0263L49.5908 44.6211ZM87.6562 62.4316L89.6472 64.0956C98.2722 53.7755 111.23 47.216 125.723 47.2159L125.723 44.6211L125.723 42.0263C109.627 42.0265 95.2335 49.3189 85.6653 60.7677L87.6562 62.4316Z" fill="black" mask="url(#path-2-inside-1_1375_1507)"/>
<mask id="path-4-inside-2_1375_1507" fill="white">
<path d="M105.298 81.3125C117.659 81.3125 127.679 90.8403 127.679 102.593C127.679 114.345 117.659 123.873 105.298 123.873C97.9325 123.873 91.3982 120.489 87.3198 115.268C83.2414 120.489 76.7078 123.873 69.3423 123.873C56.982 123.873 46.9624 114.345 46.9624 102.593C46.9624 90.8404 56.9821 81.3127 69.3423 81.3125C76.7075 81.3125 83.2413 84.6963 87.3198 89.917C91.3983 84.696 97.9328 81.3125 105.298 81.3125Z"/>
</mask>
<path d="M105.298 81.3125C117.659 81.3125 127.679 90.8403 127.679 102.593C127.679 114.345 117.659 123.873 105.298 123.873C97.9325 123.873 91.3982 120.489 87.3198 115.268C83.2414 120.489 76.7078 123.873 69.3423 123.873C56.982 123.873 46.9624 114.345 46.9624 102.593C46.9624 90.8404 56.9821 81.3127 69.3423 81.3125C76.7075 81.3125 83.2413 84.6963 87.3198 89.917C91.3983 84.696 97.9328 81.3125 105.298 81.3125Z" fill="white"/>
<path d="M105.298 81.3125L105.298 78.7177L105.298 78.7177L105.298 81.3125ZM127.679 102.593L130.274 102.593L130.274 102.593L127.679 102.593ZM105.298 123.873L105.298 126.468L105.298 126.468L105.298 123.873ZM87.3198 115.268L89.3647 113.67L87.3199 111.052L85.275 113.67L87.3198 115.268ZM69.3423 123.873L69.3422 126.468L69.3423 126.468L69.3423 123.873ZM46.9624 102.593L44.3676 102.593L44.3676 102.593L46.9624 102.593ZM69.3423 81.3125L69.3423 78.7177L69.3422 78.7177L69.3423 81.3125ZM87.3198 89.917L85.2751 91.5144L87.3199 94.1319L89.3647 91.5143L87.3198 89.917ZM105.298 81.3125L105.298 83.9073C116.351 83.9073 125.084 92.3951 125.084 102.593L127.679 102.593L130.274 102.593C130.274 89.2855 118.967 78.7178 105.298 78.7177L105.298 81.3125ZM127.679 102.593L125.084 102.593C125.084 112.79 116.351 121.278 105.298 121.278L105.298 123.873L105.298 126.468C118.967 126.468 130.274 115.9 130.274 102.593L127.679 102.593ZM105.298 123.873L105.298 121.278C98.7354 121.278 92.9539 118.265 89.3647 113.67L87.3198 115.268L85.2749 116.865C89.8426 122.713 97.1296 126.468 105.298 126.468L105.298 123.873ZM87.3198 115.268L85.275 113.67C81.6856 118.265 75.9047 121.278 69.3423 121.278L69.3423 123.873L69.3423 126.468C77.5109 126.468 84.7971 122.712 89.3647 116.865L87.3198 115.268ZM69.3423 123.873L69.3423 121.278C58.2904 121.278 49.5572 112.791 49.5572 102.593L46.9624 102.593L44.3676 102.593C44.3676 115.9 55.6737 126.468 69.3422 126.468L69.3423 123.873ZM46.9624 102.593L49.5572 102.593C49.5572 92.3951 58.2904 83.9075 69.3423 83.9073L69.3423 81.3125L69.3422 78.7177C55.6737 78.718 44.3677 89.2857 44.3676 102.593L46.9624 102.593ZM69.3423 81.3125L69.3423 83.9073C75.9046 83.9073 81.6858 86.92 85.2751 91.5144L87.3198 89.917L89.3646 88.3196C84.7969 82.4727 77.5104 78.7177 69.3423 78.7177L69.3423 81.3125ZM87.3198 89.917L89.3647 91.5143C92.9538 86.9197 98.7356 83.9073 105.298 83.9073L105.298 81.3125L105.298 78.7177C97.1301 78.7177 89.8428 82.4722 85.275 88.3196L87.3198 89.917Z" fill="black" mask="url(#path-4-inside-2_1375_1507)"/>
<ellipse cx="105.299" cy="97.0227" rx="10.6399" ry="10.6399" transform="rotate(90 105.299 97.0227)" fill="black"/>
<ellipse cx="69.343" cy="97.0227" rx="10.6399" ry="10.6399" transform="rotate(90 69.343 97.0227)" fill="black"/>
<rect x="61.6382" y="43.2734" width="55.0341" height="19.8123" fill="white"/>
<path d="M110.042 38.375C116.609 38.3753 121.934 43.6996 121.934 50.2676V54.9824C121.934 61.5504 116.609 66.8747 110.042 66.875H55.5845C53.7934 66.8748 52.3413 65.423 52.3413 63.6318C52.3413 61.8407 53.7934 60.3889 55.5845 60.3887H58.7036V44.8613H55.5845C53.7934 44.8611 52.3413 43.4093 52.3413 41.6182C52.3413 39.827 53.7934 38.3752 55.5845 38.375H110.042ZM63.8931 60.3887H110.042C113.027 60.3884 115.447 57.9678 115.447 54.9824V50.2676C115.447 47.2822 113.027 44.8616 110.042 44.8613H63.8931V60.3887Z" fill="black"/>
<rect x="109.23" y="37.0938" width="50.3327" height="12.563" transform="rotate(-180 109.23 37.0938)" fill="white"/>
<path d="M64.0229 41.668C58.382 41.6678 53.8094 37.095 53.8091 31.4541C53.8091 25.8129 58.3818 21.2394 64.023 21.2393L114.288 21.2393C116.079 21.2393 117.531 22.6913 117.531 24.4824C117.531 26.2736 116.079 27.7266 114.288 27.7266L111.915 27.7266L111.915 35.1816L114.288 35.1816C116.079 35.1816 117.531 36.6335 117.531 38.4248C117.531 40.216 116.079 41.668 114.288 41.668L64.0229 41.668ZM106.725 27.7266L64.023 27.7266C61.9644 27.7267 60.2954 29.3955 60.2954 31.4541C60.2958 33.5124 61.9646 35.1815 64.0229 35.1816L106.725 35.1816L106.725 27.7266Z" fill="black"/>
<rect x="104.928" y="16.6172" width="42.2968" height="12.563" transform="rotate(175.425 104.928 16.6172)" fill="white"/>
<path d="M68.5284 23.9547C62.9005 24.405 57.9733 20.208 57.5229 14.5801C57.0725 8.95214 61.2696 4.02496 66.8975 3.57454L108.299 0.261361C110.085 0.118468 111.648 1.4499 111.791 3.23548C111.934 5.02103 110.602 6.58413 108.817 6.72702L106.414 6.91928L107.01 14.3681L109.413 14.1759C111.198 14.033 112.761 15.3644 112.904 17.15C113.047 18.9355 111.716 20.4986 109.93 20.6415L68.5284 23.9547ZM101.241 7.33324L67.4149 10.0402C65.3582 10.2048 63.824 12.0059 63.9886 14.0627C64.1532 16.1193 65.9543 17.6536 68.011 17.489L101.837 14.7821L101.241 7.33324Z" fill="black"/>
</svg>
