<?xml version="1.0" encoding="UTF-8"?>
<svg version="1.1" xmlns="http://www.w3.org/2000/svg" width="240" height="240">
  <path
    d="M0 0 C1.37953235 -0.0057164 2.75905998 -0.01268553 4.13858032 -0.02079773 C7.8536287 -0.03860535 11.56843928 -0.03758426 15.28351736 -0.03185534 C18.39946252 -0.02874505 21.51536321 -0.03487633 24.631302 -0.04089409 C31.98991673 -0.05489735 39.34841526 -0.05341351 46.70703125 -0.04199219 C54.26600751 -0.03051821 61.82462866 -0.04458397 69.38355815 -0.07138866 C75.90369959 -0.09363303 82.42373027 -0.10016339 88.9439069 -0.09431225 C92.824781 -0.09096188 96.70542766 -0.09322831 100.58626938 -0.11056328 C104.23908829 -0.12617044 107.89138628 -0.12192695 111.54418564 -0.10325813 C113.50132846 -0.09788839 115.45849546 -0.11198134 117.41558838 -0.12695312 C134.27332068 0.01156918 148.24384709 5.96809683 160.22314453 17.63842773 C172.97117378 30.70008433 177.39029678 45.4904664 177.32641602 63.48168945 C177.33213242 64.8612218 177.33910154 66.24074943 177.34721375 67.62026978 C177.36502136 71.33531815 177.36400027 75.05012873 177.35827136 78.76520681 C177.35516107 81.88115197 177.36129234 84.99705266 177.36731011 88.11299145 C177.38131336 95.47160618 177.37982953 102.83010471 177.3684082 110.1887207 C177.35693422 117.74769697 177.37099999 125.30631812 177.39780468 132.86524761 C177.42004904 139.38538904 177.4265794 145.90541972 177.42072827 152.42559636 C177.41737789 156.30647045 177.41964433 160.18711711 177.43697929 164.06795883 C177.45258645 167.72077774 177.44834296 171.37307574 177.42967415 175.02587509 C177.4243044 176.98301791 177.43839736 178.94018491 177.45336914 180.89727783 C177.31484683 197.75501014 171.35831919 211.72553655 159.68798828 223.70483398 C146.62633169 236.45286323 131.83594962 240.87198623 113.84472656 240.80810547 C112.46519421 240.81382187 111.08566658 240.820791 109.70614624 240.8289032 C105.99109787 240.84671082 102.27628728 240.84568972 98.5612092 240.83996081 C95.44526404 240.83685052 92.32936336 240.8429818 89.21342456 240.84899956 C81.85480983 240.86300282 74.4963113 240.86151898 67.13769531 240.85009766 C59.57871905 240.83862368 52.0200979 240.85268944 44.46116841 240.87949413 C37.94102697 240.90173849 31.4209963 240.90826886 24.90081966 240.90241772 C21.01994556 240.89906735 17.1392989 240.90133378 13.25845718 240.91866875 C9.60563827 240.93427591 5.95334028 240.93003241 2.30054092 240.9113636 C0.34339811 240.90599386 -1.6137689 240.92008681 -3.57086182 240.93505859 C-20.42859412 240.79653629 -34.39912053 234.84000864 -46.37841797 223.16967773 C-59.12644722 210.10802114 -63.54557021 195.31763907 -63.48168945 177.32641602 C-63.48740586 175.94688367 -63.49437498 174.56735604 -63.50248718 173.18783569 C-63.5202948 169.47278732 -63.51927371 165.75797673 -63.5135448 162.04289865 C-63.5104345 158.92695349 -63.51656578 155.81105281 -63.52258354 152.69511402 C-63.5365868 145.33649929 -63.53510296 137.97800075 -63.52368164 130.61938477 C-63.51220766 123.0604085 -63.52627343 115.50178735 -63.55307811 107.94285786 C-63.57532248 101.42271643 -63.58185284 94.90268575 -63.5760017 88.38250911 C-63.57265133 84.50163501 -63.57491777 80.62098836 -63.59225273 76.74014664 C-63.60785989 73.08732772 -63.6036164 69.43502973 -63.58494759 65.78223038 C-63.57957784 63.82508756 -63.59367079 61.86792055 -63.60864258 59.91082764 C-63.47012027 43.05309533 -57.51359262 29.08256892 -45.84326172 17.10327148 C-32.78160512 4.35524224 -17.99122305 -0.06388076 0 0 Z "
    fill="#FEA500"
    transform="translate(63.07763671875,-0.404052734375)"
  />
  <path
    d="M0 0 C1.0051767 -0.04255417 2.01035339 -0.08510834 3.04598999 -0.12895203 C6.24705754 -0.23969208 9.44586044 -0.30950778 12.6484375 -0.359375 C13.7327002 -0.37694855 14.81696289 -0.39452209 15.93408203 -0.41262817 C38.20895634 -0.5698933 38.20895634 -0.5698933 46.06396484 6.63574219 C48.51014456 9.5287322 50.61278047 12.49228929 52.5625 15.73876953 C54.65411928 18.81957373 57.2859989 20.97602802 60.140625 23.33374023 C62.59878077 25.36637241 64.79954931 27.60663173 67.0234375 29.890625 C69.93970353 32.84245525 72.86949585 35.69451359 76.0234375 38.390625 C79.17737915 41.08673641 82.10717147 43.93879475 85.0234375 46.890625 C87.91935708 49.82180691 90.82586321 52.65465674 93.9609375 55.328125 C97.82645581 58.6313861 101.37835176 62.21608391 104.94580078 65.83251953 C107.65733039 68.56671605 110.4199432 71.18856778 113.3359375 73.703125 C113.96242187 74.25355469 114.58890625 74.80398437 115.234375 75.37109375 C116.98800701 76.89922097 116.98800701 76.89922097 118.8125 78.19140625 C121.81380745 80.60240915 122.89946867 82.04763695 123.47265625 85.9453125 C123.58966752 88.23873348 123.68868535 90.53314453 123.76953125 92.828125 C124.10498214 96.87417882 125.28091233 98.92573292 128.0234375 101.890625 C128.8896875 102.839375 129.7559375 103.788125 130.6484375 104.765625 C135.19960024 107.63117191 138.77686469 107.81899584 144.0234375 106.890625 C147.24344531 105.2806211 149.19455633 103.89969773 151.4609375 101.140625 C152.34610804 97.59994284 152.03975543 94.38468153 151.0234375 90.890625 C148.72055533 88.16128317 147.45225238 87.93350649 143.8984375 87.578125 C140.89561098 87.60074692 140.89561098 87.60074692 139.0234375 89.890625 C138.380914 91.95936534 138.380914 91.95936534 138.0234375 93.890625 C140.6634375 94.220625 143.3034375 94.550625 146.0234375 94.890625 C145.6934375 96.540625 145.3634375 98.190625 145.0234375 99.890625 C136.22471887 100.65944507 136.22471887 100.65944507 131.8984375 97.890625 C129.5480665 94.1300314 129.25354171 91.15852555 130.0234375 86.890625 C131.62260613 82.65282814 133.16957456 80.24764487 137.0234375 77.890625 C142.12283133 77.02380614 147.33215973 77.11345112 151.9609375 79.578125 C155.51509 82.2618728 158.0291668 84.9020836 160.0234375 88.890625 C160.55123017 95.1023387 160.76747393 100.648974 157.0234375 105.890625 C149.52759531 113.06056101 141.78499565 114.32070038 131.6953125 114.1484375 C112.81558655 112.82283972 95.48316044 105.67157551 78.0234375 98.890625 C78.0234375 98.230625 78.0234375 97.570625 78.0234375 96.890625 C77.0334375 96.890625 76.0434375 96.890625 75.0234375 96.890625 C75.63621362 93.92887377 76.27716272 92.51003717 78.0234375 89.890625 C78.33598128 87.16778595 78.15677178 84.64620014 78.0234375 81.890625 C76.90507526 80.54657725 76.90507526 80.54657725 74.0234375 80.765625 C71.14179974 80.54657725 71.14179974 80.54657725 70.0234375 81.890625 C69.50522342 87.35897366 69.50522342 87.35897366 71.5234375 92.203125 C72.2659375 93.0384375 72.2659375 93.0384375 73.0234375 93.890625 C73.0234375 94.880625 73.0234375 95.870625 73.0234375 96.890625 C72.37793945 97.12249512 71.73244141 97.35436523 71.06738281 97.59326172 C68.13514498 98.64817145 65.20428415 99.70685665 62.2734375 100.765625 C60.74976562 101.31283203 60.74976562 101.31283203 59.1953125 101.87109375 C58.215625 102.22558594 57.2359375 102.58007812 56.2265625 102.9453125 C55.32583008 103.26999512 54.42509766 103.59467773 53.49707031 103.92919922 C51.06739021 104.81352887 51.06739021 104.81352887 49.07324219 105.94970703 C42.63912051 108.90314974 34.93798532 108.07675142 28.02807617 108.07592773 C25.96317172 108.07812263 23.89879519 108.09634068 21.83398438 108.11523438 C20.52365234 108.11716797 19.21332031 108.11910156 17.86328125 108.12109375 C16.07458618 108.12725708 16.07458618 108.12725708 14.24975586 108.13354492 C11.04854649 107.89251554 8.92892015 107.18396982 6.0234375 105.890625 C-19.6817485 101.47176541 -19.6817485 101.47176541 -43.9765625 107.890625 C-46.64458676 110.39755608 -46.64458676 110.39755608 -47.9765625 112.890625 C-46.4915625 112.395625 -46.4915625 112.395625 -44.9765625 111.890625 C-33.92730984 111.38944582 -22.8374376 111.64147368 -11.9765625 113.890625 C-10.87332642 114.11081299 -10.87332642 114.11081299 -9.74780273 114.33544922 C-4.03480127 115.79482296 -1.54701177 117.92246893 1.47070312 122.94335938 C2.14649414 124.15475586 2.14649414 124.15475586 2.8359375 125.390625 C3.86258624 127.1202044 4.88995007 128.84935951 5.91796875 130.578125 C6.43182129 131.46242187 6.94567383 132.34671875 7.47509766 133.2578125 C9.8911033 137.36601257 12.45967699 141.37364795 15.0234375 145.390625 C16.02815252 146.97995776 17.03205773 148.56980275 18.03515625 150.16015625 C19.99455402 153.26269535 21.95557665 156.36419782 23.91796875 159.46484375 C30.12840716 169.28134318 36.29810721 179.12259912 42.44970703 188.97607422 C46.35468726 195.22824471 50.27281136 201.47178066 54.2109375 207.703125 C54.68708496 208.4573877 55.16323242 209.21165039 55.65380859 209.98876953 C58.21197126 214.03781653 60.78181777 218.07904611 63.36328125 222.11328125 C63.91282471 222.97526123 64.46236816 223.83724121 65.02856445 224.7253418 C66.07959702 226.37356997 67.13392958 228.01970023 68.19213867 229.66333008 C68.66498291 230.40607178 69.13782715 231.14881348 69.625 231.9140625 C70.04088379 232.56294434 70.45676758 233.21182617 70.88525391 233.88037109 C72.16780745 236.14561046 73.07600449 238.46879859 74.0234375 240.890625 C63.16540738 240.9837178 52.30747378 241.05458808 41.44912434 241.09787369 C36.40596124 241.11865919 31.36307321 241.14680978 26.32006836 241.19238281 C21.44412254 241.23616535 16.56843962 241.25982989 11.69231224 241.27013397 C9.84136002 241.27746762 7.99042054 241.29178684 6.13958168 241.31354523 C-4.6776038 241.43553781 -13.81569033 240.98098055 -23.9765625 236.890625 C-24.87747116 236.53301086 -25.77837982 236.17539673 -26.70658875 235.8069458 C-40.68780487 229.93973931 -51.16521838 216.48567361 -56.9765625 202.890625 C-59.97736994 194.53028952 -60.41193569 186.63400503 -60.38061523 177.81298828 C-60.38633164 176.43345593 -60.39330076 175.0539283 -60.40141296 173.67440796 C-60.41922058 169.95935959 -60.41819949 166.244549 -60.41247058 162.52947092 C-60.40936028 159.41352576 -60.41549156 156.29762508 -60.42150933 153.18168628 C-60.43551258 145.82307155 -60.43402875 138.46457302 -60.42260742 131.10595703 C-60.41113344 123.54698077 -60.42519921 115.98835962 -60.4520039 108.42943013 C-60.47424826 101.90928869 -60.48077862 95.38925801 -60.47492748 88.86908138 C-60.47157711 84.98820728 -60.47384355 81.10756062 -60.49117851 77.2267189 C-60.50678567 73.57389999 -60.50254218 69.921602 -60.48387337 66.26880264 C-60.47850362 64.31165982 -60.49259658 62.35449282 -60.50756836 60.3973999 C-60.36904605 43.5396676 -54.4125184 29.56914119 -42.7421875 17.58984375 C-30.80585967 5.94012266 -16.55232177 0.67957241 0 0 Z "
    fill="#F11E8C"
    transform="translate(59.9765625,-0.890625)"
  />
  <path
    d="M0 0 C2.57907535 2.36596457 4.31724924 4.90224062 6.15234375 7.875 C6.75780029 8.85057861 7.36325684 9.82615723 7.98706055 10.83129883 C8.63070557 11.87697021 9.27435059 12.9226416 9.9375 14 C11.29649249 16.19164348 12.65587197 18.38304705 14.015625 20.57421875 C14.69044922 21.66395996 15.36527344 22.75370117 16.06054688 23.87646484 C18.74689226 28.20288765 21.46362333 32.50964394 24.1875 36.8125 C24.66147217 37.56329834 25.13544434 38.31409668 25.6237793 39.08764648 C28.20614692 43.17628537 30.8020477 47.2558539 33.41015625 51.328125 C33.96872314 52.20364014 34.52729004 53.07915527 35.1027832 53.98120117 C36.17960603 55.66865452 37.26002687 57.35381867 38.34448242 59.03637695 C38.82377197 59.78878662 39.30306152 60.54119629 39.796875 61.31640625 C40.22323242 61.98099854 40.64958984 62.64559082 41.08886719 63.33032227 C42 65 42 65 42 67 C40.02580078 67.03867188 40.02580078 67.03867188 38.01171875 67.078125 C21.84372662 67.07939511 21.84372662 67.07939511 8.3125 74.75 C7.879375 75.4925 7.44625 76.235 7 77 C8.485 76.505 8.485 76.505 10 76 C21.04925266 75.49882082 32.1391249 75.75084868 43 78 C44.10323608 78.22018799 44.10323608 78.22018799 45.22875977 78.44482422 C50.94176123 79.90419796 53.42955073 82.03184393 56.44726562 87.05273438 C57.12305664 88.26413086 57.12305664 88.26413086 57.8125 89.5 C58.83914874 91.2295794 59.86651257 92.95873451 60.89453125 94.6875 C61.40838379 95.57179688 61.92223633 96.45609375 62.45166016 97.3671875 C64.8676658 101.47538757 67.43623949 105.48302295 70 109.5 C71.00471502 111.08933276 72.00862023 112.67917775 73.01171875 114.26953125 C74.97111652 117.37207035 76.93213915 120.47357282 78.89453125 123.57421875 C85.10496966 133.39071818 91.27466971 143.23197412 97.42626953 153.08544922 C101.33124976 159.33761971 105.24937386 165.58115566 109.1875 171.8125 C109.66364746 172.5667627 110.13979492 173.32102539 110.63037109 174.09814453 C113.18853376 178.14719153 115.75838027 182.18842111 118.33984375 186.22265625 C118.88938721 187.08463623 119.43893066 187.94661621 120.00512695 188.8347168 C121.05615952 190.48294497 122.11049208 192.12907523 123.16870117 193.77270508 C123.64154541 194.51544678 124.11438965 195.25818848 124.6015625 196.0234375 C125.01744629 196.67231934 125.43333008 197.32120117 125.86181641 197.98974609 C127.14436995 200.25498546 128.05256699 202.57817359 129 205 C118.14196988 205.0930928 107.28403628 205.16396308 96.42568684 205.20724869 C91.38252374 205.22803419 86.33963571 205.25618478 81.29663086 205.30175781 C76.42068504 205.34554035 71.54500212 205.36920489 66.66887474 205.37950897 C64.81792252 205.38684262 62.96698304 205.40116184 61.11614418 205.42292023 C50.2989587 205.54491281 41.16087217 205.09035555 31 201 C30.09909134 200.64238586 29.19818268 200.28477173 28.26997375 199.9163208 C14.28875763 194.04911431 3.81134412 180.59504861 -2 167 C-5.00080744 158.63966452 -5.43537319 150.74338003 -5.40405273 141.92236328 C-5.40976914 140.54283093 -5.41673826 139.1633033 -5.42485046 137.78378296 C-5.44265808 134.06873459 -5.44163699 130.353924 -5.43590808 126.63884592 C-5.43279778 123.52290076 -5.43892906 120.40700008 -5.44494683 117.29106128 C-5.45895008 109.93244655 -5.45746625 102.57394802 -5.44604492 95.21533203 C-5.43457094 87.65635577 -5.44863671 80.09773462 -5.4754414 72.53880513 C-5.49768576 66.01866369 -5.50421612 59.49863301 -5.49836498 52.97845638 C-5.49501461 49.09758228 -5.49728105 45.21693562 -5.51461601 41.3360939 C-5.53022317 37.68327499 -5.52597968 34.030977 -5.50731087 30.37817764 C-5.50194112 28.42103482 -5.51603408 26.46386782 -5.53100586 24.5067749 C-5.37378747 5.37378747 -5.37378747 5.37378747 0 0 Z "
    fill="#3B499E"
    transform="translate(5,35)"
  />
  <path
    d="M0 0 C2.78912472 1.89660481 5.36524544 3.89787841 8 6 C8.55586792 6.38934723 9.11173584 6.77869446 9.68444824 7.17984009 C15.47020404 11.29963683 20.89267126 15.81761611 22.77020264 22.90905762 C23.7139987 29.87626105 23.56037998 36.82952445 23.27587891 43.84057617 C23.12513958 47.55905671 23.07100075 51.26903545 23.03515625 54.99023438 C22.9899584 57.39073662 22.93935784 59.79114449 22.8828125 62.19140625 C22.85953888 63.28344864 22.83626526 64.37549103 22.81228638 65.50062561 C22.04061343 83.63771015 14.74952053 97.55661203 2 110 C-13.22463038 123.64104656 -31.81013862 124.99239039 -51.35888672 125.54467773 C-53.94803732 125.63971181 -56.53587303 125.78314948 -59.11962891 125.9753418 C-76.33897786 127.23409176 -76.33897786 127.23409176 -84 124 C-90.45907086 118.34009055 -94.05713639 110.68561028 -97.57324219 102.98880005 C-99.6791487 98.57730607 -102.30567441 94.5682794 -105 90.5 C-105.97189623 88.970745 -106.94100017 87.4397088 -107.90625 85.90625 C-108.40125 85.1225 -108.89625 84.33875 -109.40625 83.53125 C-112.45078374 78.69581406 -115.47426594 73.84721297 -118.5 69 C-124.48399751 59.41483839 -130.50060097 49.85105206 -136.54394531 40.30322266 C-138.03986175 37.93694571 -139.5321096 35.56838995 -141.0234375 33.19921875 C-147.60492362 22.74856542 -154.26592025 12.35298481 -161 2 C-157.88975761 0.4448788 -155.89117725 1.71559245 -152.625 2.75 C-136.96604304 7.98052127 -122.91796587 17.47639408 -109.13671875 26.37109375 C-105.49298423 28.71524939 -101.78195288 30.88670268 -98 33 C-98.38671875 33.50789063 -98.7734375 34.01578125 -99.171875 34.5390625 C-100.79415685 36.68336574 -102.39981451 38.83916557 -104 41 C-104.43699219 41.58136719 -104.87398437 42.16273438 -105.32421875 42.76171875 C-106.57973407 44.45833361 -106.57973407 44.45833361 -108 47 C-107.27855056 50.31285939 -107.27855056 50.31285939 -103.87109375 51.6640625 C-98.08279036 53.63690816 -92.12838657 53.44880013 -86.07348633 53.39111328 C-84.0705295 53.37506434 -82.06739682 53.39254365 -80.06445312 53.41015625 C-72.71672996 53.38810205 -66.8031708 52.82283047 -60 50 C-59.62701316 46.65515025 -59.84452357 45.24442341 -61.6796875 42.359375 C-62.40414062 41.49828125 -63.12859375 40.6371875 -63.875 39.75 C-64.95394531 38.44289063 -64.95394531 38.44289063 -66.0546875 37.109375 C-67.82490229 34.93991391 -67.82490229 34.93991391 -70 34 C-70 33.34 -70 32.68 -70 32 C-32.56501488 10.89538197 -32.56501488 10.89538197 -13.82739258 5.71142578 C-8.82461279 4.31538338 -4.49413162 2.58173518 0 0 Z "
    fill="#F11D8C"
    transform="translate(218,116)"
  />
  <path
    d="M0 0 C5.90484473 3.41065688 11.90208147 9.74465228 14.36328125 16.1484375 C15.22977247 24.65580588 14.88137252 32.21220091 9.8515625 39.26953125 C4.29861543 46.07033159 -1.78537235 49.13006384 -10.13671875 51.5234375 C-28.65610165 57.11761243 -45.93502824 65.62749179 -62.36474609 75.8449707 C-64.63671875 77.1484375 -64.63671875 77.1484375 -66.63671875 77.1484375 C-66.63671875 77.8084375 -66.63671875 78.4684375 -66.63671875 79.1484375 C-66.0540625 79.38949219 -65.47140625 79.63054687 -64.87109375 79.87890625 C-62.20654545 81.39285415 -60.77758699 83.05694903 -58.88671875 85.4609375 C-58.273125 86.22019531 -57.65953125 86.97945313 -57.02734375 87.76171875 C-55.44537475 90.4768397 -55.35242045 92.05942714 -55.63671875 95.1484375 C-63.46084934 99.23832395 -69.53155854 99.36362003 -78.31640625 99.38867188 C-80.36630402 99.3983412 -82.41518245 99.4293739 -84.46484375 99.4609375 C-97.48497682 99.51219787 -97.48497682 99.51219787 -103.63671875 96.1484375 C-105.13671875 93.9609375 -105.13671875 93.9609375 -105.63671875 92.1484375 C-104.99863281 91.30539063 -104.36054687 90.46234375 -103.703125 89.59375 C-102.86840518 88.48704282 -102.03377438 87.38026849 -101.19921875 86.2734375 C-100.77833984 85.71785156 -100.35746094 85.16226563 -99.92382812 84.58984375 C-97.57925931 81.49750864 -97.57925931 81.49750864 -95.63671875 78.1484375 C-96.21035156 77.85453125 -96.78398438 77.560625 -97.375 77.2578125 C-103.75483591 73.88879445 -109.81532036 70.16478423 -115.88671875 66.2734375 C-143.58046149 48.71306251 -169.77013266 40.53109085 -202.63671875 41.1484375 C-200.77426185 36.9688394 -198.65157126 35.42099553 -194.63671875 33.1484375 C-188.94990678 31.12358778 -183.83179192 30.83516483 -177.82421875 30.8984375 C-176.45620117 30.90641357 -176.45620117 30.90641357 -175.06054688 30.91455078 C-168.88602684 30.99905998 -162.77578298 31.36127503 -156.63671875 32.0234375 C-155.90219482 32.10174805 -155.1676709 32.18005859 -154.41088867 32.26074219 C-151.53865715 32.61157987 -148.98407995 32.99458513 -146.32714844 34.17138672 C-143.05431083 35.35994353 -140.38175174 35.40737317 -136.90234375 35.4140625 C-134.95714844 35.41792969 -134.95714844 35.41792969 -132.97265625 35.421875 C-131.96477051 35.41559082 -131.96477051 35.41559082 -130.93652344 35.40917969 C-128.90659177 35.39854165 -126.87755938 35.40905871 -124.84765625 35.421875 C-116.25881689 35.4048674 -108.15876938 35.19882312 -100.32421875 31.2734375 C-87.29132401 25.1484375 -87.29132401 25.1484375 -81.63671875 25.1484375 C-82.62671875 23.6634375 -82.62671875 23.6634375 -83.63671875 22.1484375 C-86.04623162 17.95315091 -86.12291045 14.92932253 -85.63671875 10.1484375 C-83.63671875 8.1484375 -83.63671875 8.1484375 -80.63671875 7.8984375 C-77.63671875 8.1484375 -77.63671875 8.1484375 -75.63671875 10.1484375 C-74.98211021 16.58542152 -76.07188388 19.80118519 -79.63671875 25.1484375 C-78.64671875 25.1484375 -77.65671875 25.1484375 -76.63671875 25.1484375 C-76.63671875 25.8084375 -76.63671875 26.4684375 -76.63671875 27.1484375 C-75.93579102 27.26848145 -75.23486328 27.38852539 -74.51269531 27.51220703 C-71.40814153 28.1990039 -68.59321591 29.1989399 -65.62109375 30.328125 C-36.29017648 41.71782167 -36.29017648 41.71782167 -5.63671875 39.1484375 C-0.56612864 36.33144299 2.51972763 33.67909836 4.36328125 28.1484375 C4.86251962 22.93507944 4.9894283 18.52596101 2.80078125 13.7109375 C-1.88862684 8.78104694 -5.53916308 6.92070811 -12.26171875 6.5859375 C-16.30231056 6.73024435 -17.39790169 6.97171288 -20.76171875 9.4609375 C-23.78248026 13.79069567 -24.33510311 17.96788485 -23.63671875 23.1484375 C-22.43175956 25.85402612 -22.43175956 25.85402612 -19.63671875 27.1484375 C-16.27577027 27.46451416 -13.00108545 27.3795772 -9.63671875 27.1484375 C-9.30671875 25.8284375 -8.97671875 24.5084375 -8.63671875 23.1484375 C-9.58546875 23.1690625 -10.53421875 23.1896875 -11.51171875 23.2109375 C-14.63671875 23.1484375 -14.63671875 23.1484375 -16.63671875 22.1484375 C-15.88671875 17.3984375 -15.88671875 17.3984375 -13.63671875 15.1484375 C-9.99020272 14.66223536 -8.08721617 14.90817221 -4.82421875 16.6484375 C-1.89272886 19.99871166 -1.34686873 22.74798714 -1.63671875 27.1484375 C-3.41091012 31.74046223 -6.26402788 34.0018438 -10.63671875 36.1484375 C-15.16518367 37.10419391 -18.91649355 37.18695457 -22.953125 34.75 C-27.36305699 31.03038886 -31.13388595 27.18638567 -32.10546875 21.31640625 C-32.18000217 14.20778148 -31.43877652 9.52128249 -26.63671875 4.1484375 C-26.21003906 3.62121094 -25.78335938 3.09398438 -25.34375 2.55078125 C-19.37429763 -3.1946166 -7.47433784 -2.4139343 0 0 Z "
    fill="#FEFAFB"
    transform="translate(214.63671875,70.8515625)"
  />
  <path
    d="M0 0 C5.57270525 1.89839409 9.39024377 5.78048753 12 11 C12.53254148 17.26760361 12.6573635 22.64457487 9 28 C6.8125 30.375 6.8125 30.375 5 32 C3.68 31.34 2.36 30.68 1 30 C1 26 1 26 2.5625 23.75 C4.69393118 19.67247948 4.07788554 17.45526025 3 13 C0.69711783 10.27065817 -0.57118512 10.04288149 -4.125 9.6875 C-7.12782652 9.71012192 -7.12782652 9.71012192 -9 12 C-9.6425235 14.06874034 -9.6425235 14.06874034 -10 16 C-7.36 16.33 -4.72 16.66 -2 17 C-2.33 18.65 -2.66 20.3 -3 22 C-11.79871863 22.76882007 -11.79871863 22.76882007 -16.125 20 C-18.475371 16.2394064 -18.76989579 13.26790055 -18 9 C-14.56462882 -0.10373363 -9.03367003 -1.151601 0 0 Z "
    fill="#FEA90A"
    transform="translate(208,77)"
  />
  <path
    d="M0 0 C3 0.25 3 0.25 5 2.25 C5.65460854 8.68698402 4.56483487 11.90274769 1 17.25 C1.99 17.58 2.98 17.91 4 18.25 C1.69 18.25 -0.62 18.25 -3 18.25 C-2.34 17.92 -1.68 17.59 -1 17.25 C-1.66 16.26 -2.32 15.27 -3 14.25 C-5.40951287 10.05471341 -5.4861917 7.03088503 -5 2.25 C-3 0.25 -3 0.25 0 0 Z "
    fill="#FEEEF6"
    transform="translate(134,78.75)"
  />
  <path
    d="M0 0 C7.48291572 6.15034169 7.48291572 6.15034169 10 10 C3.56985294 9.51470588 3.56985294 9.51470588 1.0625 7.25 C-0.16717908 4.64597372 -0.23723981 2.84687774 0 0 Z "
    fill="#F33790"
    transform="translate(190,89)"
  />
  <path
    d="M0 0 C0.98484375 0.02707031 1.9696875 0.05414063 2.984375 0.08203125 C3.73203125 0.11683594 4.4796875 0.15164062 5.25 0.1875 C5.25 0.5175 5.25 0.8475 5.25 1.1875 C4.60933594 1.19007812 3.96867188 1.19265625 3.30859375 1.1953125 C-3.55294377 1.50208765 -7.09770866 3.1500852 -11.75 8.1875 C-9.65399555 1.72481961 -6.76383093 -0.24156539 0 0 Z "
    fill="#FFBC41"
    transform="translate(202.75,76.8125)"
  />
  <path
    d="M0 0 C0.66 0.33 1.32 0.66 2 1 C-0.97 3.97 -3.94 6.94 -7 10 C-7.33 9.34 -7.66 8.68 -8 8 C-3.375 2.25 -3.375 2.25 0 0 Z "
    fill="#FFECC9"
    transform="translate(193,71)"
  />
</svg>
