<svg width="15" height="15" viewBox="0 0 15 15" fill="none" xmlns="http://www.w3.org/2000/svg">
<path d="M7.4996 8.25C7.77573 8.25002 7.9996 8.47387 7.9996 8.75V12.543L9.64608 10.8965C9.84129 10.7013 10.1578 10.7014 10.3531 10.8965C10.5484 11.0917 10.5484 11.4083 10.3531 11.6035L7.4996 14.457L4.64608 11.6035L4.58163 11.5254C4.45361 11.3314 4.47541 11.0673 4.64608 10.8965C4.81688 10.7257 5.08093 10.704 5.27499 10.832L5.35311 10.8965L6.9996 12.543V8.75C6.99962 8.47397 7.22362 8.25017 7.4996 8.25Z" fill="#6B6B75"/>
<path d="M10.3532 3.39648C10.5484 3.59175 10.5484 3.90825 10.3532 4.10352C10.1579 4.2987 9.84139 4.29875 9.64615 4.10352L7.99966 2.45703V6.25C7.99966 6.52614 7.77581 6.75 7.49966 6.75C7.22366 6.74984 6.99966 6.52604 6.99966 6.25V2.45703L5.35318 4.10352L5.27505 4.16797C5.08098 4.29606 4.81698 4.27435 4.64615 4.10352C4.47537 3.93267 4.4536 3.66865 4.58169 3.47461L4.64615 3.39648L7.49966 0.542969L10.3532 3.39648Z" fill="#6B6B75"/>
</svg>
