<svg width="13" height="14" viewBox="0 0 13 14" fill="none" xmlns="http://www.w3.org/2000/svg">
<path d="M9.64258 7.31055C9.93666 7.31055 10.1908 7.31019 10.3984 7.32715C10.6123 7.34469 10.8256 7.38402 11.0303 7.48829C11.3357 7.64411 11.5846 7.89272 11.7402 8.19825C11.8445 8.40306 11.8829 8.6161 11.9004 8.83008C11.9174 9.0379 11.917 9.29154 11.917 9.58594V9.91114C11.917 10.2054 11.9174 10.4592 11.9004 10.667C11.8829 10.8809 11.8445 11.0941 11.7402 11.2988C11.5845 11.6043 11.3357 11.853 11.0303 12.0088C10.8257 12.1131 10.6122 12.1514 10.3984 12.169C10.1908 12.1859 9.93666 12.1856 9.64258 12.1856H9.31739C9.02323 12.1856 8.76925 12.1859 8.56153 12.169C8.34763 12.1515 8.13443 12.113 7.92969 12.0088C7.62409 11.8531 7.37554 11.6044 7.21973 11.2988C7.11537 11.094 7.07611 10.881 7.0586 10.667C7.04163 10.4592 7.042 10.2055 7.042 9.91114V9.58594C7.042 9.29153 7.04162 9.0379 7.0586 8.83008C7.07611 8.61601 7.11534 8.40314 7.21973 8.19825C7.37553 7.89263 7.62405 7.64403 7.92969 7.48829C8.13446 7.38406 8.34759 7.34464 8.56153 7.32715C8.76925 7.31022 9.02324 7.31055 9.31739 7.31055H9.64258ZM3.6836 7.4463C3.98002 7.4463 4.22682 7.44552 4.42774 7.46192C4.63351 7.47873 4.82709 7.51533 5.00977 7.6084C5.29002 7.7512 5.51735 7.97953 5.66016 8.25977C5.75317 8.44231 5.78982 8.63524 5.80665 8.84083C5.82307 9.04185 5.82325 9.2893 5.82325 9.58594V9.91114C5.82325 10.2076 5.82305 10.4544 5.80665 10.6553C5.78984 10.861 5.75323 11.0546 5.66016 11.2373C5.51739 11.5174 5.28982 11.7449 5.00977 11.8877C4.82709 11.9808 4.63351 12.0174 4.42774 12.0342C4.2268 12.0506 3.98005 12.0508 3.6836 12.0508H3.3584C3.06174 12.0508 2.81432 12.0506 2.61329 12.0342C2.40769 12.0174 2.21478 11.9807 2.03223 11.8877C1.75199 11.7449 1.52367 11.5176 1.38087 11.2373C1.28779 11.0546 1.25119 10.861 1.23438 10.6553C1.21799 10.4544 1.21876 10.2075 1.21876 9.91114V9.58594C1.21876 9.2893 1.21796 9.04185 1.23438 8.84083C1.2512 8.6353 1.28793 8.44226 1.38087 8.25977C1.52368 7.9795 1.75196 7.75121 2.03223 7.6084C2.21473 7.51547 2.40775 7.47874 2.61329 7.46192C2.81432 7.4455 3.06175 7.4463 3.3584 7.4463H3.6836ZM3.6836 1.48829C3.98002 1.48829 4.22682 1.48752 4.42774 1.50391C4.63351 1.52072 4.82709 1.55732 5.00977 1.6504C5.29001 1.7932 5.51736 2.02153 5.66016 2.30176C5.75315 2.48429 5.78982 2.67725 5.80665 2.88282C5.82306 3.08383 5.82325 3.33132 5.82325 3.62794V3.95313C5.82325 4.24953 5.82305 4.49636 5.80665 4.69727C5.78983 4.90301 5.75323 5.09665 5.66016 5.2793C5.51739 5.55932 5.2898 5.78693 5.00977 5.92969C4.8271 6.02276 4.6335 6.05937 4.42774 6.07618C4.22681 6.09258 3.98004 6.09278 3.6836 6.09278H3.3584C3.06175 6.09278 2.81432 6.0926 2.61329 6.07618C2.4077 6.05935 2.21477 6.02269 2.03223 5.92969C1.75201 5.78689 1.52367 5.55952 1.38087 5.2793C1.2878 5.09665 1.2512 4.90301 1.23438 4.69727C1.21799 4.49637 1.21876 4.24951 1.21876 3.95313V3.62794C1.21876 3.33132 1.21796 3.08383 1.23438 2.88282C1.2512 2.67731 1.28795 2.48424 1.38087 2.30176C1.52367 2.02149 1.75197 1.79321 2.03223 1.6504C2.21473 1.55746 2.40775 1.52073 2.61329 1.50391C2.81432 1.48749 3.06175 1.48829 3.3584 1.48829H3.6836Z" fill="#775DFF"/>
<path d="M9.47949 1.62109C9.77851 1.62126 10.0215 1.86403 10.0215 2.16309V3.24609H11.1045L11.2139 3.25781C11.4604 3.30854 11.6465 3.52652 11.6465 3.78809C11.6465 4.04963 11.4604 4.26765 11.2139 4.31836L11.1045 4.33008H10.0215V5.41309L10.0098 5.52246C9.95917 5.76906 9.74102 5.95493 9.47949 5.95508C9.21787 5.95508 8.99988 5.7691 8.94922 5.52246L8.9375 5.41309V4.33008H7.85449C7.55535 4.33008 7.31253 4.08722 7.3125 3.78809C7.3125 3.48893 7.55534 3.24609 7.85449 3.24609H8.9375V2.16309C8.9375 1.86393 9.18034 1.62109 9.47949 1.62109Z" fill="#775DFF"/>
</svg>
