<svg width="150" height="145" viewBox="0 0 150 145" fill="none" xmlns="http://www.w3.org/2000/svg">
<path d="M61.1302 144.862C44.1078 144.862 30.3083 141.527 30.3083 137.413C30.3083 133.3 44.1078 129.965 61.1302 129.965C78.1527 129.965 91.9521 133.3 91.9521 137.413C91.9521 141.527 78.1527 144.862 61.1302 144.862Z" fill="black"/>
<path d="M88.014 16.4414C107.187 16.4414 122.731 31.9844 122.731 51.1577V82.9348C122.731 102.108 107.187 117.652 88.014 117.652C77.3074 117.652 67.7332 112.804 61.3649 105.185C54.9966 112.804 45.4228 117.652 34.7163 117.652C15.543 117.651 0 102.108 0 82.9348V51.1577C9.40276e-05 31.9845 15.5431 16.4415 34.7163 16.4414C45.4227 16.4414 54.9966 21.2884 61.3649 28.9071C67.7332 21.2882 77.3075 16.4414 88.014 16.4414Z" fill="#775DFF"/>
<path d="M62.5473 104.197C68.6354 111.481 77.7833 116.11 88.014 116.11V117.652C77.3074 117.652 67.7332 112.804 61.3649 105.185C54.9966 112.804 45.4228 117.652 34.7163 117.652V116.11C44.9469 116.11 54.0944 111.481 60.1825 104.197L61.3649 102.782L62.5473 104.197ZM121.19 82.9348V51.1577C121.19 32.8356 106.336 17.9825 88.014 17.9825C77.7833 17.9825 68.6353 22.6118 62.5473 29.8954L61.3649 31.3101L60.1825 29.8954C54.0944 22.6119 44.9468 17.9825 34.7163 17.9825C16.5374 17.9826 1.77334 32.6044 1.5436 50.7288L1.5411 51.1577V82.9348C1.5411 101.257 16.3942 116.11 34.7163 116.11V117.652C15.543 117.651 0 102.108 0 82.9348V51.1577C9.40276e-05 31.9845 15.5431 16.4415 34.7163 16.4414C45.4227 16.4414 54.9966 21.2884 61.3649 28.9071C67.7332 21.2882 77.3075 16.4414 88.014 16.4414C107.187 16.4414 122.731 31.9844 122.731 51.1577V82.9348C122.731 102.108 107.187 117.652 88.014 117.652V116.11C106.336 116.11 121.19 101.257 121.19 82.9348Z" fill="black"/>
<path d="M73.716 42.125C82.3691 42.125 89.3838 48.7947 89.3838 57.0223C89.3838 65.2498 82.3691 71.9195 73.716 71.9195C68.5596 71.9195 63.9855 69.5507 61.1304 65.8956C58.2752 69.5507 53.7011 71.9195 48.5448 71.9195C39.8917 71.9195 32.877 65.2498 32.877 57.0223C32.877 48.7947 39.8917 42.125 48.5448 42.125C53.701 42.125 58.2752 44.4935 61.1304 48.1484C63.9856 44.4935 68.5598 42.125 73.716 42.125Z" fill="white"/>
<path d="M62.3449 64.947C64.9095 68.2301 69.0365 70.3784 73.716 70.3784V71.9195C68.5596 71.9195 63.9855 69.5507 61.1304 65.8956C58.2752 69.5507 53.7011 71.9195 48.5448 71.9195V70.3784C53.2243 70.3784 57.3513 68.2301 59.9159 64.947L61.1304 63.3923L62.3449 64.947ZM87.8427 57.0223C87.8427 49.8324 81.786 43.8557 74.0842 43.6706L73.716 43.6661C69.0366 43.6661 64.9095 45.8142 62.3449 49.0971L61.1304 50.6517L59.9159 49.0971C57.4314 45.9167 53.4805 43.8012 48.9817 43.6721L48.5448 43.6661C40.6686 43.6661 34.418 49.7182 34.418 57.0223C34.418 64.3264 40.6686 70.3784 48.5448 70.3784V71.9195C39.8917 71.9195 32.877 65.2498 32.877 57.0223C32.877 48.7947 39.8917 42.125 48.5448 42.125C53.701 42.125 58.2752 44.4935 61.1304 48.1484C63.9856 44.4935 68.5598 42.125 73.716 42.125C82.3691 42.125 89.3838 48.7947 89.3838 57.0223C89.3838 65.2498 82.3691 71.9195 73.716 71.9195V70.3784C81.469 70.3784 87.6469 64.5141 87.8382 57.3639L87.8427 57.0223Z" fill="black"/>
<path d="M79.3663 59.5887C75.2525 59.5887 71.9177 56.2538 71.9177 52.14C71.9177 48.0263 75.2525 44.6914 79.3663 44.6914C83.4801 44.6914 86.8149 48.0263 86.8149 52.14C86.8149 56.2538 83.4801 59.5887 79.3663 59.5887Z" fill="black"/>
<path d="M54.1949 59.5887C50.0812 59.5887 46.7463 56.2538 46.7463 52.14C46.7463 48.0263 50.0812 44.6914 54.1949 44.6914C58.3087 44.6914 61.6436 48.0263 61.6436 52.14C61.6436 56.2538 58.3087 59.5887 54.1949 59.5887Z" fill="black"/>
<path d="M125.342 0C111.725 6.18353e-06 100.685 8.05709 100.685 17.996C100.685 21.7863 102.292 25.3018 105.033 28.2023L104.434 34.5211L109.896 32.0224C114.123 34.505 119.495 35.992 125.342 35.992C138.96 35.992 150 27.9349 150 17.996C150 8.05709 138.96 0 125.342 0Z" fill="white"/>
<path d="M102.226 17.996C102.226 13.6387 104.643 9.5609 108.815 6.51554C112.856 3.56625 118.462 1.66272 124.733 1.54661L125.342 1.5411C131.86 1.5411 137.698 3.4711 141.87 6.51554C145.912 9.46568 148.306 13.3847 148.452 17.5882L148.459 17.996C148.459 22.3533 146.042 26.4311 141.87 29.4765C137.698 32.5209 131.86 34.4509 125.342 34.4509V35.992C138.96 35.992 150 27.9349 150 17.996C150 8.05709 138.96 0 125.342 0C111.725 6.18353e-06 100.685 8.05709 100.685 17.996C100.685 21.7863 102.292 25.3018 105.033 28.2023L104.434 34.5211L109.896 32.0224C114.123 34.505 119.495 35.992 125.342 35.992V34.4509C119.749 34.4509 114.65 33.0273 110.676 30.6935L109.984 30.2871L106.221 32.0088L106.634 27.6514L106.153 27.1438C103.633 24.478 102.226 21.327 102.226 17.996Z" fill="black"/>
<path d="M134.942 19.3532C134.29 19.3532 133.731 18.8127 133.749 18.1419C133.731 17.4896 134.29 16.9492 134.942 16.9492C135.594 16.9492 136.135 17.4896 136.135 18.1419C136.135 18.8127 135.594 19.3532 134.942 19.3532Z" fill="black"/>
<path d="M125.345 19.3532C124.693 19.3532 124.134 18.8127 124.152 18.1419C124.134 17.4896 124.693 16.9492 125.345 16.9492C125.997 16.9492 126.538 17.4896 126.538 18.1419C126.538 18.8127 125.997 19.3532 125.345 19.3532Z" fill="black"/>
<path d="M115.748 19.3532C115.096 19.3532 114.537 18.8127 114.556 18.1419C114.537 17.4896 115.096 16.9492 115.748 16.9492C116.401 16.9492 116.941 17.4896 116.941 18.1419C116.941 18.8127 116.401 19.3532 115.748 19.3532Z" fill="black"/>
</svg>
