<svg width="141" height="115" viewBox="0 0 141 115" fill="none" xmlns="http://www.w3.org/2000/svg">
<path d="M76.3479 114.685C62.0674 114.685 50.4908 111.887 50.4908 108.436C50.4908 104.985 62.0674 102.187 76.3479 102.187C90.6284 102.187 102.205 104.985 102.205 108.436C102.205 111.887 90.6284 114.685 76.3479 114.685Z" fill="black"/>
<path d="M87.2927 4.29284C103.227 2.09651 117.925 13.2331 120.121 29.1672L123.761 55.5758C125.958 71.51 114.821 86.208 98.8865 88.4044C89.9887 89.6308 81.4766 86.6993 75.3114 81.0969C70.8917 88.1582 63.4905 93.2833 54.5927 94.5097C38.6585 96.706 23.9608 85.569 21.7644 69.6349L18.1243 43.2263C15.928 27.2922 27.0647 12.5946 42.9989 10.3982C51.8966 9.17176 60.4083 12.1032 66.5735 17.7053C70.9932 10.644 78.3949 5.51932 87.2927 4.29284Z" fill="#775DFF"/>
<path d="M76.1808 80.1402C82.0748 85.496 90.2076 88.2956 98.71 87.1237L98.8865 88.4044C89.9887 89.6308 81.4766 86.6993 75.3114 81.0969C70.8917 88.1582 63.4905 93.2833 54.5927 94.5097L54.4162 93.229C62.9185 92.0571 69.9903 87.1616 74.2155 80.4111L75.0361 79.0999L76.1808 80.1402ZM122.481 55.7524L118.841 29.3438C116.758 14.236 102.915 3.64119 87.8259 5.52654L87.4692 5.57358C78.9669 6.74556 71.8946 11.6406 67.6694 18.3911L66.8488 19.7023L65.7041 18.662C59.9022 13.3901 51.9311 10.5952 43.5736 11.627L43.1754 11.6789C28.0676 13.7614 17.4727 27.6042 19.358 42.693L19.405 43.0497L23.0452 69.4583C25.144 84.6851 39.1893 95.3278 54.4162 93.229L54.5927 94.5097C38.6585 96.706 23.9608 85.569 21.7644 69.6349L18.1243 43.2263C15.928 27.2922 27.0647 12.5946 42.9989 10.3982C51.8966 9.17176 60.4083 12.1032 66.5735 17.7053C70.9932 10.644 78.3949 5.51932 87.2927 4.29284C103.227 2.09651 117.925 13.2331 120.121 29.1672L123.761 55.5758C125.958 71.51 114.821 86.208 98.8865 88.4044L98.71 87.1237C113.937 85.0248 124.58 70.9792 122.481 55.7524Z" fill="black"/>
<path d="M96.3489 40.8715C95.9673 41.2784 95.3441 41.323 94.91 40.9916L94.8259 40.9204L94.6477 40.7563C92.7646 39.0577 89.6349 37.2409 86.1758 37.0547C82.7043 36.8678 78.7034 38.3106 75.1124 43.6759C74.7815 44.1703 74.1124 44.3029 73.6179 43.9719C73.1234 43.641 72.9909 42.9719 73.3218 42.4774C77.2827 36.5595 81.9704 34.6704 86.2917 34.9031C90.3817 35.1233 93.9607 37.2332 96.0976 39.1622L96.3 39.3484L96.3764 39.4279C96.7349 39.8397 96.7304 40.4645 96.3489 40.8715Z" fill="black"/>
<path d="M69.0906 45.0707C68.709 45.4776 68.0858 45.5222 67.6517 45.1908L67.5675 45.1196L67.3894 44.9555C65.5063 43.257 62.3766 41.4401 58.9175 41.2539C55.446 41.067 51.4451 42.5098 47.8541 47.8751C47.5232 48.3696 46.8541 48.5021 46.3596 48.1711C45.8651 47.8402 45.7326 47.1711 46.0635 46.6766C50.0244 40.7587 54.7121 38.8697 59.0334 39.1023C63.1234 39.3225 66.7024 41.4324 68.8393 43.3614L69.0417 43.5476L69.1181 43.6271C69.4766 44.039 69.4721 44.6637 69.0906 45.0707Z" fill="black"/>
<path d="M25.574 61.603C30.3237 59.5705 40.4558 57.6527 49.5549 63.8654C50.292 64.3687 50.4817 65.3745 49.9784 66.1115C49.4909 66.8255 48.5319 67.0256 47.8023 66.58L47.7323 66.5346L47.3382 66.2719C39.0467 60.8769 29.7587 63.089 26.1623 64.8901C26.1426 64.8999 26.1228 64.9091 26.1028 64.9181C26.0946 64.9218 26.0865 64.9254 26.0783 64.9289C26.0606 64.9365 26.0427 64.9436 26.0248 64.9506C26.0176 64.9534 26.0106 64.9564 26.0034 64.9591C25.9918 64.9634 25.9801 64.9676 25.9683 64.9716C25.7876 65.0346 25.6017 65.0634 25.418 65.0608C25.4105 65.0608 25.4031 65.0606 25.3956 65.0604C25.3841 65.0601 25.3726 65.0596 25.3611 65.0591C25.3463 65.0584 25.3314 65.0577 25.3166 65.0566C25.3073 65.0558 25.2981 65.0549 25.2889 65.054C25.2706 65.0524 25.2523 65.0505 25.2341 65.0482C25.2289 65.0475 25.2238 65.0465 25.2186 65.0458C25.2009 65.0434 25.1832 65.041 25.1656 65.038C25.1542 65.036 25.1428 65.0338 25.1315 65.0316C25.0419 65.0143 24.9532 64.9892 24.8662 64.9562C24.8562 64.9524 24.8463 64.9483 24.8363 64.9443C24.821 64.9381 24.8057 64.9319 24.7905 64.9252C24.7838 64.9222 24.7772 64.9191 24.7705 64.9161C24.7533 64.9082 24.7361 64.9004 24.7191 64.8919C24.7119 64.8883 24.7048 64.8843 24.6976 64.8806C24.6831 64.8731 24.6686 64.8655 24.6542 64.8575C24.6424 64.8509 24.6307 64.8443 24.619 64.8375C24.6119 64.8333 24.6043 64.8292 24.5972 64.8249L24.5908 64.8206C24.5717 64.8089 24.553 64.7968 24.5344 64.7843L24.5272 64.7795L24.133 64.5167C15.8416 59.1218 6.55357 61.3339 2.95714 63.1349C2.15911 63.5345 1.18799 63.2114 0.78834 62.4134C0.388914 61.6155 0.711729 60.6447 1.50946 60.245C5.67795 58.1574 16.0835 55.6315 25.574 61.603Z" fill="black"/>
<path d="M32.8214 69.8665C32.8214 74.1506 29.3484 77.6236 25.0643 77.6236C20.7801 77.6236 17.3071 74.1506 17.3071 69.8665C17.3071 65.5823 20.7801 62.1094 25.0643 62.1094C29.3484 62.1094 32.8214 65.5823 32.8214 69.8665Z" fill="white"/>
<path d="M31.5286 69.8665C31.5286 66.2964 28.6344 63.4022 25.0643 63.4022C21.4941 63.4022 18.6 66.2964 18.6 69.8665C18.6 73.4366 21.4941 76.3307 25.0643 76.3307V77.6236C20.7801 77.6236 17.3071 74.1506 17.3071 69.8665C17.3071 65.5823 20.7801 62.1094 25.0643 62.1094C29.3484 62.1094 32.8214 65.5823 32.8214 69.8665C32.8214 74.1506 29.3484 77.6236 25.0643 77.6236V76.3307C28.6344 76.3307 31.5286 73.4366 31.5286 69.8665Z" fill="black"/>
<path d="M135.3 49.4973C135.321 49.8684 135.613 50.1324 135.951 50.087C136.29 50.0417 136.547 49.7042 136.527 49.3331C136.226 43.9843 133.231 40.3184 131.6 39.001L131.447 38.8806L131.395 38.8457C131.128 38.6867 130.777 38.781 130.587 39.0738C130.396 39.3665 130.433 39.7538 130.662 39.9705L130.711 40.0114L130.845 40.1168C132.278 41.2776 135.027 44.6342 135.3 49.4973Z" fill="white"/>
<path d="M138.072 49.7584C138.058 50.1297 138.324 50.42 138.665 50.4068C139.007 50.3935 139.295 50.0816 139.309 49.7103C139.512 44.3571 136.876 40.4216 135.376 38.9547L135.235 38.8205L135.186 38.7806C134.936 38.5971 134.578 38.6572 134.36 38.9303C134.143 39.2033 134.143 39.5924 134.35 39.83L134.394 39.8755L134.519 39.9934C135.837 41.2862 138.257 44.8908 138.072 49.7584Z" fill="white"/>
<path d="M131.078 47.4602C131.078 51.7444 127.605 55.2173 123.321 55.2173C119.037 55.2173 115.564 51.7444 115.564 47.4602C115.564 43.1761 119.037 39.7031 123.321 39.7031C127.605 39.7031 131.078 43.1761 131.078 47.4602Z" fill="white"/>
<path d="M129.785 47.4602C129.785 43.8901 126.891 40.996 123.321 40.996C119.751 40.996 116.857 43.8901 116.857 47.4602C116.857 51.0303 119.751 53.9245 123.321 53.9245V55.2173C119.037 55.2173 115.564 51.7444 115.564 47.4602C115.564 43.1761 119.037 39.7031 123.321 39.7031C127.605 39.7031 131.078 43.1761 131.078 47.4602C131.078 51.7444 127.605 55.2173 123.321 55.2173V53.9245C126.891 53.9245 129.785 51.0303 129.785 47.4602Z" fill="black"/>
</svg>
