<svg
  width="19"
  height="20"
  viewBox="0 0 19 20"
  fill="none"
  xmlns="http://www.w3.org/2000/svg"
>
  <path
    d="M7.78795 14.5833C7.78904 13.522 8.11385 12.4844 8.72204 11.5994C9.33024 10.7143 10.195 10.0208 11.209 9.60502C12.2229 9.18922 13.3414 9.06944 14.4254 9.26055C15.5095 9.45167 16.5113 9.94525 17.3066 10.68V0H2.59598C1.90749 0 1.24719 0.263392 0.760346 0.732233C0.273505 1.20107 0 1.83696 0 2.5V17.5C0 18.163 0.273505 18.7989 0.760346 19.2678C1.24719 19.7366 1.90749 20 2.59598 20H13.4126C11.9208 20 10.4902 19.4293 9.43536 18.4135C8.38054 17.3977 7.78795 16.0199 7.78795 14.5833ZM4.32664 4.16667H12.9799V5.83333H4.32664V4.16667ZM17.7764 19.9642L15.4773 17.75C14.8604 18.1291 14.1443 18.3315 13.4126 18.3333C12.6424 18.3333 11.8896 18.1134 11.2492 17.7013C10.6088 17.2893 10.1097 16.7036 9.81501 16.0184C9.52029 15.3332 9.44318 14.5792 9.59343 13.8517C9.74368 13.1243 10.1145 12.4561 10.6591 11.9317C11.2037 11.4072 11.8975 11.0501 12.6529 10.9054C13.4083 10.7607 14.1912 10.835 14.9027 11.1188C15.6143 11.4026 16.2224 11.8833 16.6503 12.4999C17.0782 13.1166 17.3066 13.8417 17.3066 14.5833C17.3046 15.288 17.0945 15.9776 16.7008 16.5717L19 18.7858L17.7764 19.9642Z"
    fill="#6B6B75"
  />
</svg>
