<svg
  width="23"
  height="22"
  viewBox="0 0 23 22"
  fill="none"
  xmlns="http://www.w3.org/2000/svg"
>
  <path
    fill-rule="evenodd"
    clip-rule="evenodd"
    d="M5.32397 1.44569C5.20833 1.39423 4.95312 1.28427 4.6433 1.30799L4.50756 1.32655C4.10516 1.4081 3.76618 1.67777 3.59545 2.05116C3.43873 2.39423 3.49783 2.73142 3.52514 2.87342C3.5562 3.03495 3.61144 3.22801 3.66455 3.41364C3.66789 3.42533 3.67123 3.437 3.67455 3.44862L4.29955 5.63612C4.31296 5.68302 4.32617 5.72931 4.33922 5.77503C4.65576 6.88413 4.87418 7.64945 5.30932 8.27674C5.69177 8.82808 6.19026 9.28895 6.77026 9.62635C7.42863 10.0093 8.20706 10.1658 9.33357 10.3922C9.38276 10.4021 9.43261 10.4121 9.48315 10.4223L12.3552 11.0004L9.48315 11.5795C9.43264 11.5896 9.38282 11.5997 9.33366 11.6095C8.2071 11.836 7.42865 11.9924 6.77026 12.3754C6.19027 12.7127 5.69178 13.1737 5.30932 13.725C4.87419 14.3523 4.65578 15.1175 4.33925 16.2266C4.32619 16.2723 4.31297 16.3187 4.29955 16.3656L3.67455 18.5541C3.67057 18.568 3.66657 18.582 3.66256 18.596C3.6101 18.7793 3.55581 18.9689 3.52514 19.1283C3.49784 19.2703 3.4387 19.6074 3.59545 19.9506C3.76613 20.3241 4.10509 20.5936 4.50756 20.6752C4.87703 20.75 5.19172 20.6159 5.32397 20.557C5.47151 20.4914 5.64341 20.3957 5.80933 20.3034C5.82305 20.2958 5.83672 20.2882 5.85033 20.2807L18.8044 13.0844L18.8256 13.0726C19.1779 12.8769 19.4969 12.6997 19.739 12.5346C19.9801 12.3701 20.2796 12.1315 20.449 11.7582C20.6669 11.2773 20.6669 10.7254 20.449 10.2445C20.2796 9.87085 19.9802 9.63169 19.739 9.46717C19.4969 9.30205 19.1781 9.12494 18.8257 8.92919L18.8044 8.91737L5.85033 1.72108C5.8445 1.71784 5.83865 1.71459 5.83279 1.71133C5.6597 1.61515 5.47848 1.51445 5.32397 1.44569Z"
    fill="#D4D9DD"
  />
</svg>
