<svg
  width="25"
  height="25"
  viewBox="0 0 25 25"
  fill="none"
  xmlns="http://www.w3.org/2000/svg"
>
  <path
    d="M15.2998 1.71484C16.5469 1.71484 17.5296 1.71478 18.3193 1.7793C19.1183 1.84457 19.789 1.98 20.3994 2.29102C21.3938 2.7977 22.2023 3.60619 22.709 4.60059C23.02 5.21099 23.1554 5.88174 23.2207 6.68066C23.2852 7.4704 23.2852 8.45311 23.2852 9.7002V15.2998C23.2852 16.5469 23.2852 17.5296 23.2207 18.3193C23.1554 19.1183 23.02 19.789 22.709 20.3994C22.2023 21.3938 21.3938 22.2023 20.3994 22.709C19.789 23.02 19.1183 23.1554 18.3193 23.2207C17.5296 23.2852 16.5469 23.2852 15.2998 23.2852H9.7002C8.45311 23.2852 7.4704 23.2852 6.68066 23.2207C5.88173 23.1554 5.21099 23.02 4.60059 22.709C3.60619 22.2023 2.7977 21.3938 2.29102 20.3994C1.98 19.789 1.84457 19.1183 1.7793 18.3193C1.71478 17.5296 1.71484 16.5469 1.71484 15.2998V9.7002C1.71484 8.45311 1.71478 7.4704 1.7793 6.68066C1.84457 5.88174 1.98 5.21099 2.29102 4.60059C2.7977 3.60619 3.60619 2.7977 4.60059 2.29102C5.21099 1.98 5.88173 1.84457 6.68066 1.7793C7.4704 1.71478 8.45311 1.71484 9.7002 1.71484H15.2998ZM9.80273 13.5283C9.53628 13.4162 9.23838 13.4026 8.96289 13.4902C8.86512 13.5214 8.72453 13.597 8.47266 13.832C8.21555 14.072 7.90643 14.414 7.4502 14.9209L4.08301 18.6621L3.55859 19.2461L3.50391 19.1963C3.55508 19.3825 3.61589 19.5421 3.68945 19.6865C4.04562 20.3855 4.61445 20.9544 5.31348 21.3105C5.66563 21.4899 6.1069 21.5989 6.80859 21.6562C7.51956 21.7143 8.42728 21.7148 9.7002 21.7148H15.2998C15.6312 21.7148 15.9378 21.711 16.2227 21.71L13.4844 18.1709L13.4766 18.1611L11.1797 15.0898C10.7711 14.5438 10.4941 14.1753 10.2598 13.9131C10.0301 13.6563 9.89728 13.5681 9.80273 13.5283ZM17.3633 16.4717C17.093 16.3518 16.788 16.3351 16.5059 16.4238C16.4068 16.455 16.262 16.5327 16.002 16.7793C15.7711 16.9982 15.5005 17.2997 15.124 17.7246L17.6738 21.0195L18.1543 21.6406L18.1289 21.6592C18.1499 21.6576 18.1708 21.6579 18.1914 21.6562C18.8931 21.5989 19.3344 21.4899 19.6865 21.3105C20.3855 20.9544 20.9544 20.3855 21.3105 19.6865C21.3149 19.678 21.318 19.6688 21.3223 19.6602L20.3076 20.3711L19.8574 19.7285L18.7393 18.1318C18.3337 17.553 18.0579 17.1618 17.8232 16.8828C17.5925 16.6085 17.4582 16.5138 17.3633 16.4717ZM9.7002 3.28516C8.42728 3.28516 7.51956 3.28568 6.80859 3.34375C6.1069 3.40108 5.66563 3.51007 5.31348 3.68945C4.61445 4.04562 4.04562 4.61445 3.68945 5.31348C3.51007 5.66563 3.40108 6.10691 3.34375 6.80859C3.28568 7.51956 3.28516 8.42728 3.28516 9.7002V15.2998C3.28516 16.0421 3.28716 16.6602 3.29883 17.1875L6.2832 13.8711C6.72047 13.3852 7.08243 12.9822 7.40137 12.6846C7.7252 12.3824 8.06725 12.1276 8.48633 11.9941C9.11791 11.7932 9.80125 11.8239 10.4121 12.0811C10.8176 12.2518 11.1354 12.5369 11.4307 12.8672C11.7214 13.1924 12.045 13.6261 12.4365 14.1494L14.1572 16.4492C14.4419 16.1306 14.6925 15.8581 14.9219 15.6406C15.2529 15.3268 15.6034 15.0614 16.0342 14.9258C16.681 14.7223 17.3802 14.7621 18 15.0371C18.4129 15.2204 18.7318 15.5229 19.0254 15.8721C19.315 16.2165 19.6354 16.6761 20.0244 17.2314L21.1426 18.8271L21.4678 19.291C21.5563 19.0052 21.6183 18.6555 21.6562 18.1914C21.7143 17.4804 21.7148 16.5727 21.7148 15.2998V9.7002C21.7148 8.42728 21.7143 7.51956 21.6562 6.80859C21.5989 6.10691 21.4899 5.66563 21.3105 5.31348C20.9544 4.61446 20.3855 4.04562 19.6865 3.68945C19.3344 3.51007 18.8931 3.40108 18.1914 3.34375C17.4804 3.28568 16.5727 3.28516 15.2998 3.28516H9.7002ZM16.5 6.71484C18.0381 6.71484 19.2852 7.96189 19.2852 9.5C19.2852 11.0381 18.0381 12.2852 16.5 12.2852C14.9619 12.2852 13.7148 11.0381 13.7148 9.5C13.7148 7.96189 14.9619 6.71484 16.5 6.71484ZM16.5 8.28516C15.829 8.28516 15.2852 8.82898 15.2852 9.5C15.2852 10.171 15.829 10.7148 16.5 10.7148C17.171 10.7148 17.7148 10.171 17.7148 9.5C17.7148 8.82898 17.171 8.28516 16.5 8.28516Z"
    fill="#6B6B75"
  />
</svg>
