<svg width="131" height="140" viewBox="0 0 131 140" fill="none" xmlns="http://www.w3.org/2000/svg">
<path d="M65.2651 139.348C48.2191 139.348 34.4007 136.008 34.4007 131.889C34.4007 127.769 48.2192 124.43 65.2651 124.43C82.311 124.43 96.1294 127.769 96.1294 131.889C96.1294 136.008 82.311 139.348 65.2651 139.348Z" fill="black"/>
<path d="M65.2651 139.348C48.2191 139.348 34.4007 136.008 34.4007 131.889C34.4007 127.769 48.2192 124.43 65.2651 124.43C82.311 124.43 96.1294 127.769 96.1294 131.889C96.1294 136.008 82.311 139.348 65.2651 139.348Z" fill="black"/>
<path d="M88.398 8.92447C107.546 7.51671 124.21 21.8982 125.618 41.0465L127.951 72.7821C129.359 91.9304 114.977 108.595 95.829 110.003C85.1365 110.789 75.219 106.651 68.2997 99.5093C62.4992 107.586 53.2939 113.13 42.6015 113.916C23.4535 115.324 6.78981 100.942 5.38207 81.7933L3.04893 50.0577C1.64129 30.9095 16.0226 14.2456 35.1705 12.8377C45.8628 12.0517 55.78 16.1894 62.6992 23.3306C68.4997 15.254 77.7056 9.71061 88.398 8.92447Z" fill="#775DFF"/>
<path d="M69.408 98.4355C76.0228 105.263 85.4986 109.215 95.7158 108.464L95.829 110.003L95.3282 110.036C84.8273 110.659 75.1109 106.539 68.2997 99.5093C62.4992 107.586 53.2939 113.13 42.6015 113.916L42.4884 112.377C52.7055 111.626 61.501 106.33 67.0463 98.6091L68.1233 97.1095L69.408 98.4355ZM126.412 72.8952L124.079 41.1596C122.734 22.8614 106.809 9.11829 88.5111 10.4636C78.2939 11.2148 69.4979 16.5096 63.9527 24.2307L62.8757 25.7304L61.5909 24.4044C55.0795 17.684 45.796 13.75 35.7619 14.3452L35.2837 14.3768C17.1287 15.7117 3.45772 31.3984 4.55901 49.516L4.588 49.9446L6.92113 81.6802C8.26638 99.9785 24.1904 113.722 42.4884 112.377L42.6015 113.916L42.1534 113.946C23.1942 115.098 6.77881 100.792 5.38207 81.7933L3.04893 50.0577C1.64129 30.9095 16.0226 14.2456 35.1705 12.8377L35.6713 12.8045C46.172 12.1817 55.8881 16.301 62.6992 23.3306C68.4997 15.254 77.7056 9.71061 88.398 8.92447C107.546 7.51671 124.21 21.8982 125.618 41.0465L127.951 72.7821L127.981 73.2302C129.134 92.1898 114.828 108.606 95.829 110.003L95.7158 108.464C114.014 107.118 127.757 91.1936 126.412 72.8952Z" fill="black"/>
<path d="M76.7739 35.566C85.8406 34.8994 93.7057 41.3646 94.341 50.0064C94.9763 58.6482 88.1414 66.1942 79.0747 66.8607C73.3298 67.2831 68.0679 64.8418 64.8214 60.7982C62.201 64.3834 57.9724 66.8648 53.054 67.2264C44.4123 67.8617 36.9171 61.7157 36.313 53.4989C35.7089 45.2821 42.2247 38.1061 50.8664 37.4707C56.1346 37.0834 60.9768 39.2164 64.0912 42.8024C66.8059 38.7752 71.3977 35.9613 76.7739 35.566Z" fill="white"/>
<path d="M66.0248 59.8323C68.9541 63.4808 73.7242 65.7067 78.9615 65.3216L79.0747 66.8607C73.3298 67.2831 68.0679 64.8418 64.8214 60.7982C62.201 64.3834 57.9724 66.8648 53.054 67.2264L52.9408 65.6873C57.404 65.3592 61.2198 63.1102 63.5753 59.8875L64.7639 58.2617L66.0248 59.8323ZM36.313 53.4989C35.7089 45.2821 42.2247 38.1061 50.8664 37.4707C56.1346 37.0834 60.9768 39.2164 64.0912 42.8024C66.8059 38.7752 71.3977 35.9613 76.7739 35.566C85.8406 34.8994 93.7057 41.3646 94.341 50.0064C94.9763 58.6482 88.1414 66.1942 79.0747 66.8607L78.9615 65.3216C87.1191 64.7219 93.1776 58.0558 92.8235 50.4812L92.8019 50.1196C92.243 42.5173 85.3933 36.6805 77.2747 37.0811L76.8871 37.1051C71.9861 37.4654 67.823 40.0276 65.3711 43.6648L64.2461 45.3337L62.926 43.8144C60.217 40.6953 56.0323 38.7805 51.4264 38.9835L50.9795 39.0098C43.1138 39.5881 37.3158 46.0912 37.8521 53.3858C38.3884 60.6803 45.0751 66.2656 52.9408 65.6873L53.054 67.2264C44.4123 67.8617 36.9171 61.7157 36.313 53.4989Z" fill="black"/>
<path d="M78.8032 59.6577C74.1282 60.0015 70.0598 56.4902 69.7161 51.8151C69.3724 47.14 72.8836 43.0715 77.5586 42.7278C82.2336 42.3841 86.3021 45.8954 86.6458 50.5704C86.9895 55.2455 83.4782 59.314 78.8032 59.6577Z" fill="black"/>
<path d="M52.488 59.5302C48.3796 59.8322 44.8043 56.7466 44.5023 52.6382C44.2002 48.5298 47.2859 44.9544 51.3942 44.6524C55.5025 44.3503 59.0779 47.436 59.3799 51.5444C59.6819 55.6528 56.5963 59.2282 52.488 59.5302Z" fill="black"/>
<path d="M93.5882 61.172C95.4542 59.0297 98.7035 58.8056 100.846 60.6716L109.76 68.4364C111.903 70.3024 112.127 73.5517 110.261 75.6941L109.858 76.1564C107.992 78.2987 104.743 78.5228 102.601 76.6568L93.6859 68.892C91.5436 67.0261 91.3196 63.7767 93.1855 61.6343L93.5882 61.172Z" fill="black"/>
<path d="M121.217 64.7947C121.592 69.8947 117.762 74.3331 112.662 74.7081C107.562 75.083 103.124 71.2526 102.749 66.1525C102.374 61.0524 106.204 56.614 111.304 56.2391C116.404 55.8641 120.843 59.6946 121.217 64.7947Z" fill="white"/>
<path d="M119.678 64.9078C119.366 60.6577 115.667 57.4657 111.417 57.7781C107.167 58.0906 103.975 61.7893 104.288 66.0393C104.6 70.2894 108.299 73.4815 112.549 73.169L112.662 74.7081C107.562 75.083 103.124 71.2526 102.749 66.1525C102.374 61.0524 106.204 56.614 111.304 56.2391C116.404 55.8641 120.843 59.6946 121.217 64.7947C121.592 69.8947 117.762 74.3331 112.662 74.7081L112.549 73.169C116.799 72.8565 119.991 69.1579 119.678 64.9078Z" fill="black"/>
<path d="M64.1519 54.75L91.6926 30.7617L95.4091 35.0287L67.8683 59.0169L64.1519 54.75Z" fill="#D9D9D9" fill-opacity="0.3"/>
<path d="M68.0591 64.3594L95.5999 40.3711L99.3163 44.638L71.7755 68.6263L68.0591 64.3594Z" fill="#D9D9D9" fill-opacity="0.3"/>
<path d="M95.8613 49.639C95.2364 41.1389 87.8392 34.7548 79.3392 35.3797C70.8391 36.0046 64.4551 43.402 65.08 51.9021C65.7049 60.4022 73.1021 66.7863 81.6022 66.1614L82.2056 74.3699C69.1723 75.3281 57.8299 65.5391 56.8717 52.5056C55.9135 39.472 65.7023 28.1295 78.7357 27.1713C91.769 26.213 103.111 36.002 104.07 49.0356C105.028 62.0691 95.239 73.4117 82.2056 74.3699L81.6022 66.1614C90.1022 65.5365 96.4862 58.1392 95.8613 49.639Z" fill="black"/>
<path d="M100.142 14.7541C99.9979 11.6428 100.772 10.6196 102.227 9.60964C103.267 8.84866 104.052 8.02609 103.989 6.87238C103.921 5.61835 102.898 4.84395 101.694 4.9095C100.515 4.97368 99.4791 5.8099 99.5095 7.29239L95.9481 7.48631C95.8308 3.94584 98.3477 2.12341 101.558 1.94861C105.044 1.75879 107.627 3.45448 107.795 6.53941C107.907 8.59602 106.926 9.98265 105.324 11.0509C103.966 11.9801 103.382 12.8169 103.453 14.5739L103.468 14.8498L100.157 15.03L100.142 14.7541ZM102.196 20.604C101.018 20.6682 100.013 19.767 99.9749 18.612C99.887 17.4596 100.79 16.4797 101.968 16.4156C103.072 16.3555 104.101 17.2302 104.163 18.3839C104.226 19.5376 103.3 20.5439 102.196 20.604Z" fill="white"/>
<path d="M104.163 18.386C104.1 17.2323 103.072 16.3576 101.968 16.4177C100.789 16.4819 99.8868 17.4618 99.9747 18.6141C100.012 19.7692 101.017 20.6703 102.196 20.6062C103.3 20.5461 104.226 19.5398 104.163 18.386ZM102.448 6.95841C102.437 6.75572 102.362 6.65249 102.285 6.58896C102.195 6.51467 102.028 6.43895 101.778 6.45258C101.521 6.46657 101.341 6.5607 101.239 6.66251C101.155 6.74639 101.045 6.9108 101.052 7.26284L101.078 8.53628C101.158 8.47755 101.238 8.4202 101.318 8.36425C101.79 8.01833 102.091 7.73777 102.266 7.49204C102.418 7.27963 102.457 7.12512 102.448 6.95841ZM103.989 6.87451C104.052 8.02822 103.267 8.85079 102.226 9.61177C100.772 10.6217 99.9977 11.6449 100.142 14.7563L100.157 15.0322L103.468 14.8519L103.453 14.576C103.382 12.819 103.965 11.9823 105.323 11.0531C106.925 9.98478 107.906 8.59815 107.794 6.54153C107.626 3.45661 105.044 1.76092 101.558 1.95074C98.3474 2.12554 95.8305 3.94796 95.9478 7.48844L99.5093 7.29452C99.4788 5.81203 100.515 4.97581 101.694 4.91162C102.898 4.84607 103.921 5.62048 103.989 6.87451ZM109.335 6.45763C109.407 7.7677 109.128 8.93215 108.533 9.94754C107.953 10.9392 107.12 11.7077 106.195 12.3268L105.984 12.475C105.53 12.808 105.316 13.0491 105.197 13.261C105.074 13.48 104.967 13.8188 104.995 14.5142L105.092 16.3089L104.968 16.3157C105.391 16.8684 105.663 17.5488 105.704 18.3021C105.813 20.3069 104.235 22.0407 102.28 22.1471C100.269 22.2566 98.4994 20.7162 98.4324 18.6644C98.3892 17.9194 98.5754 17.228 98.9256 16.6447L98.6999 16.657L98.6003 14.8276C98.5231 13.1614 98.6772 11.8414 99.1846 10.7469C99.5862 9.88051 100.158 9.2678 100.773 8.77121L94.4577 9.1151L94.4056 7.53971C94.3334 5.36014 95.0857 3.56675 96.469 2.31384C97.8148 1.09504 99.6183 0.510812 101.474 0.40978C103.47 0.301076 105.359 0.723079 106.816 1.76151C108.311 2.82713 109.227 4.45933 109.335 6.45763Z" fill="black"/>
</svg>
