<svg
  width="19"
  height="17"
  viewBox="0 0 19 17"
  fill="none"
  xmlns="http://www.w3.org/2000/svg"
>
  <path
    d="M18.1466 0.539947C17.873 0.318698 17.5522 0.159801 17.2076 0.074842C16.863 -0.0101165 16.5033 -0.0189946 16.1548 0.0488552L12.8915 0.821011C12.1619 0.950489 11.502 1.32563 11.0268 1.88104C10.5517 2.43645 10.2916 3.13688 10.2917 3.86022V15.2881L9.5 15.4279L8.70833 15.2881V3.86022C8.71123 3.14404 8.45752 2.44938 7.99106 1.89628C7.52459 1.34318 6.87467 0.966397 6.15363 0.831049L2.79933 0.0372729C2.45715 -0.0233323 2.1055 -0.00990032 1.76922 0.0766198C1.43294 0.16314 1.12025 0.320637 0.853244 0.537981C0.586233 0.755324 0.37142 1.02721 0.223983 1.33443C0.0765467 1.64165 8.45067e-05 1.9767 0 2.31591L0 15.3144L9.5 17L19 15.3144V2.31591C19 1.97695 18.9236 1.64213 18.7761 1.33521C18.6286 1.02829 18.4137 0.756781 18.1466 0.539947Z"
    fill="white"
  />
</svg>
