<svg
  width="23"
  height="23"
  viewBox="0 0 23 23"
  fill="none"
  xmlns="http://www.w3.org/2000/svg"
>
  <path
    fill-rule="evenodd"
    clip-rule="evenodd"
    d="M5.32397 1.86366C5.20833 1.8122 4.95312 1.70224 4.6433 1.72596L4.50756 1.74452C4.10516 1.82607 3.76618 2.09574 3.59545 2.46913C3.43873 2.8122 3.49783 3.14939 3.52514 3.29139C3.5562 3.45292 3.61144 3.64598 3.66455 3.83161C3.66789 3.8433 3.67123 3.85496 3.67455 3.86659L4.29955 6.05409C4.31296 6.10098 4.32617 6.14728 4.33922 6.193C4.65576 7.3021 4.87418 8.06742 5.30932 8.69471C5.69177 9.24605 6.19026 9.70692 6.77026 10.0443C7.42863 10.4273 8.20706 10.5837 9.33357 10.8101C9.38276 10.82 9.43261 10.83 9.48315 10.8402L12.3552 11.4183L9.48315 11.9974C9.43264 12.0076 9.38282 12.0176 9.33366 12.0275C8.2071 12.2539 7.42865 12.4104 6.77026 12.7933C6.19027 13.1307 5.69178 13.5917 5.30932 14.143C4.87419 14.7702 4.65578 15.5355 4.33925 16.6445C4.32619 16.6903 4.31297 16.7366 4.29955 16.7836L3.67455 18.9721C3.67057 18.986 3.66657 19 3.66256 19.014C3.6101 19.1972 3.55581 19.3869 3.52514 19.5463C3.49784 19.6882 3.4387 20.0254 3.59545 20.3685C3.76613 20.742 4.10509 21.0116 4.50756 21.0932C4.87703 21.168 5.19172 21.0338 5.32397 20.975C5.47151 20.9093 5.64341 20.8137 5.80933 20.7214C5.82305 20.7138 5.83672 20.7062 5.85033 20.6986L18.8044 13.5023L18.8256 13.4906C19.1779 13.2948 19.4969 13.1177 19.739 12.9525C19.9801 12.7881 20.2796 12.5495 20.449 12.1762C20.6669 11.6953 20.6669 11.1434 20.449 10.6625C20.2796 10.2888 19.9802 10.0497 19.739 9.88514C19.4969 9.72002 19.1781 9.54291 18.8257 9.34716L18.8044 9.33534L5.85033 2.13905C5.8445 2.13581 5.83865 2.13256 5.83279 2.1293C5.6597 2.03312 5.47848 1.93242 5.32397 1.86366Z"
    fill="#775DFF"
  />
</svg>
