<svg width="19" height="20" viewBox="0 0 19 20" fill="none" xmlns="http://www.w3.org/2000/svg">
<path d="M0.332031 17.6272C0.332031 17.2075 0.672295 16.8672 1.09203 16.8672H17.8502C18.2699 16.8672 18.6102 17.2075 18.6102 17.6272V18.3006C18.6102 18.7203 18.2699 19.0606 17.8502 19.0606H1.09203C0.672294 19.0606 0.332031 18.7203 0.332031 18.3006V17.6272Z" fill="#775DFF"/>
<path d="M2.71654 15.6484C2.29681 15.6484 1.95654 15.3082 1.95654 14.8884L1.95654 8.77211C1.95654 8.35236 2.29681 8.01209 2.71654 8.01209L3.55239 8.01209C3.97213 8.01209 4.31239 8.35236 4.31239 8.77211L4.31239 14.8884C4.31239 15.3082 3.97213 15.6484 3.55239 15.6484L2.71654 15.6484Z" fill="#775DFF"/>
<path d="M6.94091 15.6484C6.52117 15.6484 6.18091 15.3082 6.18091 14.8884L6.18091 8.77211C6.18091 8.35236 6.52117 8.01209 6.94091 8.01209L7.77676 8.01209C8.19649 8.01209 8.53676 8.35236 8.53676 8.77211L8.53676 14.8884C8.53676 15.3082 8.19649 15.6484 7.77676 15.6484L6.94091 15.6484Z" fill="#775DFF"/>
<path d="M11.1653 15.6484C10.7455 15.6484 10.4053 15.3082 10.4053 14.8884L10.4053 8.77211C10.4053 8.35236 10.7455 8.01209 11.1653 8.01209L12.0011 8.01209C12.4209 8.01209 12.7611 8.35236 12.7611 8.77211L12.7611 14.8884C12.7611 15.3082 12.4209 15.6484 12.0011 15.6484L11.1653 15.6484Z" fill="#775DFF"/>
<path d="M15.3894 15.6484C14.9697 15.6484 14.6294 15.3082 14.6294 14.8884L14.6294 8.77211C14.6294 8.35236 14.9697 8.01209 15.3894 8.01209L16.2252 8.01209C16.645 8.01209 16.9852 8.35236 16.9852 8.77211L16.9852 14.8884C16.9852 15.3082 16.645 15.6484 16.2252 15.6484L15.3894 15.6484Z" fill="#775DFF"/>
<path d="M18.8127 5.23845C19.1271 5.38621 19.0218 5.85782 18.6744 5.85782C18.4949 5.85782 18.3493 6.00338 18.3493 6.18294V6.32495C18.3493 6.58294 18.1402 6.79208 17.8822 6.79208H1.11767C0.859692 6.79208 0.650558 6.58294 0.650558 6.32495V6.18288C0.650558 6.00336 0.505029 5.85782 0.325509 5.85782C-0.0217951 5.85782 -0.12707 5.3863 0.18725 5.23858L9.17677 1.01358C9.38153 0.917348 9.61853 0.917347 9.82329 1.01358L18.8127 5.23845Z" fill="#775DFF"/>
</svg>
