<svg width="100" height="108" viewBox="0 0 100 108" fill="none" xmlns="http://www.w3.org/2000/svg">
<path d="M49.8075 107.439C35.9377 107.439 24.694 104.722 24.694 101.37C24.694 98.018 35.9377 95.3008 49.8075 95.3008C63.6772 95.3008 74.9209 98.018 74.9209 101.37C74.9209 104.722 63.6772 107.439 49.8075 107.439Z" fill="black"/>
<path d="M49.8075 107.439C35.9377 107.439 24.694 104.722 24.694 101.37C24.694 98.018 35.9377 95.3008 49.8075 95.3008C63.6772 95.3008 74.9209 98.018 74.9209 101.37C74.9209 104.722 63.6772 107.439 49.8075 107.439Z" fill="black"/>
<path d="M71.7131 2.79688C87.3353 2.79688 99.9999 15.4612 100 31.0834V56.9751C100 72.5974 87.3353 85.262 71.7131 85.262C62.9894 85.262 55.1884 81.3126 49.9996 75.1047C44.8108 81.3125 37.0101 85.262 28.2865 85.262C12.6643 85.262 0 72.5973 0 56.9751V31.0834C7.66128e-05 15.4612 12.6644 2.79694 28.2865 2.79688C37.01 2.79688 44.8108 6.74614 49.9996 12.9538C55.1884 6.74599 62.9895 2.7969 71.7131 2.79688Z" fill="#775DFF"/>
<path d="M50.963 74.2994C55.9235 80.2342 63.3771 84.0063 71.7131 84.0064V85.262C62.9894 85.262 55.1884 81.3126 49.9996 75.1047C44.8108 81.3125 37.0101 85.262 28.2865 85.262V84.0064C36.6223 84.0064 44.0756 80.2341 49.0362 74.2994L49.9996 73.1468L50.963 74.2994ZM98.7443 56.9751V31.0834C98.7443 16.1547 86.6418 4.05255 71.7131 4.05255C63.3772 4.05257 55.9235 7.82443 50.963 13.7591L49.9996 14.9117L49.0362 13.7591C44.0757 7.82455 36.6223 4.05255 28.2865 4.05255C13.4745 4.05261 1.4449 15.9663 1.25772 30.7339L1.25567 31.0834V56.9751C1.25567 71.9039 13.3578 84.0063 28.2865 84.0064V85.262C12.6643 85.262 0 72.5973 0 56.9751V31.0834C7.66128e-05 15.4612 12.6644 2.79694 28.2865 2.79688C37.01 2.79688 44.8108 6.74614 49.9996 12.9538C55.1884 6.74599 62.9895 2.7969 71.7131 2.79688C87.3353 2.79688 99.9999 15.4612 100 31.0834V56.9751C100 72.5974 87.3353 85.262 71.7131 85.262V84.0064C86.6419 84.0064 98.7443 71.9039 98.7443 56.9751Z" fill="black"/>
<path d="M60.0634 23.7266C67.1138 23.7266 72.8294 29.161 72.8294 35.8647C72.8294 42.5684 67.1138 48.0029 60.0634 48.0029C55.862 48.0029 52.1351 46.0728 49.8087 43.0946C47.4824 46.0728 43.7554 48.0029 39.5541 48.0029C32.5036 48.0029 26.7881 42.5684 26.7881 35.8647C26.7881 29.161 32.5036 23.7266 39.5541 23.7266C43.7553 23.7266 47.4823 25.6564 49.8087 28.6344C52.1351 25.6564 55.8621 23.7266 60.0634 23.7266Z" fill="white"/>
<path d="M50.7983 42.3217C52.8879 44.9967 56.2506 46.7472 60.0634 46.7472V48.0029C55.862 48.0029 52.1351 46.0728 49.8087 43.0946C47.4824 46.0728 43.7554 48.0029 39.5541 48.0029V46.7472C43.3669 46.7472 46.7295 44.9967 48.8191 42.3217L49.8087 41.055L50.7983 42.3217ZM71.5737 35.8647C71.5737 30.0065 66.6388 25.1368 60.3634 24.9859L60.0634 24.9822C56.2506 24.9822 52.8879 26.7325 50.7983 29.4073L49.8087 30.674L48.8191 29.4073C46.7948 26.816 43.5757 25.0923 39.9101 24.9871L39.5541 24.9822C33.1367 24.9822 28.0438 29.9134 28.0438 35.8647C28.0438 41.816 33.1367 46.7472 39.5541 46.7472V48.0029C32.5036 48.0029 26.7881 42.5684 26.7881 35.8647C26.7881 29.161 32.5036 23.7266 39.5541 23.7266C43.7553 23.7266 47.4823 25.6564 49.8087 28.6344C52.1351 25.6564 55.8621 23.7266 60.0634 23.7266C67.1138 23.7266 72.8294 29.161 72.8294 35.8647C72.8294 42.5684 67.1138 48.0029 60.0634 48.0029V46.7472C66.3804 46.7472 71.4142 41.969 71.57 36.1431L71.5737 35.8647Z" fill="black"/>
<path d="M60.0634 39.2131C58.0985 39.2131 56.5056 37.6203 56.5056 35.6554C56.5056 33.6905 58.0985 32.0977 60.0634 32.0977C62.0282 32.0977 63.6211 33.6905 63.6211 35.6554C63.6211 37.6203 62.0282 39.2131 60.0634 39.2131Z" fill="black"/>
<path d="M39.5536 39.2131C37.5887 39.2131 35.9959 37.6203 35.9959 35.6554C35.9959 33.6905 37.5887 32.0977 39.5536 32.0977C41.5185 32.0977 43.1113 33.6905 43.1113 35.6554C43.1113 37.6203 41.5185 39.2131 39.5536 39.2131Z" fill="black"/>
<path d="M89.7499 1.8125L89.4842 12.1742H86.8682L86.6025 1.8125H89.7499ZM88.1966 16.7931C87.2361 16.7931 86.4594 16.0165 86.4799 15.0763C86.4594 14.1362 87.2361 13.38 88.1966 13.38C89.0959 13.38 89.8929 14.1362 89.8929 15.0763C89.8929 16.0165 89.0959 16.7931 88.1966 16.7931Z" fill="white"/>
<path d="M89.8926 15.0781C89.8926 14.138 89.0956 13.3818 88.1963 13.3818C87.2358 13.3818 86.4592 14.138 86.4796 15.0781C86.4592 16.0182 87.2358 16.7948 88.1963 16.7948C89.0956 16.7948 89.8926 16.0182 89.8926 15.0781ZM86.6022 1.81427L86.8679 12.176H89.4839L89.7496 1.81427H86.6022ZM91.1483 15.0781C91.1483 16.7117 89.7891 18.0505 88.1963 18.0505C86.5578 18.0505 85.188 16.7207 85.2243 15.0507C85.2222 14.4436 85.404 13.89 85.7144 13.4317H85.6441L85.3139 0.558594H91.0379L90.7077 13.4317H90.6382C90.9578 13.8995 91.1483 14.4643 91.1483 15.0781Z" fill="black"/>
</svg>
