<svg width="20" height="20" viewBox="0 0 20 20" fill="none" xmlns="http://www.w3.org/2000/svg">
<path d="M9.84178 5.21325C9.84178 7.8163 7.73158 9.92649 5.12853 9.92649C2.52548 9.92649 0.415283 7.8163 0.415283 5.21325C0.415283 2.61019 2.52548 0.5 5.12853 0.5C7.73158 0.5 9.84178 2.61019 9.84178 5.21325Z" fill="#775DFF"/>
<path d="M19.6489 7.27483C19.6489 9.38981 17.8684 11.1043 15.6721 11.1043C13.4758 11.1043 11.6953 9.38981 11.6953 7.27483C11.6953 5.15984 13.4758 3.44531 15.6721 3.44531C17.8684 3.44531 19.6489 5.15984 19.6489 7.27483Z" fill="#775DFF"/>
<path d="M3.89641 11.6389C4.47787 10.7506 5.77945 10.7506 6.36091 11.6389L10.0144 17.2206C10.6555 18.2002 9.95273 19.5001 8.78197 19.5001H1.47535C0.304586 19.5001 -0.398214 18.2002 0.242951 17.2206L3.89641 11.6389Z" fill="#775DFF"/>
<path d="M14.4394 12.9749C15.0208 12.0865 16.3227 12.0865 16.9042 12.9749L19.4915 16.9278C20.1327 17.9074 19.4299 19.2073 18.2591 19.2073H13.0845C11.9137 19.2073 11.2109 17.9074 11.8521 16.9278L14.4394 12.9749Z" fill="#775DFF"/>
</svg>
