<svg width="19" height="20" viewBox="0 0 19 20" fill="none" xmlns="http://www.w3.org/2000/svg">
<path d="M8.61359 1.17373C8.89259 0.275427 10.1074 0.275424 10.3864 1.17372L11.9901 6.33709C12.1149 6.73882 12.4727 7.01082 12.8765 7.01082H18.0662C18.9691 7.01082 19.3445 8.21947 18.614 8.77465L14.4155 11.9658C14.0888 12.2141 13.9521 12.6542 14.0769 13.0559L15.6806 18.2193C15.9596 19.1176 14.9768 19.8645 14.2464 19.3094L10.0478 16.1182C9.72117 15.8699 9.27883 15.8699 8.95217 16.1182L4.75364 19.3094C4.0232 19.8645 3.04039 19.1176 3.31939 18.2193L4.92309 13.0559C5.04787 12.6542 4.91118 12.2141 4.58451 11.9658L0.385982 8.77465C-0.344459 8.21947 0.0309353 7.01082 0.93381 7.01082H6.12349C6.52726 7.01082 6.88512 6.73882 7.00989 6.33709L8.61359 1.17373Z" fill="#775DFF"/>
</svg>
