<svg width="21" height="20" viewBox="0 0 21 20" fill="none" xmlns="http://www.w3.org/2000/svg">
<path d="M8.17635 0C8.35344 0 8.49699 0.143556 8.49699 0.320641V0.961924C8.49699 1.13901 8.35344 1.28257 8.17635 1.28257H7.69539V6.93637C9.84983 7.74709 11.3828 9.82664 11.3828 12.2645C11.3828 15.4078 8.83465 17.9559 5.69138 17.9559C2.54812 17.9559 0 15.4078 0 12.2645C0 9.82664 1.53293 7.74709 3.68737 6.93637V1.28257H3.20641C3.02933 1.28257 2.88577 1.13901 2.88577 0.961924V0.320641C2.88577 0.143556 3.02933 9.6832e-10 3.20641 0H8.17635ZM6.41283 13.3868C6.28001 13.3868 6.17234 13.4944 6.17234 13.6273C6.17234 13.7601 6.28001 13.8677 6.41283 13.8677H10.1002C10.233 13.8677 10.3407 13.7601 10.3407 13.6273C10.3407 13.4944 10.233 13.3868 10.1002 13.3868H6.41283ZM6.41283 11.9439C6.28001 11.9439 6.17234 12.0516 6.17234 12.1844C6.17234 12.3172 6.28001 12.4248 6.41283 12.4248H10.1002C10.233 12.4248 10.3407 12.3172 10.3407 12.1844C10.3407 12.0516 10.233 11.9439 10.1002 11.9439H6.41283ZM6.41283 10.501C6.28001 10.501 6.17234 10.6087 6.17234 10.7415C6.17234 10.8743 6.28001 10.982 6.41283 10.982H10.1002C10.233 10.982 10.3407 10.8743 10.3407 10.7415C10.3407 10.6087 10.233 10.501 10.1002 10.501H6.41283Z" fill="#775DFF"/>
<path d="M18.2188 5.44922C18.3958 5.44922 18.5394 5.59277 18.5394 5.76986V6.41114C18.5394 6.58823 18.3958 6.73178 18.2188 6.73178H17.8981V11.7103L20.754 17.9553C21.191 18.911 20.4926 19.9983 19.4418 19.9983H12.8273C11.7765 19.9983 11.0782 18.9109 11.5152 17.9553L14.3711 11.7103V6.73178H14.0504C13.8733 6.73177 13.7298 6.58822 13.7298 6.41114V5.76986C13.7298 5.59278 13.8733 5.44923 14.0504 5.44922H18.2188ZM16.513 18.0344C16.3802 18.0344 16.2725 18.1421 16.2725 18.2749C16.2725 18.4077 16.3802 18.5153 16.513 18.5154H18.7575L18.7821 18.5141C18.9033 18.5018 18.998 18.3994 18.998 18.2749C18.998 18.1504 18.9033 18.048 18.7821 18.0356L18.7575 18.0344H16.513ZM16.513 16.5915C16.3802 16.5915 16.2725 16.6992 16.2725 16.832C16.2725 16.9648 16.3802 17.0725 16.513 17.0725H18.7575L18.7821 17.0712C18.9033 17.0589 18.998 16.9565 18.998 16.832C18.998 16.7075 18.9033 16.6051 18.7821 16.5928L18.7575 16.5915H16.513ZM16.513 15.1486C16.3802 15.1486 16.2725 15.2563 16.2725 15.3891C16.2725 15.5219 16.3802 15.6296 16.513 15.6296H18.7575L18.7821 15.6283C18.9033 15.616 18.998 15.5136 18.998 15.3891C18.998 15.2646 18.9033 15.1622 18.7821 15.1499L18.7575 15.1486H16.513Z" fill="#775DFF"/>
</svg>
