<svg width="20" height="20" viewBox="0 0 20 20" fill="none" xmlns="http://www.w3.org/2000/svg">
<path d="M9.05043 15.4543C8.04977 16.7749 5.27032 18.7378 4.25791 17.9706C3.24549 17.2034 4.38349 13.9967 5.38415 12.6761C6.38482 11.3556 7.71477 11.3055 8.72718 12.0727C9.7396 12.8399 10.0511 14.1338 9.05043 15.4543Z" fill="#775DFF"/>
<path d="M11.0919 11.1015C10.7583 11.5416 10.1311 11.6281 9.69091 11.2945L9.2127 10.9321C8.77252 10.5986 8.68608 9.97135 9.01964 9.53117L13.1265 4.11145L15.1988 5.68174L11.0919 11.1015ZM16.576 2.20852C17.0162 2.54207 17.1026 3.16931 16.7691 3.60949L16.1651 4.40651L14.0929 2.83622L14.6968 2.03921C15.0304 1.59902 15.6576 1.51259 16.0978 1.84614L16.576 2.20852Z" fill="#775DFF"/>
</svg>
