<svg width="15" height="20" viewBox="0 0 15 20" fill="none" xmlns="http://www.w3.org/2000/svg">
<path d="M15 16.65C15 18.224 13.7376 19.5 12.1804 19.5H2.81962C1.26239 19.5 0 18.224 0 16.65V3.35C0 1.77599 1.26239 0.5 2.81962 0.5H12.1804C13.7376 0.5 15 1.77599 15 3.35V16.65ZM5.12663 3.95451C4.39257 3.95451 3.7975 4.556 3.7975 5.29796C3.7975 6.03993 4.39257 6.64142 5.12663 6.64142H9.87337C10.6074 6.64142 11.2025 6.03993 11.2025 5.29796C11.2025 4.556 10.6074 3.95451 9.87337 3.95451H5.12663Z" fill="#775DFF"/>
</svg>
