<svg width="25" height="25" viewBox="0 0 25 25" fill="none" xmlns="http://www.w3.org/2000/svg">
<path d="M14.0806 0.460938C15.9496 0.4611 17.5904 1.70709 18.0913 3.50781L18.3589 4.4707C18.3995 4.61603 18.5332 4.71777 18.6851 4.71777C21.9149 4.71814 24.5376 7.33609 24.5376 10.5674V18.6855C24.5376 21.9163 21.9187 24.535 18.688 24.5352H6.31299C3.08212 24.5352 0.463379 21.9164 0.463379 18.6855V10.5674C0.463379 7.33597 3.08586 4.71795 6.31592 4.71777C6.46765 4.71761 6.6015 4.61596 6.64209 4.4707L6.90967 3.50781C7.41069 1.70702 9.05122 0.460938 10.9204 0.460938H14.0806ZM10.9204 2.03516C9.75849 2.03516 8.7387 2.8103 8.42725 3.92969L8.15967 4.89258C7.92937 5.72027 7.17411 6.29183 6.31592 6.29199C3.95439 6.29217 2.0376 8.20713 2.0376 10.5674V18.6855C2.0376 21.0466 3.95197 22.9609 6.31299 22.9609H18.688C21.0488 22.9607 22.9634 21.0464 22.9634 18.6855V10.5674C22.9634 8.20725 21.0464 6.29236 18.6851 6.29199C17.8267 6.29199 17.0717 5.72033 16.8413 4.89258L16.5737 3.92969C16.2623 2.81036 15.2424 2.03532 14.0806 2.03516H10.9204ZM12.5005 8.89844C15.4205 8.89863 17.7876 11.2655 17.7876 14.1855C17.7876 17.1056 15.4205 19.4725 12.5005 19.4727C9.58028 19.4727 7.21338 17.1058 7.21338 14.1855C7.21338 11.2653 9.58028 8.89844 12.5005 8.89844ZM12.5005 10.4727C10.4501 10.4727 8.7876 12.1352 8.7876 14.1855C8.7876 16.2359 10.4501 17.8984 12.5005 17.8984C14.5507 17.8982 16.2134 16.2358 16.2134 14.1855C16.2134 12.1353 14.5507 10.4729 12.5005 10.4727Z" fill="#6B6B75"/>
</svg>
