<svg width="100" height="102" viewBox="0 0 100 102" fill="none" xmlns="http://www.w3.org/2000/svg">
<path d="M47.7913 101.201C34.4832 101.201 23.6949 98.5941 23.6949 95.378C23.6949 92.1619 34.4832 89.5547 47.7913 89.5547C61.0994 89.5547 71.8877 92.1619 71.8877 95.378C71.8877 98.5941 61.0994 101.201 47.7913 101.201Z" fill="black"/>
<path d="M68.8088 0.800781C83.7984 0.800781 95.9501 12.9522 95.9502 27.9418V52.7849C95.9502 67.7745 83.7984 79.9263 68.8088 79.9263C60.4385 79.9262 52.9534 76.1368 47.9747 70.1803C42.996 76.1366 35.5112 79.9263 27.141 79.9263C12.1514 79.9262 0 67.7745 0 52.7849V27.9418C7.35102e-05 12.9523 12.1515 0.800846 27.141 0.800781C35.5112 0.800781 42.996 4.59011 47.9747 10.5464C52.9534 4.58996 60.4386 0.800807 68.8088 0.800781Z" fill="#775DFF"/>
<path d="M48.8991 69.4076C53.6587 75.102 60.8105 78.7214 68.8088 78.7215V79.9263C60.4385 79.9262 52.9534 76.1368 47.9747 70.1803C42.996 76.1366 35.5112 79.9263 27.141 79.9263V78.7215C35.1392 78.7215 42.2907 75.1019 47.0503 69.4076L47.9747 68.3016L48.8991 69.4076ZM94.7454 52.7849V27.9418C94.7453 13.6176 83.133 2.0056 68.8088 2.0056C60.8105 2.00563 53.6587 5.62473 48.8991 11.319L47.9747 12.425L47.0503 11.319C42.2907 5.62485 35.1391 2.0056 27.141 2.0056C12.9288 2.00566 1.38639 13.4369 1.20678 27.6064L1.20482 27.9418V52.7849C1.20482 67.1091 12.8168 78.7214 27.141 78.7215V79.9263C12.1514 79.9262 0 67.7745 0 52.7849V27.9418C7.35102e-05 12.9523 12.1515 0.800846 27.141 0.800781C35.5112 0.800781 42.996 4.59011 47.9747 10.5464C52.9534 4.58996 60.4386 0.800807 68.8088 0.800781C83.7984 0.800781 95.9501 12.9522 95.9502 27.9418V52.7849C95.9502 67.7745 83.7984 79.9263 68.8088 79.9263V78.7215C83.133 78.7215 94.7454 67.1091 94.7454 52.7849Z" fill="black"/>
<path d="M57.6303 20.8828C64.3953 20.8828 69.8793 26.0972 69.8793 32.5294C69.8793 38.9616 64.3953 44.176 57.6303 44.176C53.5991 44.176 50.0231 42.3241 47.791 39.4665C45.5588 42.3241 41.9829 44.176 37.9516 44.176C31.1867 44.176 25.7026 38.9616 25.7026 32.5294C25.7026 26.0972 31.1867 20.8828 37.9516 20.8828C41.9827 20.8828 45.5588 22.7345 47.791 25.5919C50.0232 22.7345 53.5992 20.8828 57.6303 20.8828Z" fill="white"/>
<path d="M48.7405 38.7249C50.7455 41.2916 53.9719 42.9712 57.6303 42.9712V44.176C53.5991 44.176 50.0231 42.3241 47.791 39.4665C45.5588 42.3241 41.9829 44.176 37.9516 44.176V42.9712C41.61 42.9712 44.8365 41.2916 46.8415 38.7249L47.791 37.5095L48.7405 38.7249ZM68.6745 32.5294C68.6745 26.9084 63.9395 22.2359 57.9182 22.0912L57.6303 22.0876C53.972 22.0876 50.7455 23.767 48.7405 26.3335L47.791 27.5489L46.8415 26.3335C44.8992 23.8472 41.8104 22.1932 38.2932 22.0923L37.9516 22.0876C31.7941 22.0876 26.9075 26.8191 26.9075 32.5294C26.9075 38.2397 31.7941 42.9712 37.9516 42.9712V44.176C31.1867 44.176 25.7026 38.9616 25.7026 32.5294C25.7026 26.0972 31.1867 20.8828 37.9516 20.8828C41.9827 20.8828 45.5588 22.7345 47.791 25.5919C50.0232 22.7345 53.5992 20.8828 57.6303 20.8828C64.3953 20.8828 69.8793 26.0972 69.8793 32.5294C69.8793 38.9616 64.3953 44.176 57.6303 44.176V42.9712C63.6916 42.9712 68.5215 38.3865 68.671 32.7965L68.6745 32.5294Z" fill="black"/>
<path d="M60.04 42.1661C56.8239 42.1661 54.2167 39.5589 54.2167 36.3428C54.2167 33.1267 56.8239 30.5195 60.04 30.5195C63.2561 30.5195 65.8633 33.1267 65.8633 36.3428C65.8633 39.5589 63.2561 42.1661 60.04 42.1661Z" fill="black"/>
<path d="M40.3613 42.1661C37.1452 42.1661 34.538 39.5589 34.538 36.3428C34.538 33.1267 37.1452 30.5195 40.3613 30.5195C43.5774 30.5195 46.1846 33.1267 46.1846 36.3428C46.1846 39.5589 43.5774 42.1661 40.3613 42.1661Z" fill="black"/>
<path d="M99.9998 65.662C99.9998 75.0886 92.3581 82.7303 82.9316 82.7303C73.505 82.7303 65.8633 75.0886 65.8633 65.662C65.8633 56.2355 73.505 48.5938 82.9316 48.5938C92.3581 48.5938 99.9998 56.2355 99.9998 65.662Z" fill="black"/>
<path d="M98.5942 65.662C98.5942 57.0118 91.5818 49.9994 82.9316 49.9994C74.2813 49.9994 67.2689 57.0118 67.2689 65.662C67.2689 74.3123 74.2813 81.3247 82.9316 81.3247V82.7303C73.505 82.7303 65.8633 75.0886 65.8633 65.662C65.8633 56.2355 73.505 48.5938 82.9316 48.5938C92.3581 48.5938 99.9998 56.2355 99.9998 65.662C99.9998 75.0886 92.3581 82.7303 82.9316 82.7303V81.3247C91.5818 81.3247 98.5942 74.3123 98.5942 65.662Z" fill="black"/>
<path d="M96.787 65.6601C96.787 73.3122 90.5837 79.5155 82.9316 79.5155C75.2795 79.5155 69.0762 73.3122 69.0762 65.6601C69.0762 58.008 75.2795 51.8047 82.9316 51.8047C90.5837 51.8047 96.787 58.008 96.787 65.6601Z" fill="white"/>
<path d="M95.3814 65.6601C95.3814 58.7843 89.8074 53.2103 82.9316 53.2103C76.0558 53.2103 70.4818 58.7843 70.4818 65.6601C70.4818 72.5359 76.0558 78.1099 82.9316 78.1099V79.5155C75.2795 79.5155 69.0762 73.3122 69.0762 65.6601C69.0762 58.008 75.2795 51.8047 82.9316 51.8047C90.5837 51.8047 96.787 58.008 96.787 65.6601C96.787 73.3122 90.5837 79.5155 82.9316 79.5155V78.1099C89.8074 78.1099 95.3814 72.5359 95.3814 65.6601Z" fill="black"/>
<path d="M76.1212 71.1349L76.0236 71.1671C75.5328 71.3015 75.01 71.045 74.8227 70.5601C74.6354 70.0751 74.8501 69.5337 75.304 69.3034L75.3979 69.2618L82.4124 66.5522L82.1289 55.8471C82.1142 55.2928 82.5518 54.8316 83.1061 54.8169C83.6603 54.8023 84.1214 55.2394 84.1362 55.7936L84.4571 67.915L76.1212 71.1349Z" fill="black"/>
<path d="M90.3616 44.1742C90.3616 48.1666 87.1251 51.4031 83.1327 51.4031C79.1403 51.4031 75.9038 48.1666 75.9038 44.1742C75.9038 40.1818 79.1403 36.9453 83.1327 36.9453C87.1251 36.9453 90.3616 40.1818 90.3616 44.1742Z" fill="white"/>
<path d="M89.1568 44.1742C89.1568 40.8472 86.4597 38.1501 83.1327 38.1501C79.8057 38.1501 77.1086 40.8472 77.1086 44.1742C77.1086 47.5012 79.8057 50.1983 83.1327 50.1983V51.4031C79.1403 51.4031 75.9038 48.1666 75.9038 44.1742C75.9038 40.1818 79.1403 36.9453 83.1327 36.9453C87.1251 36.9453 90.3616 40.1818 90.3616 44.1742C90.3616 48.1666 87.1251 51.4031 83.1327 51.4031V50.1983C86.4597 50.1983 89.1568 47.5012 89.1568 44.1742Z" fill="black"/>
</svg>
