<svg width="20" height="27" viewBox="0 0 20 27" fill="none" xmlns="http://www.w3.org/2000/svg">
<path d="M10.3735 2.37085C10.7196 0.641563 12.7974 0.143744 13.4977 1.76232C13.8564 2.59118 14.1843 3.51956 14.4199 4.52002C14.9119 6.60957 13.934 9.42318 15.0049 11.146C17.2017 14.6795 19.9736 8.17879 19.9736 10.1714C19.9736 14.9765 20.9478 26.6663 11.1074 26.6665C1.26682 26.9299 0 16.2432 0 11.438C6.13756e-05 9.89993 4.18285 18.2767 4.2852 4.77272C4.28767 4.44704 4.40857 3.91882 4.68134 4.09677C5.70298 4.76324 7.36882 11.9804 9 7.49853C9.59157 5.87309 10.0431 4.02167 10.3735 2.37085ZM11.6465 11.4624C11.3733 10.2756 10.0685 10.3103 9.64772 11.4531C9.31306 12.3619 8.95591 13.3401 8.67578 14.1274C7.96992 16.1111 7.29636 13.8092 6.81656 13.1155C6.63487 12.8528 6.46021 13.22 6.45541 13.5393C6.36 19.8965 4.3846 15.3972 4.38379 16.1509C4.38379 18.5414 5.45349 23.6109 10.2393 23.48C15.0249 23.48 15.3427 18.15 15.3428 15.7593C15.3428 14.768 13.2032 17.517 12.1348 15.7593C11.614 14.9023 11.8856 12.5021 11.6465 11.4624ZM9.63259 15.3296C9.84671 14.7696 10.4924 14.7513 10.6318 15.3345C10.7513 15.8352 10.6156 16.9903 10.876 17.4028C11.4101 18.2492 12.4792 16.9261 12.4795 17.4028C12.4795 18.5538 12.3207 21.1206 9.92773 21.1206C7.53515 21.1836 7.0001 18.7434 7 17.5923C7 17.2395 7.92767 19.2644 8.02829 16.6026C8.04075 16.2729 8.19511 16.0652 8.34845 16.3573C8.57294 16.785 8.85438 17.4081 9.14648 16.6177C9.28658 16.2385 9.46522 15.7674 9.63259 15.3296Z" fill="#FFB05C"/>
</svg>
