<svg width="100" height="102" viewBox="0 0 100 102" fill="none" xmlns="http://www.w3.org/2000/svg">
<path d="M47.7913 101.272C34.4832 101.272 23.6949 98.6644 23.6949 95.4483C23.6949 92.2322 34.4832 89.625 47.7913 89.625C61.0994 89.625 71.8877 92.2322 71.8877 95.4483C71.8877 98.6644 61.0994 101.272 47.7913 101.272Z" fill="black"/>
<path d="M68.8088 3.68359C83.7984 3.68359 95.9501 15.835 95.9502 30.8246V55.6677C95.9502 70.6573 83.7984 82.8091 68.8088 82.8091C60.4385 82.8091 52.9534 79.0196 47.9747 73.0631C42.996 79.0195 35.5112 82.8091 27.141 82.8091C12.1514 82.809 0 70.6573 0 55.6677V30.8246C7.35102e-05 15.8351 12.1515 3.68366 27.141 3.68359C35.5112 3.68359 42.996 7.47293 47.9747 13.4292C52.9534 7.47278 60.4386 3.68362 68.8088 3.68359Z" fill="#775DFF"/>
<path d="M48.8991 72.2904C53.6587 77.9849 60.8105 81.6042 68.8088 81.6043V82.8091C60.4385 82.8091 52.9534 79.0196 47.9747 73.0631C42.996 79.0195 35.5112 82.8091 27.141 82.8091V81.6043C35.1392 81.6043 42.2907 77.9847 47.0503 72.2904L47.9747 71.1845L48.8991 72.2904ZM94.7454 55.6677V30.8246C94.7453 16.5004 83.133 4.88841 68.8088 4.88841C60.8105 4.88844 53.6587 8.50754 48.8991 14.2018L47.9747 15.3078L47.0503 14.2018C42.2907 8.50766 35.1391 4.88841 27.141 4.88841C12.9288 4.88848 1.38639 16.3197 1.20678 30.4893L1.20482 30.8246V55.6677C1.20482 69.9919 12.8168 81.6042 27.141 81.6043V82.8091C12.1514 82.809 0 70.6573 0 55.6677V30.8246C7.35102e-05 15.8351 12.1515 3.68366 27.141 3.68359C35.5112 3.68359 42.996 7.47293 47.9747 13.4292C52.9534 7.47278 60.4386 3.68362 68.8088 3.68359C83.7984 3.68359 95.9501 15.835 95.9502 30.8246V55.6677C95.9502 70.6573 83.7984 82.8091 68.8088 82.8091V81.6043C83.133 81.6043 94.7454 69.9919 94.7454 55.6677Z" fill="black"/>
<path d="M16.2351 1.93359L15.9802 11.8757H13.4701L13.2152 1.93359H16.2351ZM14.7448 16.3075C13.8231 16.3075 13.0779 15.5623 13.0975 14.6603C13.0779 13.7582 13.8231 13.0327 14.7448 13.0327C15.6076 13.0327 16.3724 13.7582 16.3724 14.6603C16.3724 15.5623 15.6076 16.3075 14.7448 16.3075Z" fill="white"/>
<path d="M16.3725 14.662C16.3725 13.7599 15.6077 13.0344 14.7449 13.0344C13.8232 13.0344 13.0781 13.7599 13.0977 14.662C13.0781 15.564 13.8232 16.3092 14.7449 16.3092C15.6077 16.3092 16.3725 15.564 16.3725 14.662ZM13.2153 1.93529L13.4703 11.8774H15.9803L16.2352 1.93529H13.2153ZM17.5773 14.662C17.5773 16.2294 16.2731 17.514 14.7449 17.514C13.1727 17.514 11.8584 16.2381 11.8933 14.6357C11.8912 14.0531 12.0657 13.522 12.3635 13.0822H12.296L11.9791 0.730469H17.4714L17.1545 13.0822H17.0879C17.3945 13.5311 17.5773 14.073 17.5773 14.662Z" fill="black"/>
<path d="M57.6303 23.7617C64.3953 23.7617 69.8793 28.9761 69.8793 35.4083C69.8793 41.8405 64.3953 47.0549 57.6303 47.0549C53.5991 47.0549 50.0231 45.203 47.791 42.3454C45.5588 45.203 41.9829 47.0549 37.9516 47.0549C31.1867 47.0549 25.7026 41.8405 25.7026 35.4083C25.7026 28.9761 31.1867 23.7617 37.9516 23.7617C41.9827 23.7617 45.5588 25.6134 47.791 28.4708C50.0232 25.6134 53.5992 23.7617 57.6303 23.7617Z" fill="white"/>
<path d="M48.7405 41.6038C50.7455 44.1705 53.9719 45.8501 57.6303 45.8501V47.0549C53.5991 47.0549 50.0231 45.203 47.791 42.3454C45.5588 45.203 41.9829 47.0549 37.9516 47.0549V45.8501C41.61 45.8501 44.8365 44.1705 46.8415 41.6038L47.791 40.3884L48.7405 41.6038ZM68.6745 35.4083C68.6745 29.7873 63.9395 25.1148 57.9182 24.9701L57.6303 24.9665C53.972 24.9665 50.7455 26.6459 48.7405 29.2124L47.791 30.4278L46.8415 29.2124C44.8992 26.7261 41.8104 25.0722 38.2932 24.9712L37.9516 24.9665C31.7941 24.9665 26.9075 29.698 26.9075 35.4083C26.9075 41.1186 31.7941 45.8501 37.9516 45.8501V47.0549C31.1867 47.0549 25.7026 41.8405 25.7026 35.4083C25.7026 28.9761 31.1867 23.7617 37.9516 23.7617C41.9827 23.7617 45.5588 25.6134 47.791 28.4708C50.0232 25.6134 53.5992 23.7617 57.6303 23.7617C64.3953 23.7617 69.8793 28.9761 69.8793 35.4083C69.8793 41.8405 64.3953 47.0549 57.6303 47.0549V45.8501C63.6916 45.8501 68.5215 41.2654 68.671 35.6754L68.6745 35.4083Z" fill="black"/>
<path d="M99.9998 68.5409C99.9998 77.9675 92.3581 85.6092 82.9316 85.6092C73.505 85.6092 65.8633 77.9675 65.8633 68.5409C65.8633 59.1144 73.505 51.4727 82.9316 51.4727C92.3581 51.4727 99.9998 59.1144 99.9998 68.5409Z" fill="black"/>
<path d="M98.5942 68.5409C98.5942 59.8907 91.5818 52.8783 82.9316 52.8783C74.2813 52.8783 67.2689 59.8907 67.2689 68.5409C67.2689 77.1912 74.2813 84.2036 82.9316 84.2036V85.6092C73.505 85.6092 65.8633 77.9675 65.8633 68.5409C65.8633 59.1144 73.505 51.4727 82.9316 51.4727C92.3581 51.4727 99.9998 59.1144 99.9998 68.5409C99.9998 77.9675 92.3581 85.6092 82.9316 85.6092V84.2036C91.5818 84.2036 98.5942 77.1912 98.5942 68.5409Z" fill="black"/>
<path d="M96.787 68.5429C96.787 76.1951 90.5837 82.3983 82.9316 82.3983C75.2795 82.3983 69.0762 76.1951 69.0762 68.5429C69.0762 60.8908 75.2795 54.6875 82.9316 54.6875C90.5837 54.6875 96.787 60.8908 96.787 68.5429Z" fill="white"/>
<path d="M95.3814 68.5429C95.3814 61.6671 89.8074 56.0931 82.9316 56.0931C76.0558 56.0931 70.4818 61.6671 70.4818 68.5429C70.4818 75.4188 76.0558 80.9927 82.9316 80.9927V82.3983C75.2795 82.3983 69.0762 76.1951 69.0762 68.5429C69.0762 60.8908 75.2795 54.6875 82.9316 54.6875C90.5837 54.6875 96.787 60.8908 96.787 68.5429C96.787 76.1951 90.5837 82.3983 82.9316 82.3983V80.9927C89.8074 80.9927 95.3814 75.4188 95.3814 68.5429Z" fill="black"/>
<path d="M76.1212 74.0177L76.0236 74.0499C75.5328 74.1843 75.01 73.9278 74.8227 73.4429C74.6354 72.958 74.8501 72.4165 75.304 72.1862L75.3979 72.1446L82.4124 69.435L82.1289 58.7299C82.1142 58.1756 82.5518 57.7144 83.1061 57.6997C83.6603 57.6851 84.1214 58.1222 84.1362 58.6764L84.4571 70.7978L76.1212 74.0177Z" fill="black"/>
<path d="M90.3616 47.057C90.3616 51.0495 87.1251 54.286 83.1327 54.286C79.1403 54.286 75.9038 51.0495 75.9038 47.057C75.9038 43.0646 79.1403 39.8281 83.1327 39.8281C87.1251 39.8281 90.3616 43.0646 90.3616 47.057Z" fill="white"/>
<path d="M89.1568 47.057C89.1568 43.73 86.4597 41.0329 83.1327 41.0329C79.8057 41.0329 77.1086 43.73 77.1086 47.057C77.1086 50.3841 79.8057 53.0811 83.1327 53.0811V54.286C79.1403 54.286 75.9038 51.0495 75.9038 47.057C75.9038 43.0646 79.1403 39.8281 83.1327 39.8281C87.1251 39.8281 90.3616 43.0646 90.3616 47.057C90.3616 51.0495 87.1251 54.286 83.1327 54.286V53.0811C86.4597 53.0811 89.1568 50.3841 89.1568 47.057Z" fill="black"/>
<path d="M57.6303 38.6242C55.745 38.6242 54.2166 37.0958 54.2166 35.2105C54.2166 33.3252 55.745 31.7969 57.6303 31.7969C59.5156 31.7969 61.0439 33.3252 61.0439 35.2105C61.0439 37.0958 59.5156 38.6242 57.6303 38.6242Z" fill="black"/>
<path d="M37.9516 38.6242C36.0663 38.6242 34.5379 37.0958 34.5379 35.2105C34.5379 33.3252 36.0663 31.7969 37.9516 31.7969C39.8369 31.7969 41.3652 33.3252 41.3652 35.2105C41.3652 37.0958 39.8369 38.6242 37.9516 38.6242Z" fill="black"/>
</svg>
