<svg width="100" height="105" viewBox="0 0 100 105" fill="none" xmlns="http://www.w3.org/2000/svg">
<path d="M49.8084 104.638C35.9387 104.638 24.695 101.921 24.695 98.5691C24.695 95.2172 35.9387 92.5 49.8084 92.5C63.6782 92.5 74.9219 95.2172 74.9219 98.5691C74.9219 101.921 63.6782 104.638 49.8084 104.638Z" fill="black"/>
<path d="M71.7131 0C87.3353 0 99.9999 12.6643 100 28.2865V54.1782C100 69.8005 87.3353 82.4652 71.7131 82.4652C62.9894 82.4651 55.1884 78.5157 49.9996 72.3078C44.8108 78.5156 37.0101 82.4652 28.2865 82.4652C12.6643 82.4651 0 69.8005 0 54.1782V28.2865C7.66128e-05 12.6644 12.6644 6.73067e-05 28.2865 0C37.01 0 44.8108 3.94927 49.9996 10.157C55.1884 3.94911 62.9895 2.69838e-05 71.7131 0Z" fill="#775DFF"/>
<path d="M60.0629 20.9297C67.1133 20.9297 72.8289 26.3641 72.8289 33.0678C72.8289 39.7716 67.1133 45.206 60.0629 45.206C55.8615 45.206 52.1346 43.2759 49.8082 40.2978C47.4819 43.2759 43.755 45.206 39.5536 45.206C32.5031 45.206 26.7876 39.7716 26.7876 33.0678C26.7876 26.3641 32.5031 20.9297 39.5536 20.9297C43.7548 20.9297 47.4819 22.8595 49.8082 25.8375C52.1346 22.8595 55.8616 20.9297 60.0629 20.9297Z" fill="white"/>
<path d="M50.7978 39.5248C52.8874 42.1999 56.2501 43.9503 60.0629 43.9503V45.206C55.8615 45.206 52.1346 43.2759 49.8082 40.2978C47.4819 43.2759 43.755 45.206 39.5536 45.206V43.9503C43.3664 43.9503 46.729 42.1999 48.8187 39.5248L49.8082 38.2581L50.7978 39.5248ZM71.5732 33.0678C71.5732 27.2096 66.6383 22.3399 60.3629 22.189L60.0629 22.1854C56.2501 22.1854 52.8874 23.9356 50.7978 26.6105L49.8082 27.8772L48.8187 26.6105C46.7943 24.0192 43.5752 22.2954 39.9096 22.1903L39.5536 22.1854C33.1362 22.1854 28.0433 27.1165 28.0433 33.0678C28.0433 39.0192 33.1362 43.9503 39.5536 43.9503V45.206C32.5031 45.206 26.7876 39.7716 26.7876 33.0678C26.7876 26.3641 32.5031 20.9297 39.5536 20.9297C43.7548 20.9297 47.4819 22.8595 49.8082 25.8375C52.1346 22.8595 55.8616 20.9297 60.0629 20.9297C67.1133 20.9297 72.8289 26.3641 72.8289 33.0678C72.8289 39.7716 67.1133 45.206 60.0629 45.206V43.9503C66.38 43.9503 71.4137 39.1721 71.5695 33.3462L71.5732 33.0678Z" fill="black"/>
<path d="M60.0628 42.6928C56.7109 42.6928 53.9937 39.9756 53.9937 36.6238C53.9937 33.2719 56.7109 30.5547 60.0628 30.5547C63.4146 30.5547 66.1318 33.2719 66.1318 36.6238C66.1318 39.9756 63.4146 42.6928 60.0628 42.6928Z" fill="black"/>
<path d="M39.5535 42.6928C36.2016 42.6928 33.4844 39.9756 33.4844 36.6238C33.4844 33.2719 36.2016 30.5547 39.5535 30.5547C42.9053 30.5547 45.6226 33.2719 45.6226 36.6238C45.6226 39.9756 42.9053 42.6928 39.5535 42.6928Z" fill="black"/>
<path d="M49.2814 60.0562C53.7325 57.7399 63.4046 55.1403 72.6719 60.4907C73.4226 60.9241 73.68 61.8843 73.2466 62.635C72.8268 63.3621 71.9126 63.6262 71.1735 63.2481L71.1023 63.2093L70.7014 62.9836C62.2761 58.3662 53.443 61.1889 50.0919 63.1966C50.0736 63.2075 50.055 63.2179 50.0363 63.2281C50.0287 63.2322 50.0211 63.2363 50.0134 63.2403C49.9968 63.249 49.98 63.2572 49.9632 63.2653C49.9565 63.2685 49.9499 63.272 49.9431 63.2751C49.9322 63.2801 49.9211 63.285 49.91 63.2898C49.7397 63.364 49.5617 63.4055 49.3836 63.4165C49.3763 63.417 49.3691 63.4174 49.3619 63.4177C49.3507 63.4183 49.3396 63.4187 49.3284 63.419C49.3139 63.4194 49.2995 63.4198 49.2851 63.4198C49.2761 63.4198 49.2671 63.4195 49.2581 63.4194C49.2402 63.4191 49.2224 63.4186 49.2045 63.4177C49.1995 63.4175 49.1945 63.4168 49.1894 63.4165C49.1721 63.4155 49.1548 63.4145 49.1375 63.4128C49.1263 63.4118 49.1151 63.4105 49.104 63.4091C49.0159 63.3989 48.9282 63.3812 48.8416 63.3556C48.8316 63.3527 48.8217 63.3493 48.8117 63.3462C48.7964 63.3413 48.7811 63.3364 48.7659 63.3311C48.7592 63.3287 48.7526 63.3262 48.7459 63.3237C48.7287 63.3174 48.7115 63.3111 48.6944 63.3041C48.6871 63.3011 48.68 63.2978 48.6727 63.2947C48.6581 63.2885 48.6435 63.2822 48.629 63.2755C48.6171 63.27 48.6052 63.2645 48.5935 63.2587C48.5862 63.2552 48.5786 63.2518 48.5714 63.2481L48.5648 63.2444C48.5456 63.2345 48.5265 63.2241 48.5076 63.2134L48.5003 63.2093L48.0993 62.9836C39.6741 58.3662 30.8409 61.1889 27.4898 63.1966C26.7462 63.642 25.7821 63.4002 25.3366 62.6566C24.8913 61.9132 25.1328 60.9493 25.8761 60.5038C29.7602 58.1766 39.6526 54.9681 49.2814 60.0562Z" fill="black"/>
<path d="M85.8044 62.784C85.8044 66.945 82.4313 70.3181 78.2704 70.3181C74.1094 70.3181 70.7363 66.945 70.7363 62.784C70.7363 58.6231 74.1094 55.25 78.2704 55.25C82.4313 55.25 85.8044 58.6231 85.8044 62.784Z" fill="white"/>
<path d="M84.5487 62.784C84.5487 59.3166 81.7378 56.5057 78.2704 56.5057C74.8029 56.5057 71.992 59.3166 71.992 62.784C71.992 66.2515 74.8029 69.0624 78.2704 69.0624V70.3181C74.1094 70.3181 70.7363 66.945 70.7363 62.784C70.7363 58.6231 74.1094 55.25 78.2704 55.25C82.4313 55.25 85.8044 58.6231 85.8044 62.784C85.8044 66.945 82.4313 70.3181 78.2704 70.3181V69.0624C81.7378 69.0624 84.5487 66.2515 84.5487 62.784Z" fill="black"/>
<path d="M27.6247 63.62C27.6247 67.7809 24.2516 71.154 20.0907 71.154C15.9297 71.154 12.5566 67.7809 12.5566 63.62C12.5566 59.459 15.9297 56.0859 20.0907 56.0859C24.2516 56.0859 27.6247 59.459 27.6247 63.62Z" fill="white"/>
<path d="M26.369 63.62C26.369 60.1525 23.5581 57.3416 20.0907 57.3416C16.6232 57.3416 13.8123 60.1525 13.8123 63.62C13.8123 67.0874 16.6232 69.8983 20.0907 69.8983V71.154C15.9297 71.154 12.5566 67.7809 12.5566 63.62C12.5566 59.459 15.9297 56.0859 20.0907 56.0859C24.2516 56.0859 27.6247 59.459 27.6247 63.62C27.6247 67.7809 24.2516 71.154 20.0907 71.154V69.8983C23.5581 69.8983 26.369 67.0874 26.369 63.62Z" fill="black"/>
</svg>
