<svg width="46" height="51" viewBox="0 0 46 51" fill="none" xmlns="http://www.w3.org/2000/svg">
<path d="M35.5413 36.7794C36.0961 36.0793 37.1137 35.961 37.8142 36.5151L40.307 38.4873C41.0074 39.0415 41.1255 40.0583 40.5707 40.7584C40.0159 41.4585 38.9983 41.5768 38.2978 41.0227L35.8051 39.0505C35.1046 38.4963 34.9865 37.4795 35.5413 36.7794Z" fill="#FFB05C"/>
<path d="M10.1375 9.18422C9.83854 8.30151 10.3123 7.3434 11.1958 7.04421L20.7932 3.79383C21.6766 3.49465 22.6351 3.96768 22.934 4.85039L23.4753 6.44868C23.7743 7.33139 23.3005 8.28951 22.4171 8.5887L12.8196 11.8391C11.9362 12.1383 10.9777 11.6652 10.6788 10.7825L10.1375 9.18422Z" fill="#FFB05C"/>
<path d="M19.6472 42.162C18.7812 41.9431 17.9011 42.4675 17.6815 43.3332L16.9001 46.4143C16.6806 47.28 17.2046 48.1593 18.0707 48.3782C18.9368 48.5972 19.8168 48.0728 20.0364 47.207L20.8178 44.126C21.0374 43.2602 20.5133 42.3809 19.6472 42.162Z" fill="#FFB05C"/>
<path d="M18.2685 12.1252C27.1034 9.13312 36.6889 13.8633 39.6784 22.6904C42.6679 31.5175 37.9292 41.0989 29.0944 44.091C20.2595 47.0831 10.6739 42.3529 7.68443 33.5258C4.69494 24.6987 9.43358 15.1174 18.2685 12.1252ZM16.7552 32.3057C16.054 32.9207 15.9845 33.9871 16.5995 34.6874C17.2145 35.3876 18.2814 35.457 18.9826 34.8421L16.7552 32.3057ZM19.7232 16.5327C18.8466 16.8513 18.394 17.8198 18.7122 18.6957L18.7128 18.6962C18.7128 18.6964 18.7129 18.6967 18.7131 18.6971C18.7135 18.6982 18.7137 18.7001 18.7145 18.7022C18.716 18.7065 18.7189 18.7129 18.7219 18.7212C18.7281 18.7381 18.7371 18.7633 18.749 18.7959C18.7728 18.8614 18.8076 18.9574 18.8521 19.0798C18.9411 19.3248 19.0686 19.6758 19.2222 20.0986C19.5294 20.9443 19.941 22.0784 20.3589 23.2309C20.9517 24.8652 21.5489 26.5139 21.8834 27.4442C21.8219 27.5137 21.7524 27.5909 21.6746 27.675C21.173 28.2162 20.4655 28.9076 19.7255 29.6048C18.9913 30.2965 18.2482 30.9723 17.687 31.4765C17.4069 31.7282 17.1731 31.9365 17.0097 32.0814C16.9281 32.1537 16.8638 32.2102 16.8204 32.2485C16.7989 32.2675 16.7822 32.2819 16.7713 32.2916C16.7658 32.2964 16.7617 32.3003 16.759 32.3027C16.7578 32.3038 16.7566 32.3046 16.756 32.3051L16.7556 32.3059L16.7552 32.3057L18.9829 34.842L18.9828 34.8417C18.983 34.8415 18.9838 34.8412 18.9842 34.8409C18.985 34.8401 18.9862 34.8389 18.9876 34.8376C18.9908 34.8349 18.9953 34.8306 19.0013 34.8254C19.0133 34.8148 19.0312 34.7994 19.0539 34.7793C19.0995 34.7392 19.1657 34.6804 19.2498 34.6058C19.4181 34.4567 19.6578 34.2433 19.9446 33.9857C20.5171 33.4713 21.2816 32.7763 22.042 32.0599C22.7965 31.349 23.571 30.5948 24.1523 29.9675C24.4375 29.6598 24.7133 29.3427 24.9207 29.0556C25.0204 28.9176 25.1468 28.7296 25.246 28.5157C25.2958 28.4081 25.3626 28.2439 25.4031 28.0418C25.4389 27.8633 25.4769 27.5443 25.3695 27.1742L25.346 27.0997C25.2368 26.7771 24.3645 24.3674 23.5346 22.0792C23.1163 20.9261 22.7044 19.7917 22.3971 18.9457C22.2435 18.5228 22.116 18.1718 22.0269 17.9266C21.9823 17.804 21.9474 17.7077 21.9236 17.6422L21.8896 17.5482C21.8889 17.5462 21.888 17.5444 21.8876 17.5433L21.8871 17.5418L21.8555 17.4606C21.5083 16.6383 20.5724 16.2241 19.7232 16.5327Z" fill="#FFB05C"/>
</svg>
