<svg width="39" height="32" viewBox="0 0 39 32" fill="none" xmlns="http://www.w3.org/2000/svg">
<path d="M14.8498 6.41289C17.485 5.29811 20.3901 5.59211 22.8406 6.95665C23.4466 6.2344 24.2151 5.64881 25.1243 5.26414C28.4563 3.85451 32.4107 5.67444 33.9571 9.32943C35.5034 12.9845 34.0561 17.0908 30.7241 18.5004C29.8883 18.854 29.0131 19.0035 28.1468 18.9726C27.4824 21.8254 25.6322 24.2576 22.8901 25.4178C20.19 26.5601 17.2052 26.2256 14.7179 24.7737C14.1738 25.3232 13.5246 25.7748 12.7797 26.0899C9.44773 27.4996 5.49287 25.6788 3.94654 22.0237C2.40031 18.3687 3.84797 14.2633 7.1799 12.8537C8.00221 12.5058 8.86233 12.3546 9.71492 12.3792C10.4676 9.73471 12.2623 7.50756 14.8498 6.41289Z" fill="#FF6469"/>
<circle cx="16.315" cy="15.8126" r="1.5" transform="rotate(-22.9315 16.315 15.8126)" fill="#2D2D33"/>
<circle cx="20.92" cy="13.8634" r="1.5" transform="rotate(-22.9315 20.92 13.8634)" fill="#2D2D33"/>
</svg>
