<svg width="28" height="25" viewBox="0 0 28 25" fill="none" xmlns="http://www.w3.org/2000/svg">
<path d="M26.9215 8.39065C26.7192 8.01185 26.4348 7.68255 26.089 7.42675C25.7432 7.17095 25.3447 6.99511 24.9226 6.91205L20.9066 6.2908C20.029 6.10258 19.1139 6.22712 18.3209 6.64271C17.528 7.0583 16.9074 7.73858 16.5675 8.56493L11.4787 20.9306C11.3105 21.3394 10.8891 21.6043 10.4627 21.4874C10.3845 21.466 10.3095 21.4418 10.2433 21.4145C10.177 21.3872 10.1067 21.3517 10.036 21.3118C9.65094 21.0948 9.53802 20.61 9.70626 20.2012L14.7951 7.83552C15.135 7.01874 15.1776 6.10831 14.9154 5.26159C14.6532 4.41487 14.1028 3.68505 13.3593 3.19826L9.97749 0.746239C9.62293 0.51937 9.22296 0.372714 8.80585 0.316634C8.38873 0.260554 7.96465 0.296419 7.56358 0.421695C7.1625 0.54697 6.79421 0.758598 6.48474 1.04163C6.17527 1.32465 5.93216 1.67217 5.77261 2.05963L1.25116 13.0466C0.331034 15.2825 1.1426 17.8564 3.17877 19.1602L8.74179 22.7222C9.24597 23.045 9.80403 23.2747 10.3894 23.4002L16.8482 24.7855C19.2122 25.2926 21.6004 24.0354 22.5205 21.7995L27.042 10.8126C27.2014 10.4254 27.2732 10.0077 27.2524 9.58912C27.2316 9.17057 27.1186 8.7614 26.9215 8.39065Z" fill="#C1FF98"/>
</svg>
