<svg width="100" height="135" viewBox="0 0 100 135" fill="none" xmlns="http://www.w3.org/2000/svg">
<path d="M49.8084 134.638C35.9387 134.638 24.695 131.921 24.695 128.569C24.695 125.217 35.9387 122.5 49.8084 122.5C63.6782 122.5 74.9219 125.217 74.9219 128.569C74.9219 131.921 63.6782 134.638 49.8084 134.638Z" fill="black"/>
<path d="M71.7131 30C87.3353 30 99.9999 42.6643 100 58.2865V84.1782C100 99.8005 87.3353 112.465 71.7131 112.465C62.9894 112.465 55.1884 108.516 49.9996 102.308C44.8108 108.516 37.0101 112.465 28.2865 112.465C12.6643 112.465 0 99.8005 0 84.1782V58.2865C7.66128e-05 42.6644 12.6644 30.0001 28.2865 30C37.01 30 44.8108 33.9493 49.9996 40.157C55.1884 33.9491 62.9895 30 71.7131 30Z" fill="#775DFF"/>
<path d="M60.0629 50.9297C67.1133 50.9297 72.8289 56.3641 72.8289 63.0678C72.8289 69.7716 67.1133 75.206 60.0629 75.206C55.8615 75.206 52.1346 73.2759 49.8082 70.2978C47.4819 73.2759 43.755 75.206 39.5536 75.206C32.5031 75.206 26.7876 69.7716 26.7876 63.0678C26.7876 56.3641 32.5031 50.9297 39.5536 50.9297C43.7548 50.9297 47.4819 52.8595 49.8082 55.8375C52.1346 52.8595 55.8616 50.9297 60.0629 50.9297Z" fill="white"/>
<path d="M50.7978 69.5248C52.8874 72.1999 56.2501 73.9503 60.0629 73.9503V75.206C55.8615 75.206 52.1346 73.2759 49.8082 70.2978C47.4819 73.2759 43.755 75.206 39.5536 75.206V73.9503C43.3664 73.9503 46.729 72.1999 48.8187 69.5248L49.8082 68.2581L50.7978 69.5248ZM71.5732 63.0678C71.5732 57.2096 66.6383 52.3399 60.3629 52.189L60.0629 52.1854C56.2501 52.1854 52.8874 53.9356 50.7978 56.6105L49.8082 57.8772L48.8187 56.6105C46.7943 54.0192 43.5752 52.2954 39.9096 52.1903L39.5536 52.1854C33.1362 52.1854 28.0433 57.1165 28.0433 63.0678C28.0433 69.0192 33.1362 73.9503 39.5536 73.9503V75.206C32.5031 75.206 26.7876 69.7716 26.7876 63.0678C26.7876 56.3641 32.5031 50.9297 39.5536 50.9297C43.7548 50.9297 47.4819 52.8595 49.8082 55.8375C52.1346 52.8595 55.8616 50.9297 60.0629 50.9297C67.1133 50.9297 72.8289 56.3641 72.8289 63.0678C72.8289 69.7716 67.1133 75.206 60.0629 75.206V73.9503C66.38 73.9503 71.4137 69.1721 71.5695 63.3462L71.5732 63.0678Z" fill="black"/>
<path d="M60.0628 72.6928C56.7109 72.6928 53.9937 69.9756 53.9937 66.6238C53.9937 63.2719 56.7109 60.5547 60.0628 60.5547C63.4146 60.5547 66.1318 63.2719 66.1318 66.6238C66.1318 69.9756 63.4146 72.6928 60.0628 72.6928Z" fill="black"/>
<path d="M39.5535 72.6928C36.2016 72.6928 33.4844 69.9756 33.4844 66.6238C33.4844 63.2719 36.2016 60.5547 39.5535 60.5547C42.9053 60.5547 45.6226 63.2719 45.6226 66.6238C45.6226 69.9756 42.9053 72.6928 39.5535 72.6928Z" fill="black"/>
<path d="M49.2814 90.0562C53.7325 87.7399 63.4046 85.1403 72.6719 90.4907C73.4226 90.9241 73.68 91.8843 73.2466 92.635C72.8268 93.3621 71.9126 93.6262 71.1735 93.2481L71.1023 93.2093L70.7014 92.9836C62.2761 88.3662 53.443 91.1889 50.0919 93.1966C50.0736 93.2075 50.055 93.2179 50.0363 93.2281C50.0287 93.2322 50.0211 93.2363 50.0134 93.2403C49.9968 93.249 49.98 93.2572 49.9632 93.2653C49.9565 93.2685 49.9499 93.272 49.9431 93.2751C49.9322 93.2801 49.9211 93.285 49.91 93.2898C49.7397 93.364 49.5617 93.4055 49.3836 93.4165C49.3763 93.417 49.3691 93.4174 49.3619 93.4177C49.3507 93.4183 49.3396 93.4187 49.3284 93.419C49.3139 93.4194 49.2995 93.4198 49.2851 93.4198C49.2761 93.4198 49.2671 93.4195 49.2581 93.4194C49.2402 93.4191 49.2224 93.4186 49.2045 93.4177C49.1995 93.4175 49.1945 93.4168 49.1894 93.4165C49.1721 93.4155 49.1548 93.4145 49.1375 93.4128C49.1263 93.4118 49.1151 93.4105 49.104 93.4091C49.0159 93.3989 48.9282 93.3812 48.8416 93.3556C48.8316 93.3527 48.8217 93.3493 48.8117 93.3462C48.7964 93.3413 48.7811 93.3364 48.7659 93.3311C48.7592 93.3287 48.7526 93.3262 48.7459 93.3237C48.7287 93.3174 48.7115 93.3111 48.6944 93.3041C48.6871 93.3011 48.68 93.2978 48.6727 93.2947C48.6581 93.2885 48.6435 93.2822 48.629 93.2755C48.6171 93.27 48.6052 93.2645 48.5935 93.2587C48.5862 93.2552 48.5786 93.2518 48.5714 93.2481L48.5648 93.2444C48.5456 93.2345 48.5265 93.2241 48.5076 93.2134L48.5003 93.2093L48.0993 92.9836C39.6741 88.3662 30.8409 91.1889 27.4898 93.1966C26.7462 93.642 25.7821 93.4002 25.3366 92.6566C24.8913 91.9132 25.1328 90.9493 25.8761 90.5038C29.7602 88.1766 39.6526 84.9681 49.2814 90.0562Z" fill="black"/>
<path d="M85.8044 92.784C85.8044 96.945 82.4313 100.318 78.2704 100.318C74.1094 100.318 70.7363 96.945 70.7363 92.784C70.7363 88.6231 74.1094 85.25 78.2704 85.25C82.4313 85.25 85.8044 88.6231 85.8044 92.784Z" fill="white"/>
<path d="M84.5487 92.784C84.5487 89.3166 81.7378 86.5057 78.2704 86.5057C74.8029 86.5057 71.992 89.3166 71.992 92.784C71.992 96.2515 74.8029 99.0624 78.2704 99.0624V100.318C74.1094 100.318 70.7363 96.945 70.7363 92.784C70.7363 88.6231 74.1094 85.25 78.2704 85.25C82.4313 85.25 85.8044 88.6231 85.8044 92.784C85.8044 96.945 82.4313 100.318 78.2704 100.318V99.0624C81.7378 99.0624 84.5487 96.2515 84.5487 92.784Z" fill="black"/>
<path d="M27.6247 93.62C27.6247 97.7809 24.2516 101.154 20.0907 101.154C15.9297 101.154 12.5566 97.7809 12.5566 93.62C12.5566 89.459 15.9297 86.0859 20.0907 86.0859C24.2516 86.0859 27.6247 89.459 27.6247 93.62Z" fill="white"/>
<path d="M26.369 93.62C26.369 90.1525 23.5581 87.3416 20.0907 87.3416C16.6232 87.3416 13.8123 90.1525 13.8123 93.62C13.8123 97.0874 16.6232 99.8983 20.0907 99.8983V101.154C15.9297 101.154 12.5566 97.7809 12.5566 93.62C12.5566 89.459 15.9297 86.0859 20.0907 86.0859C24.2516 86.0859 27.6247 89.459 27.6247 93.62C27.6247 97.7809 24.2516 101.154 20.0907 101.154V99.8983C23.5581 99.8983 26.369 97.0874 26.369 93.62Z" fill="black"/>
<path d="M50.3735 2.37085C50.7196 0.641563 52.7974 0.143744 53.4977 1.76232C53.8564 2.59118 54.1843 3.51956 54.4199 4.52002C54.9119 6.60957 53.934 9.42318 55.0049 11.146C57.2017 14.6795 59.9736 8.17879 59.9736 10.1714C59.9736 14.9765 60.9478 26.6663 51.1074 26.6665C41.2668 26.9299 40 16.2432 40 11.438C40.0001 9.89993 44.1829 18.2767 44.2852 4.77272C44.2877 4.44704 44.4086 3.91882 44.6813 4.09677C45.703 4.76324 47.3688 11.9804 49 7.49853C49.5916 5.87309 50.0431 4.02167 50.3735 2.37085ZM51.6465 11.4624C51.3733 10.2756 50.0685 10.3103 49.6477 11.4531C49.3131 12.3619 48.9559 13.3401 48.6758 14.1274C47.9699 16.1111 47.2964 13.8092 46.8166 13.1155C46.6349 12.8528 46.4602 13.22 46.4554 13.5393C46.36 19.8965 44.3846 15.3972 44.3838 16.1509C44.3838 18.5414 45.4535 23.6109 50.2393 23.48C55.0249 23.48 55.3427 18.15 55.3428 15.7593C55.3428 14.768 53.2032 17.517 52.1348 15.7593C51.614 14.9023 51.8856 12.5021 51.6465 11.4624ZM49.6326 15.3296C49.8467 14.7696 50.4924 14.7513 50.6318 15.3345C50.7513 15.8352 50.6156 16.9903 50.876 17.4028C51.4101 18.2492 52.4792 16.9261 52.4795 17.4028C52.4795 18.5538 52.3207 21.1206 49.9277 21.1206C47.5352 21.1836 47.0001 18.7434 47 17.5923C47 17.2395 47.9277 19.2644 48.0283 16.6026C48.0408 16.2729 48.1951 16.0652 48.3484 16.3573C48.5729 16.785 48.8544 17.4081 49.1465 16.6177C49.2866 16.2385 49.4652 15.7674 49.6326 15.3296Z" fill="#FFB05C"/>
</svg>
