<svg width="22" height="18" viewBox="0 0 22 18" fill="none" xmlns="http://www.w3.org/2000/svg">
<path fill-rule="evenodd" clip-rule="evenodd" d="M2.80625 2.20757C3.70639 1.30771 4.92707 0.802196 6.19985 0.802196C7.47264 0.802196 8.69332 1.30771 9.59345 2.20757L10.9999 3.61277L12.4063 2.20757C12.849 1.74912 13.3787 1.38345 13.9643 1.13188C14.5499 0.880321 15.1798 0.747907 15.8171 0.742369C16.4545 0.73683 17.0865 0.858279 17.6764 1.09963C18.2663 1.34098 18.8023 1.69739 19.2529 2.14807C19.7036 2.59876 20.06 3.13469 20.3014 3.72459C20.5427 4.31449 20.6642 4.94656 20.6587 5.5839C20.6531 6.22124 20.5207 6.85109 20.2691 7.43671C20.0176 8.02233 19.6519 8.55199 19.1934 8.99477L10.9999 17.1896L2.80625 8.99477C1.90639 8.09464 1.40088 6.87396 1.40088 5.60117C1.40088 4.32838 1.90639 3.1077 2.80625 2.20757V2.20757Z" stroke="white" stroke-linejoin="round"/>
</svg>
