<svg width="24" height="24" viewBox="0 0 24 24" fill="none" xmlns="http://www.w3.org/2000/svg">
<path fill-rule="evenodd" clip-rule="evenodd" d="M3.80625 6.20757C4.70639 5.30771 5.92707 4.8022 7.19985 4.8022C8.47264 4.8022 9.69332 5.30771 10.5935 6.20757L11.9999 7.61277L13.4063 6.20757C13.849 5.74912 14.3787 5.38345 14.9643 5.13188C15.5499 4.88032 16.1798 4.74791 16.8171 4.74237C17.4545 4.73683 18.0865 4.85828 18.6764 5.09963C19.2663 5.34098 19.8023 5.69739 20.2529 6.14807C20.7036 6.59876 21.06 7.13469 21.3014 7.72459C21.5427 8.31449 21.6642 8.94656 21.6587 9.5839C21.6531 10.2212 21.5207 10.8511 21.2691 11.4367C21.0176 12.0223 20.6519 12.552 20.1934 12.9948L11.9999 21.1896L3.80625 12.9948C2.90639 12.0946 2.40088 10.874 2.40088 9.60117C2.40088 8.32838 2.90639 7.1077 3.80625 6.20757Z" fill="white" stroke="white" stroke-linejoin="round"/>
</svg>
