<svg
  width="24"
  height="24"
  viewBox="0 0 24 24"
  fill="none"
  xmlns="http://www.w3.org/2000/svg"
>
  <path
    d="M12.0001 7.19844C10.6746 7.19844 9.6001 6.12392 9.6001 4.79844C9.6001 3.47295 10.6746 2.39844 12.0001 2.39844C13.3256 2.39844 14.4001 3.47295 14.4001 4.79844C14.4001 6.12392 13.3256 7.19844 12.0001 7.19844Z"
    stroke="#2D2D33"
  />
  <path
    d="M12.0001 14.3984C10.6746 14.3984 9.6001 13.3239 9.6001 11.9984C9.6001 10.673 10.6746 9.59844 12.0001 9.59844C13.3256 9.59844 14.4001 10.673 14.4001 11.9984C14.4001 13.3239 13.3256 14.3984 12.0001 14.3984Z"
    stroke="#2D2D33"
  />
  <path
    d="M12.0001 21.5984C10.6746 21.5984 9.6001 20.5239 9.6001 19.1984C9.6001 17.873 10.6746 16.7984 12.0001 16.7984C13.3256 16.7984 14.4001 17.873 14.4001 19.1984C14.4001 20.5239 13.3256 21.5984 12.0001 21.5984Z"
    stroke="#2D2D33"
  />
</svg>
