<svg width="100" height="108" viewBox="0 0 100 108" fill="none" xmlns="http://www.w3.org/2000/svg">
<path d="M49.8084 107.994C35.9387 107.994 24.695 105.276 24.695 101.925C24.695 98.5727 35.9387 95.8555 49.8084 95.8555C63.6782 95.8555 74.9219 98.5727 74.9219 101.925C74.9219 105.276 63.6782 107.994 49.8084 107.994Z" fill="black"/>
<path d="M49.8084 107.994C35.9387 107.994 24.695 105.276 24.695 101.925C24.695 98.5727 35.9387 95.8555 49.8084 95.8555C63.6782 95.8555 74.9219 98.5727 74.9219 101.925C74.9219 105.276 63.6782 107.994 49.8084 107.994Z" fill="black"/>
<path d="M71.7131 3.35547C87.3353 3.35547 99.9999 16.0198 100 31.642V57.5337C100 73.156 87.3353 85.8206 71.7131 85.8206C62.9894 85.8206 55.1884 81.8712 49.9996 75.6633C44.8108 81.871 37.0101 85.8206 28.2865 85.8206C12.6643 85.8206 0 73.1559 0 57.5337V31.642C7.66128e-05 16.0198 12.6644 3.35554 28.2865 3.35547C37.01 3.35547 44.8108 7.30474 49.9996 13.5124C55.1884 7.30458 62.9895 3.3555 71.7131 3.35547Z" fill="#775DFF"/>
<path d="M50.963 74.858C55.9235 80.7928 63.3771 84.5649 71.7131 84.565V85.8206C62.9894 85.8206 55.1884 81.8712 49.9996 75.6633C44.8108 81.871 37.0101 85.8206 28.2865 85.8206V84.565C36.6223 84.565 44.0756 80.7927 49.0362 74.858L49.9996 73.7054L50.963 74.858ZM98.7443 57.5337V31.642C98.7443 16.7133 86.6418 4.61114 71.7131 4.61114C63.3772 4.61117 55.9235 8.38302 50.963 14.3177L49.9996 15.4703L49.0362 14.3177C44.0757 8.38314 36.6223 4.61114 28.2865 4.61114C13.4745 4.61121 1.4449 16.5249 1.25772 31.2925L1.25567 31.642V57.5337C1.25567 72.4625 13.3578 84.5649 28.2865 84.565V85.8206C12.6643 85.8206 0 73.1559 0 57.5337V31.642C7.66128e-05 16.0198 12.6644 3.35554 28.2865 3.35547C37.01 3.35547 44.8108 7.30474 49.9996 13.5124C55.1884 7.30458 62.9895 3.3555 71.7131 3.35547C87.3353 3.35547 99.9999 16.0198 100 31.642V57.5337C100 73.156 87.3353 85.8206 71.7131 85.8206V84.565C86.6419 84.565 98.7443 72.4625 98.7443 57.5337Z" fill="black"/>
<path d="M60.0629 24.2852C67.1133 24.2852 72.8289 29.7196 72.8289 36.4233C72.8289 43.127 67.1133 48.5615 60.0629 48.5615C55.8615 48.5615 52.1346 46.6314 49.8082 43.6532C47.4819 46.6314 43.755 48.5615 39.5536 48.5615C32.5031 48.5615 26.7876 43.127 26.7876 36.4233C26.7876 29.7196 32.5031 24.2852 39.5536 24.2852C43.7548 24.2852 47.4819 26.215 49.8082 29.193C52.1346 26.215 55.8616 24.2852 60.0629 24.2852Z" fill="white"/>
<path d="M50.7978 42.8803C52.8874 45.5553 56.2501 47.3058 60.0629 47.3058V48.5615C55.8615 48.5615 52.1346 46.6314 49.8082 43.6532C47.4819 46.6314 43.755 48.5615 39.5536 48.5615V47.3058C43.3664 47.3058 46.729 45.5553 48.8187 42.8803L49.8082 41.6136L50.7978 42.8803ZM71.5732 36.4233C71.5732 30.5651 66.6383 25.6954 60.3629 25.5445L60.0629 25.5408C56.2501 25.5408 52.8874 27.2911 50.7978 29.9659L49.8082 31.2326L48.8187 29.9659C46.7943 27.3746 43.5752 25.6509 39.9096 25.5457L39.5536 25.5408C33.1362 25.5408 28.0433 30.472 28.0433 36.4233C28.0433 42.3746 33.1362 47.3058 39.5536 47.3058V48.5615C32.5031 48.5615 26.7876 43.127 26.7876 36.4233C26.7876 29.7196 32.5031 24.2852 39.5536 24.2852C43.7548 24.2852 47.4819 26.215 49.8082 29.193C52.1346 26.215 55.8616 24.2852 60.0629 24.2852C67.1133 24.2852 72.8289 29.7196 72.8289 36.4233C72.8289 43.127 67.1133 48.5615 60.0629 48.5615V47.3058C66.38 47.3058 71.4137 42.5276 71.5695 36.7017L71.5732 36.4233Z" fill="black"/>
<path d="M60.0629 39.7717C58.098 39.7717 56.5051 38.1789 56.5051 36.214C56.5051 34.2491 58.098 32.6562 60.0629 32.6562C62.0278 32.6562 63.6206 34.2491 63.6206 36.214C63.6206 38.1789 62.0278 39.7717 60.0629 39.7717Z" fill="black"/>
<path d="M39.5536 39.7717C37.5887 39.7717 35.9959 38.1789 35.9959 36.214C35.9959 34.2491 37.5887 32.6562 39.5536 32.6562C41.5185 32.6562 43.1113 34.2491 43.1113 36.214C43.1113 38.1789 41.5185 39.7717 39.5536 39.7717Z" fill="black"/>
<path d="M77.8516 11.7274C77.8516 12.1897 77.4768 12.5645 77.0144 12.5645C76.5521 12.5645 76.1773 12.1897 76.1773 11.7274L76.1773 0.844927C76.1773 0.382601 76.5521 0.00781244 77.0144 0.00781246C77.4768 0.00781248 77.8516 0.382601 77.8516 0.844927L77.8516 11.7274Z" fill="#191919"/>
<path d="M87.4785 13.4032C87.4785 13.8655 87.1037 14.2403 86.6414 14.2403C86.1791 14.2403 85.8043 13.8655 85.8043 13.4032L85.8043 2.52071C85.8043 2.05838 86.1791 1.68359 86.6414 1.68359C87.1037 1.68359 87.4785 2.05838 87.4785 2.52071L87.4785 13.4032Z" fill="#191919"/>
<path d="M82.8745 18.4243C82.8745 18.8867 82.4997 19.2614 82.0374 19.2614C81.5751 19.2614 81.2003 18.8867 81.2003 18.4243L81.2003 0.844927C81.2003 0.382601 81.5751 0.00781244 82.0374 0.00781246C82.4997 0.00781248 82.8745 0.382601 82.8745 0.844927L82.8745 18.4243Z" fill="#191919"/>
</svg>
