<svg
  width="12"
  height="12"
  viewBox="0 0 12 12"
  fill="none"
  xmlns="http://www.w3.org/2000/svg"
>
  <g clip-path="url(#clip0_516_3141)">
    <path
      d="M0.5 10.3174C0.5 11.6884 3.36006 11.9989 6 12C8.63994 11.9989 11.5 11.6884 11.5 10.3174C11.5 8.5 9.53344 7.89251 7.87306 7.33582C7.75328 7.29857 7.25 7 7.25 6.2225C8.07378 5.44307 8.94861 4.1694 8.94861 2.91974C8.94861 1.00225 7.59378 0 6 0C4.40622 0 3.05139 1.00225 3.05139 2.91974C3.05139 4.1694 3.92622 5.44307 4.75 6.2225C4.75 7 4.24672 7.29857 4.12694 7.33582C2.46656 7.89251 0.5 8.5 0.5 10.3174Z"
      fill="#6B6B75"
    />
  </g>
  <defs>
    <clipPath id="clip0_516_3141">
      <rect width="12" height="12" fill="white" />
    </clipPath>
  </defs>
</svg>
