<svg width="17" height="17" viewBox="0 0 17 17" fill="none" xmlns="http://www.w3.org/2000/svg">
<path d="M8.49973 3.53988V3.56735M3.56735 8.49973H3.53988M12.0068 4.99268L11.9874 5.0121M5.01221 11.9872L4.99279 12.0067M5.01221 5.01179L4.99279 4.99237M8.49952 16.4349C4.11691 16.4349 0.564096 12.8821 0.564096 8.49952C0.564096 4.11691 4.11691 0.564096 8.49952 0.564096C12.8821 0.564096 16.4349 4.11691 16.4349 8.49952C16.4349 9.83371 15.2022 10.7214 13.868 10.7214H13.35C13.0826 10.7214 12.8188 10.7837 12.5796 10.9033C11.7287 11.3288 11.3838 12.3635 11.8092 13.2145C11.9288 13.4537 11.9911 13.7174 11.9911 13.9848V14.1412C11.9911 15.051 11.4806 15.9125 10.6032 16.1531C9.93323 16.3368 9.22783 16.4349 8.49952 16.4349Z" stroke="#775DFF" stroke-width="1.08621" stroke-linecap="round" stroke-linejoin="round"/>
</svg>
