<svg width="102" height="106" viewBox="0 0 102 106" fill="none" xmlns="http://www.w3.org/2000/svg">
<path d="M47.9834 105.32C34.8738 105.32 24.2465 102.752 24.2465 99.5841C24.2465 96.4159 34.8738 93.8477 47.9834 93.8477C61.0929 93.8477 71.7202 96.4159 71.7202 99.5841C71.7202 102.752 61.0929 105.32 47.9834 105.32Z" fill="black"/>
<path d="M68.6875 6.41797C83.4534 6.41797 95.4238 18.3881 95.4239 33.154V57.6265C95.4239 72.3924 83.4534 84.3629 68.6875 84.3629C60.442 84.3629 53.0686 80.6299 48.1642 74.7623C43.2598 80.6298 35.8867 84.3629 27.6413 84.3629C12.8754 84.3628 0.905273 72.3924 0.905273 57.6265V33.154C0.905346 18.3881 12.8754 6.41803 27.6413 6.41797C35.8866 6.41797 43.2598 10.1508 48.1642 16.0182C53.0686 10.1506 60.4421 6.41799 68.6875 6.41797Z" fill="#775DFF"/>
<path d="M49.0748 74.0012C53.7634 79.6106 60.8085 83.176 68.6875 83.176V84.3629C60.442 84.3629 53.0686 80.6299 48.1642 74.7623C43.2598 80.6298 35.8867 84.3629 27.6413 84.3629V83.176C35.5202 83.176 42.565 79.6105 47.2536 74.0012L48.1642 72.9117L49.0748 74.0012ZM94.237 57.6265V33.154C94.237 19.0436 82.7979 7.60481 68.6875 7.60481C60.8085 7.60484 53.7634 11.1699 49.0748 16.7793L48.1642 17.8688L47.2536 16.7793C42.565 11.1701 35.5201 7.60481 27.6413 7.60481C13.6412 7.60487 2.27098 18.8655 2.09405 32.8237L2.09212 33.154V57.6265C2.09212 71.7369 13.5309 83.176 27.6413 83.176V84.3629C12.8754 84.3628 0.905273 72.3924 0.905273 57.6265V33.154C0.905346 18.3881 12.8754 6.41803 27.6413 6.41797C35.8866 6.41797 43.2598 10.1508 48.1642 16.0182C53.0686 10.1506 60.4421 6.41799 68.6875 6.41797C83.4534 6.41797 95.4238 18.3881 95.4239 33.154V57.6265C95.4239 72.3924 83.4534 84.3629 68.6875 84.3629V83.176C82.7979 83.176 94.237 71.7369 94.237 57.6265Z" fill="black"/>
<path d="M72.3389 40.8148C71.9409 41.137 71.3685 41.0995 71.0153 40.7437L70.9477 40.6684L70.8063 40.4969C69.3067 38.7161 66.6883 36.6716 63.5659 36.0686C60.4323 35.4635 56.6131 36.274 52.6749 40.7032C52.3119 41.1114 51.6868 41.148 51.2786 40.7851C50.8705 40.4221 50.8338 39.797 51.1967 39.3888C55.5406 34.5035 60.0404 33.3732 63.941 34.1265C67.6328 34.8394 70.6231 37.2068 72.3246 39.2289L72.4854 39.4236L72.5448 39.5055C72.8193 39.925 72.7369 40.4926 72.3389 40.8148Z" fill="black"/>
<path d="M47.0235 41.2172C46.6255 41.5394 46.0531 41.5019 45.6999 41.1461L45.6323 41.0707L45.4909 40.8992C43.9913 39.1185 41.3729 37.0739 38.2504 36.4709C35.1169 35.8658 31.2976 36.6764 27.3595 41.1055C26.9965 41.5137 26.3714 41.5504 25.9632 41.1874C25.555 40.8245 25.5184 40.1994 25.8813 39.7912C30.2251 34.9059 34.725 33.7756 38.6256 34.5288C42.3174 35.2417 45.3077 37.6091 47.0092 39.6312L47.1699 39.8259L47.2294 39.9078C47.5038 40.3273 47.4214 40.8949 47.0235 41.2172Z" fill="black"/>
<path d="M89.021 2.21651C89.1376 1.35444 90.1735 0.970167 90.8253 1.54996L91.1439 1.83199C91.4614 2.11171 91.7682 2.37718 91.9947 2.56309L92.065 2.62144C92.7525 3.19738 92.2437 2.96142 94.5104 4.5725L94.5716 4.61733C95.1952 5.08781 95.5447 5.78221 95.7152 6.49983C95.8913 7.24043 95.8831 8.02942 95.7761 8.68933C95.7224 9.0201 95.6428 9.32482 95.5452 9.58003C95.4499 9.82899 95.3282 10.0553 95.1773 10.2065C95.1006 10.2833 95.002 10.3552 94.8809 10.3879C94.7513 10.4228 94.6178 10.4067 94.4979 10.3406C94.2979 10.2303 94.1688 10.0016 94.0773 9.74134L94.0595 9.68893C93.6217 8.35396 92.5962 6.93345 91.9036 6.07411L91.7698 5.90994C91.7547 5.89163 91.7411 5.88501 91.7313 5.88219C91.7203 5.87902 91.7071 5.87876 91.6932 5.88289C91.6701 5.88975 91.6479 5.9072 91.6383 5.94101L91.635 5.95655L90.5967 12.9512C91.2146 13.5954 91.5834 14.4092 91.5834 15.294C91.5834 17.3828 89.528 19.0761 86.9926 19.0761C84.4572 19.0761 82.4019 17.3828 82.4019 15.294C82.4019 13.2052 84.4572 11.5119 86.9926 11.5119C87.3696 11.5119 87.7359 11.5496 88.0865 11.6202L89.0161 2.25794L89.021 2.21651Z" fill="white"/>
<path d="M90.99 15.2945C90.99 14.5822 90.6946 13.9109 90.1687 13.3624L89.967 13.1522L91.0511 5.85152L91.0549 5.83337L91.058 5.81791L91.0623 5.79859L91.0677 5.77928C91.1368 5.53589 91.3211 5.37492 91.5243 5.31451L91.5247 5.31412C91.6434 5.27894 91.7723 5.27652 91.896 5.31219L91.8968 5.31258C92.0225 5.34904 92.1377 5.42343 92.2279 5.53279L92.2298 5.5355L92.3638 5.69969L92.3658 5.70201C93.0633 6.56739 94.1469 8.05606 94.6216 9.49859L94.6375 9.54495L94.6641 9.61643C94.6909 9.68244 94.7171 9.73279 94.7414 9.76942C94.7464 9.77691 94.7519 9.78274 94.7561 9.78835C94.7564 9.78798 94.7572 9.78795 94.7576 9.78758C94.8229 9.72215 94.9079 9.58534 94.991 9.3684C95.0717 9.15745 95.1419 8.89278 95.1903 8.59455C95.2874 7.99643 95.2928 7.28795 95.1382 6.63734C94.9886 6.00806 94.6955 5.45571 94.2171 5.09352L94.1669 5.05643L93.4356 4.53101C92.8149 4.079 92.5039 3.83169 92.3024 3.65324C92.165 3.53149 92.0775 3.44077 91.9999 3.36348C91.9255 3.28942 91.8409 3.20807 91.6843 3.07681L91.6182 3.02195C91.3834 2.82917 91.0701 2.55799 90.7516 2.27747L90.7509 2.2767L90.4321 1.99467L90.431 1.99351C90.1338 1.72934 89.6621 1.90585 89.6092 2.2964L89.6058 2.32731L88.6125 12.3316L87.9696 12.2022C87.6574 12.1393 87.3303 12.1056 86.9929 12.1056C84.6725 12.1056 82.9954 13.6358 82.9954 15.2945L83.0005 15.4494C83.101 17.0471 84.745 18.483 86.9929 18.483C89.3132 18.4829 90.9899 16.953 90.99 15.2945ZM92.1769 15.2945C92.1767 17.8133 89.7432 19.6697 86.9929 19.6698C84.2855 19.6698 81.8849 17.8708 81.8105 15.4119L81.8086 15.2945C81.8086 12.7756 84.2425 10.9188 86.9929 10.9188C87.1835 10.9188 87.3719 10.9277 87.5574 10.9447L88.4259 2.19943L88.4262 2.19441L88.427 2.18939L88.4317 2.14805L88.4332 2.13723C88.6136 0.803763 90.2134 0.211656 91.2199 1.10686L91.2195 1.10724L91.5363 1.38695L91.9906 1.78334L92.3712 2.10478L92.3735 2.10671L92.4442 2.16505L92.4461 2.16698C92.6331 2.32361 92.7431 2.42841 92.8375 2.52241C92.9287 2.61319 92.9844 2.67242 93.089 2.76504C93.3045 2.95586 93.7201 3.28294 94.8542 4.08903L94.8577 4.09173L94.8612 4.09405L94.9226 4.13887L94.9257 4.14157L94.9292 4.14389C95.6963 4.72271 96.1013 5.55831 96.2926 6.36304C96.4899 7.19358 96.4792 8.06299 96.3621 8.78463C96.3031 9.14796 96.214 9.49312 96.0994 9.7926C95.9919 10.0733 95.834 10.389 95.5975 10.6259C95.4757 10.7479 95.29 10.8927 95.0358 10.9613C94.756 11.0368 94.4645 10.9997 94.2117 10.8604C93.8109 10.6396 93.6197 10.2291 93.5175 9.93825L93.5167 9.93516L93.5155 9.93207L93.4978 9.87991L93.4966 9.87682L93.4958 9.87412C93.2028 8.98078 92.6103 8.02175 92.0447 7.23733L91.2245 12.7643C91.8162 13.4692 92.1769 14.3406 92.1769 15.2945Z" fill="black"/>
<path d="M96.7824 15.645C96.8476 15.1661 97.4265 14.9526 97.7907 15.2747L97.9687 15.4314C98.1462 15.5868 98.3176 15.7343 98.4442 15.8376L98.4835 15.87C98.8677 16.19 98.5833 16.0589 99.8501 16.9539L99.8843 16.9788C100.233 17.2402 100.428 17.626 100.523 18.0246C100.622 18.4361 100.617 18.8744 100.557 19.241C100.527 19.4248 100.483 19.5941 100.428 19.7359C100.375 19.8742 100.307 19.9999 100.223 20.0839C100.18 20.1266 100.125 20.1665 100.057 20.1847C99.9847 20.2041 99.9101 20.1951 99.843 20.1584C99.7313 20.0971 99.6591 19.9701 99.608 19.8255L99.5981 19.7964C99.3534 19.0547 98.7803 18.2655 98.3933 17.7881L98.3185 17.6969C98.3101 17.6868 98.3025 17.6831 98.297 17.6815C98.2909 17.6797 98.2835 17.6796 98.2757 17.6819C98.2628 17.6857 98.2504 17.6954 98.245 17.7142L98.2432 17.7228L97.663 21.6087C98.0082 21.9666 98.2144 22.4187 98.2144 22.9103C98.2144 24.0707 97.0657 25.0115 95.6489 25.0115C94.2321 25.0114 93.0835 24.0707 93.0835 22.9103C93.0835 21.7499 94.2321 20.8091 95.6489 20.8091C95.8596 20.8091 96.0643 20.8301 96.2602 20.8693L96.7797 15.668L96.7824 15.645Z" fill="white"/>
<path d="M97.7199 22.9087C97.7198 22.5619 97.5754 22.2289 97.3069 21.9506L97.1377 21.7752L97.7539 17.6483L97.7562 17.6332L97.7597 17.6178L97.7612 17.6093L97.7647 17.593L97.7693 17.5772C97.8248 17.3828 97.9735 17.2542 98.1356 17.2063C98.2302 17.1784 98.3336 17.1763 98.4331 17.2048H98.4338C98.5228 17.2304 98.6046 17.2794 98.6714 17.3489L98.6993 17.3798L98.7008 17.3821L98.7758 17.4733L98.7773 17.4752C99.1402 17.9229 99.7016 18.6841 100.001 19.456C100.027 19.37 100.051 19.2702 100.069 19.16C100.121 18.8452 100.123 18.4742 100.042 18.1382C99.9647 17.814 99.8171 17.5467 99.5902 17.3751L99.5589 17.3523C98.9305 16.9083 98.6658 16.7044 98.5088 16.5661C98.4274 16.4945 98.3745 16.4395 98.333 16.3985C98.2942 16.36 98.2503 16.3181 98.1669 16.2486L98.1294 16.2177C97.9961 16.1088 97.8203 15.9572 97.643 15.802L97.6418 15.8012L97.4637 15.6443L97.463 15.6439C97.4285 15.6135 97.3876 15.6067 97.3451 15.6223C97.3026 15.6379 97.2782 15.6685 97.2725 15.7104L97.2721 15.71L97.2713 15.7154L96.698 21.4599L96.1629 21.3529C95.9988 21.3201 95.8266 21.3023 95.6487 21.3023C94.4082 21.3024 93.578 22.1092 93.5779 22.9087L93.5802 22.9837C93.63 23.758 94.4468 24.5155 95.6487 24.5155C96.8893 24.5155 97.7199 23.7083 97.7199 22.9087ZM98.7089 22.9087C98.7089 24.43 97.2418 25.5045 95.6487 25.5045C94.1054 25.5045 92.6806 24.4962 92.5931 23.0501L92.5889 22.9087C92.589 21.3876 94.0557 20.3133 95.6487 20.3133C95.7054 20.3133 95.7619 20.3145 95.8179 20.3171L96.2877 15.6173L96.2885 15.6088L96.2912 15.586L96.2916 15.5814L96.2923 15.5771C96.4113 14.7024 97.4606 14.3223 98.1174 14.9022L98.2955 15.0586L98.2951 15.059C98.3831 15.1361 98.4688 15.2099 98.547 15.2769L98.7568 15.4531L98.7588 15.4546L98.7982 15.4871L98.7997 15.4886C98.9083 15.5791 98.9733 15.6407 99.0288 15.6957C99.0816 15.7479 99.1087 15.7762 99.1625 15.8236C99.2473 15.8982 99.3954 16.0167 99.7316 16.2602L100.138 16.5507L100.141 16.5526L100.175 16.5777L100.178 16.5797L100.181 16.582C100.649 16.9333 100.891 17.4365 101.004 17.9083C101.121 18.3951 101.113 18.9008 101.045 19.3192C101.011 19.5303 100.959 19.7334 100.89 19.9122C100.826 20.0773 100.727 20.2777 100.571 20.433C100.501 20.5033 100.394 20.5883 100.25 20.6405L100.185 20.661C99.9883 20.7138 99.7827 20.6879 99.6052 20.5907C99.3261 20.4377 99.2019 20.1594 99.1416 19.9887L99.1397 19.9837L99.13 19.9544L99.1285 19.9497C99.011 19.5938 98.8002 19.2147 98.5718 18.8664L98.1854 21.4545C98.5098 21.8619 98.7089 22.3612 98.7089 22.9087Z" fill="black"/>
</svg>
