<svg width="24" height="24" viewBox="0 0 24 24" fill="none" xmlns="http://www.w3.org/2000/svg">
<path d="M8.37207 6C9.57922 6.02431 10.5528 6.99793 10.5771 8.20508V16.3721C10.5528 17.5792 9.57922 18.5519 8.37207 18.5762C8.34781 18.5767 8.32063 18.5771 8.28906 18.5771C8.25723 18.5771 8.2295 18.5767 8.20508 18.5762C6.9981 18.5517 6.02529 17.5791 6.00098 16.3721C6.00049 16.3476 6 16.3201 6 16.2881V8.28809C6 8.25636 6.00049 8.22943 6.00098 8.20508C6.02529 6.99805 6.9981 6.0245 8.20508 6H8.37207ZM15.9492 6C17.1564 6.02431 18.13 6.99793 18.1543 8.20508V16.3721C18.13 17.5792 17.1564 18.5519 15.9492 18.5762C15.925 18.5767 15.8978 18.5771 15.8662 18.5771C15.8344 18.5771 15.8066 18.5767 15.7822 18.5762C14.5752 18.5517 13.6024 17.5791 13.5781 16.3721C13.5776 16.3476 13.5771 16.3201 13.5771 16.2881V8.28809C13.5771 8.25636 13.5776 8.22944 13.5781 8.20508C13.6024 6.99805 14.5752 6.0245 15.7822 6H15.9492Z" fill="#775DFF"/>
</svg>
