<svg width="100" height="108" viewBox="0 0 100 108" fill="none" xmlns="http://www.w3.org/2000/svg">
<path d="M49.8084 107.541C35.9387 107.541 24.695 104.823 24.695 101.471C24.695 98.1196 35.9387 95.4023 49.8084 95.4023C63.6782 95.4023 74.9219 98.1196 74.9219 101.471C74.9219 104.823 63.6782 107.541 49.8084 107.541Z" fill="black"/>
<path d="M49.8084 107.541C35.9387 107.541 24.695 104.823 24.695 101.471C24.695 98.1196 35.9387 95.4023 49.8084 95.4023C63.6782 95.4023 74.9219 98.1196 74.9219 101.471C74.9219 104.823 63.6782 107.541 49.8084 107.541Z" fill="black"/>
<path d="M71.7131 2.90234C87.3353 2.90234 99.9999 15.5666 100 31.1889V57.0806C100 72.7028 87.3353 85.3675 71.7131 85.3675C62.9894 85.3675 55.1884 81.4181 49.9996 75.2101C44.8108 81.4179 37.0101 85.3675 28.2865 85.3675C12.6643 85.3674 0 72.7028 0 57.0806V31.1889C7.66128e-05 15.5667 12.6644 2.90241 28.2865 2.90234C37.01 2.90234 44.8108 6.85161 49.9996 13.0593C55.1884 6.85146 62.9895 2.90237 71.7131 2.90234Z" fill="#775DFF"/>
<path d="M50.963 74.4049C55.9235 80.3397 63.3771 84.1118 71.7131 84.1118V85.3675C62.9894 85.3675 55.1884 81.4181 49.9996 75.2101C44.8108 81.4179 37.0101 85.3675 28.2865 85.3675V84.1118C36.6223 84.1118 44.0756 80.3395 49.0362 74.4049L49.9996 73.2522L50.963 74.4049ZM98.7443 57.0806V31.1889C98.7443 16.2601 86.6418 4.15802 71.7131 4.15802C63.3772 4.15804 55.9235 7.9299 50.963 13.8645L49.9996 15.0172L49.0362 13.8645C44.0757 7.93002 36.6223 4.15802 28.2865 4.15802C13.4745 4.15808 1.4449 16.0718 1.25772 30.8394L1.25567 31.1889V57.0806C1.25567 72.0093 13.3578 84.1118 28.2865 84.1118V85.3675C12.6643 85.3674 0 72.7028 0 57.0806V31.1889C7.66128e-05 15.5667 12.6644 2.90241 28.2865 2.90234C37.01 2.90234 44.8108 6.85161 49.9996 13.0593C55.1884 6.85146 62.9895 2.90237 71.7131 2.90234C87.3353 2.90234 99.9999 15.5666 100 31.1889V57.0806C100 72.7028 87.3353 85.3675 71.7131 85.3675V84.1118C86.6419 84.1118 98.7443 72.0094 98.7443 57.0806Z" fill="black"/>
<path d="M60.0629 23.8281C67.1133 23.8281 72.8289 29.2626 72.8289 35.9663C72.8289 42.67 67.1133 48.1044 60.0629 48.1044C55.8615 48.1044 52.1346 46.1744 49.8082 43.1962C47.4819 46.1744 43.755 48.1044 39.5536 48.1044C32.5031 48.1044 26.7876 42.67 26.7876 35.9663C26.7876 29.2626 32.5031 23.8281 39.5536 23.8281C43.7548 23.8281 47.4819 25.7579 49.8082 28.736C52.1346 25.7579 55.8616 23.8281 60.0629 23.8281Z" fill="white"/>
<path d="M50.7978 42.4233C52.8874 45.0983 56.2501 46.8488 60.0629 46.8488V48.1044C55.8615 48.1044 52.1346 46.1744 49.8082 43.1962C47.4819 46.1744 43.755 48.1044 39.5536 48.1044V46.8488C43.3664 46.8488 46.729 45.0983 48.8187 42.4233L49.8082 41.1566L50.7978 42.4233ZM71.5732 35.9663C71.5732 30.108 66.6383 25.2383 60.3629 25.0875L60.0629 25.0838C56.2501 25.0838 52.8874 26.834 50.7978 29.5089L49.8082 30.7756L48.8187 29.5089C46.7943 26.9176 43.5752 25.1939 39.9096 25.0887L39.5536 25.0838C33.1362 25.0838 28.0433 30.015 28.0433 35.9663C28.0433 41.9176 33.1362 46.8488 39.5536 46.8488V48.1044C32.5031 48.1044 26.7876 42.67 26.7876 35.9663C26.7876 29.2626 32.5031 23.8281 39.5536 23.8281C43.7548 23.8281 47.4819 25.7579 49.8082 28.736C52.1346 25.7579 55.8616 23.8281 60.0629 23.8281C67.1133 23.8281 72.8289 29.2626 72.8289 35.9663C72.8289 42.67 67.1133 48.1044 60.0629 48.1044V46.8488C66.38 46.8488 71.4137 42.0706 71.5695 36.2446L71.5732 35.9663Z" fill="black"/>
<path d="M60.0628 41.8257C56.7109 41.8257 53.9937 39.1084 53.9937 35.7566C53.9937 32.4047 56.7109 29.6875 60.0628 29.6875C63.4146 29.6875 66.1318 32.4047 66.1318 35.7566C66.1318 39.1084 63.4146 41.8257 60.0628 41.8257Z" fill="black"/>
<path d="M39.5535 41.8257C36.2016 41.8257 33.4844 39.1084 33.4844 35.7566C33.4844 32.4047 36.2016 29.6875 39.5535 29.6875C42.9053 29.6875 45.6226 32.4047 45.6226 35.7566C45.6226 39.1084 42.9053 41.8257 39.5535 41.8257Z" fill="black"/>
<path d="M80.3971 12.0522C80.4175 9.51801 81.0919 8.72095 82.3182 7.96477C83.197 7.39252 83.8714 6.75897 83.8714 5.81885C83.8714 4.79698 83.0744 4.12255 82.0934 4.12255C81.1328 4.12255 80.254 4.7561 80.2131 5.96191H77.311C77.3723 3.08024 79.4978 1.71094 82.1138 1.71094C84.9546 1.71094 86.9779 3.20286 86.9779 5.71666C86.9779 7.39252 86.1195 8.4757 84.7707 9.27276C83.6262 9.96763 83.1152 10.6216 83.0948 12.0522V12.2771H80.3971V12.0522ZM81.8073 16.8959C80.8467 16.8959 80.0701 16.1193 80.0905 15.1792C80.0701 14.239 80.8467 13.4829 81.8073 13.4829C82.7065 13.4829 83.5036 14.239 83.5036 15.1792C83.5036 16.1193 82.7065 16.8959 81.8073 16.8959Z" fill="white"/>
<path d="M83.504 15.1809C83.504 14.2408 82.7069 13.4846 81.8077 13.4846C80.8471 13.4846 80.0705 14.2408 80.0909 15.1809C80.0705 16.121 80.8471 16.8977 81.8077 16.8977C82.7069 16.8977 83.504 16.121 83.504 15.1809ZM82.6162 5.82061C82.6162 5.65544 82.5599 5.56826 82.5001 5.51323C82.4302 5.4489 82.2978 5.37998 82.0938 5.37998C81.8843 5.37998 81.7344 5.44851 81.647 5.52672C81.5751 5.59116 81.4781 5.71985 81.4684 6.00618L81.4333 7.04195C81.5006 6.99776 81.568 6.9547 81.6356 6.91278C82.0348 6.65265 82.2911 6.43798 82.4449 6.24612C82.5778 6.08027 82.6162 5.95645 82.6162 5.82061ZM83.8718 5.82061C83.8718 6.76073 83.1974 7.39429 82.3186 7.96653C81.0924 8.72272 80.4179 9.51977 80.3975 12.054V12.2788H83.0952V12.054C83.1157 10.6234 83.6266 9.9694 84.7711 9.27453C86.12 8.47747 86.9783 7.39429 86.9783 5.71842C86.9783 3.20463 84.955 1.7127 82.1142 1.7127C79.4983 1.7127 77.3728 3.08201 77.3115 5.96367H80.2136C80.2544 4.75787 81.1332 4.12431 82.0938 4.12431C83.0748 4.12431 83.8718 4.79874 83.8718 5.82061ZM88.234 5.71842C88.234 6.78596 87.9557 7.71967 87.4279 8.51834C86.9125 9.29835 86.2015 9.88585 85.4226 10.3479L85.2452 10.4591C84.8609 10.7095 84.6771 10.896 84.5708 11.0628C84.461 11.2352 84.359 11.5058 84.3509 12.072V13.5345H84.2495C84.5691 14.0023 84.7596 14.5671 84.7596 15.1809C84.7596 16.8145 83.4004 18.1533 81.8077 18.1533C80.1691 18.1533 78.7994 16.8235 78.8357 15.1535C78.8335 14.5464 79.0154 13.9929 79.3258 13.5345H79.1418V12.0438C79.1528 10.6866 79.3364 9.62102 79.797 8.75419C80.1617 8.06808 80.6533 7.59558 81.1753 7.21934H76.0288L76.0562 5.9371C76.0939 4.16311 76.7845 2.73934 77.9638 1.7826C79.1111 0.85191 80.6022 0.457031 82.1142 0.457031C83.741 0.457031 85.2574 0.883468 86.395 1.79159C87.5625 2.7235 88.234 4.09008 88.234 5.71842Z" fill="black"/>
</svg>
