<svg width="24" height="24" viewBox="0 0 24 24" fill="none" xmlns="http://www.w3.org/2000/svg">
<path d="M8.61426 5.00195C9.17076 4.97448 9.69778 5.1948 10.2178 5.48633C10.7454 5.78216 11.3885 6.22446 12.1885 6.77441L15.3633 8.95703C15.9949 9.3913 16.5113 9.74531 16.8936 10.0625C17.2777 10.3813 17.6068 10.7264 17.7891 11.1729C18.0608 11.8387 18.0607 12.5851 17.7891 13.251C17.6068 13.6975 17.2777 14.0425 16.8936 14.3613C16.5112 14.6786 15.9941 15.0324 15.3623 15.4668L12.1885 17.6494C11.3886 18.1993 10.7454 18.6426 10.2178 18.9385C9.69787 19.2299 9.17066 19.4503 8.61426 19.4229C7.8058 19.3827 7.05564 18.9881 6.56445 18.3447C6.22624 17.9016 6.10906 17.342 6.05469 16.748C5.99956 16.1457 6 15.3652 6 14.3945V10.0293C6 9.05867 5.99955 8.27809 6.05469 7.67578C6.10907 7.0821 6.2264 6.52306 6.56445 6.08008C7.05564 5.43669 7.80579 5.04212 8.61426 5.00195Z" fill="#6B6B75"/>
</svg>
