<svg width="23" height="23" viewBox="0 0 23 23" fill="none" xmlns="http://www.w3.org/2000/svg">
<path d="M14.2998 0.714844C15.5469 0.714844 16.5296 0.714783 17.3193 0.779297C18.1183 0.844572 18.789 0.979997 19.3994 1.29102C20.3938 1.7977 21.2023 2.60619 21.709 3.60059C22.02 4.21099 22.1554 4.88174 22.2207 5.68066C22.2852 6.4704 22.2852 7.45311 22.2852 8.7002V14.2998C22.2852 15.5469 22.2852 16.5296 22.2207 17.3193C22.1554 18.1183 22.02 18.789 21.709 19.3994C21.2023 20.3938 20.3938 21.2023 19.3994 21.709C18.789 22.02 18.1183 22.1554 17.3193 22.2207C16.5296 22.2852 15.5469 22.2852 14.2998 22.2852H8.7002C7.45311 22.2852 6.4704 22.2852 5.68066 22.2207C4.88173 22.1554 4.21099 22.02 3.60059 21.709C2.60619 21.2023 1.7977 20.3938 1.29102 19.3994C0.979997 18.789 0.844572 18.1183 0.779297 17.3193C0.714783 16.5296 0.714844 15.5469 0.714844 14.2998V8.7002C0.714844 7.45311 0.714783 6.4704 0.779297 5.68066C0.844572 4.88174 0.979997 4.21099 1.29102 3.60059C1.7977 2.60619 2.60619 1.7977 3.60059 1.29102C4.21099 0.979997 4.88173 0.844572 5.68066 0.779297C6.4704 0.714783 7.45311 0.714844 8.7002 0.714844H14.2998ZM8.80273 12.5283C8.53628 12.4162 8.23838 12.4026 7.96289 12.4902C7.86512 12.5214 7.72453 12.597 7.47266 12.832C7.21555 13.072 6.90643 13.414 6.4502 13.9209L3.08301 17.6621L2.55859 18.2461L2.50391 18.1963C2.55508 18.3825 2.61589 18.5421 2.68945 18.6865C3.04562 19.3855 3.61445 19.9544 4.31348 20.3105C4.66563 20.4899 5.1069 20.5989 5.80859 20.6562C6.51956 20.7143 7.42728 20.7148 8.7002 20.7148H14.2998C14.6312 20.7148 14.9378 20.711 15.2227 20.71L12.4844 17.1709L12.4766 17.1611L10.1797 14.0898C9.77112 13.5438 9.49414 13.1753 9.25977 12.9131C9.03013 12.6563 8.89728 12.5681 8.80273 12.5283ZM16.3633 15.4717C16.093 15.3518 15.788 15.3351 15.5059 15.4238C15.4068 15.455 15.262 15.5327 15.002 15.7793C14.7711 15.9982 14.5005 16.2997 14.124 16.7246L16.6738 20.0195L17.1543 20.6406L17.1289 20.6592C17.1499 20.6576 17.1708 20.6579 17.1914 20.6562C17.8931 20.5989 18.3344 20.4899 18.6865 20.3105C19.3855 19.9544 19.9544 19.3855 20.3105 18.6865C20.3149 18.678 20.318 18.6688 20.3223 18.6602L19.3076 19.3711L18.8574 18.7285L17.7393 17.1318C17.3337 16.553 17.0579 16.1618 16.8232 15.8828C16.5925 15.6085 16.4582 15.5138 16.3633 15.4717ZM8.7002 2.28516C7.42728 2.28516 6.51956 2.28568 5.80859 2.34375C5.1069 2.40108 4.66563 2.51007 4.31348 2.68945C3.61445 3.04562 3.04562 3.61445 2.68945 4.31348C2.51007 4.66563 2.40108 5.10691 2.34375 5.80859C2.28568 6.51956 2.28516 7.42728 2.28516 8.7002V14.2998C2.28516 15.0421 2.28716 15.6602 2.29883 16.1875L5.2832 12.8711C5.72047 12.3852 6.08243 11.9822 6.40137 11.6846C6.7252 11.3824 7.06725 11.1276 7.48633 10.9941C8.11791 10.7932 8.80125 10.8239 9.41211 11.0811C9.81763 11.2518 10.1354 11.5369 10.4307 11.8672C10.7214 12.1924 11.045 12.6261 11.4365 13.1494L13.1572 15.4492C13.4419 15.1306 13.6925 14.8581 13.9219 14.6406C14.2529 14.3268 14.6034 14.0614 15.0342 13.9258C15.681 13.7223 16.3802 13.7621 17 14.0371C17.4129 14.2204 17.7318 14.5229 18.0254 14.8721C18.315 15.2165 18.6354 15.6761 19.0244 16.2314L20.1426 17.8271L20.4678 18.291C20.5563 18.0052 20.6183 17.6555 20.6562 17.1914C20.7143 16.4804 20.7148 15.5727 20.7148 14.2998V8.7002C20.7148 7.42728 20.7143 6.51956 20.6562 5.80859C20.5989 5.10691 20.4899 4.66563 20.3105 4.31348C19.9544 3.61446 19.3855 3.04562 18.6865 2.68945C18.3344 2.51007 17.8931 2.40108 17.1914 2.34375C16.4804 2.28568 15.5727 2.28516 14.2998 2.28516H8.7002ZM15.5 5.71484C17.0381 5.71484 18.2852 6.96189 18.2852 8.5C18.2852 10.0381 17.0381 11.2852 15.5 11.2852C13.9619 11.2852 12.7148 10.0381 12.7148 8.5C12.7148 6.96189 13.9619 5.71484 15.5 5.71484ZM15.5 7.28516C14.829 7.28516 14.2852 7.82898 14.2852 8.5C14.2852 9.17103 14.829 9.71484 15.5 9.71484C16.171 9.71484 16.7148 9.17103 16.7148 8.5C16.7148 7.82898 16.171 7.28516 15.5 7.28516Z" fill="#6B6B75"/>
</svg>
