<svg width="19" height="19" viewBox="0 0 19 19" fill="none" xmlns="http://www.w3.org/2000/svg">
<path d="M14.8027 9.67029C14.8765 9.4623 14.7677 9.23387 14.5598 9.16007C14.3518 9.08627 14.1233 9.19504 14.0495 9.40303L14.8027 9.67029ZM12.9364 13.7349L13.313 13.8685L12.9364 13.7349ZM11.9317 14.6048L12.0101 14.9966L11.9317 14.6048ZM3.16162 16.3588L2.76837 16.2879C2.74489 16.4181 2.78735 16.5514 2.88176 16.6441C2.97617 16.7367 3.11029 16.7766 3.23999 16.7507L3.16162 16.3588ZM4.76207 7.48361L5.15532 7.55453L4.76207 7.48361ZM5.68539 6.43757L5.80458 6.81898H5.80458L5.68539 6.43757ZM10.103 5.47573C10.3136 5.4099 10.431 5.18577 10.3652 4.97513C10.2994 4.76448 10.0752 4.64708 9.8646 4.71291L10.103 5.47573ZM3.03772 15.9176C2.88166 16.0737 2.88166 16.3267 3.03772 16.4827C3.19377 16.6388 3.44678 16.6388 3.60283 16.4827L3.03772 15.9176ZM7.41056 12.675C7.56661 12.519 7.56661 12.2659 7.41056 12.1099C7.2545 11.9538 7.00149 11.9538 6.84544 12.1099L7.41056 12.675ZM16.9646 6.36356L17.2472 6.081L16.9646 6.36356ZM16.9646 7.6328L16.6821 7.35024L16.9646 7.6328ZM11.8876 2.55584L11.6051 2.27328L11.6051 2.27328L11.8876 2.55584ZM13.1569 2.55584L12.8743 2.8384L13.1569 2.55584ZM10.3011 5.41163L10.5837 5.12907L10.3011 5.41163ZM10.3011 4.14239L10.5837 4.42495L10.3011 4.14239ZM14.1088 9.21935L13.8263 9.50191L14.1088 9.21935ZM15.3781 9.21935L15.6606 9.50191L15.3781 9.21935ZM14.4261 9.53666L14.0495 9.40303L12.5598 13.6013L12.9364 13.7349L13.313 13.8685L14.8027 9.67029L14.4261 9.53666ZM11.9317 14.6048L11.8534 14.213L3.08325 15.967L3.16162 16.3588L3.23999 16.7507L12.0101 14.9966L11.9317 14.6048ZM3.16162 16.3588L3.55488 16.4297L5.15532 7.55453L4.76207 7.48361L4.36881 7.4127L2.76837 16.2879L3.16162 16.3588ZM5.68539 6.43757L5.80458 6.81898L10.103 5.47573L9.98379 5.09432L9.8646 4.71291L5.5662 6.05616L5.68539 6.43757ZM4.76207 7.48361L5.15532 7.55453C5.21789 7.20757 5.46808 6.92413 5.80458 6.81898L5.68539 6.43757L5.5662 6.05616C4.9456 6.2501 4.4842 6.77283 4.36881 7.4127L4.76207 7.48361ZM12.9364 13.7349L12.5598 13.6013C12.4484 13.9153 12.1801 14.1476 11.8534 14.213L11.9317 14.6048L12.0101 14.9966C12.6127 14.8761 13.1075 14.4477 13.313 13.8685L12.9364 13.7349ZM3.32028 16.2002L3.60283 16.4827L7.41056 12.675L7.128 12.3925L6.84544 12.1099L3.03772 15.9176L3.32028 16.2002ZM14.1088 9.21935L14.3914 8.93679L10.5837 5.12907L10.3011 5.41163L10.0185 5.69419L13.8263 9.50191L14.1088 9.21935ZM10.3011 4.14239L10.5837 4.42495L12.1702 2.8384L11.8876 2.55584L11.6051 2.27328L10.0185 3.85983L10.3011 4.14239ZM13.1569 2.55584L12.8743 2.8384L16.6821 6.64612L16.9646 6.36356L17.2472 6.081L13.4394 2.27328L13.1569 2.55584ZM16.9646 7.6328L16.6821 7.35024L15.0955 8.93679L15.3781 9.21935L15.6606 9.50191L17.2472 7.91536L16.9646 7.6328ZM16.9646 6.36356L16.6821 6.64612C16.8765 6.84056 16.8765 7.1558 16.6821 7.35024L16.9646 7.6328L17.2472 7.91536C17.7537 7.40881 17.7537 6.58754 17.2472 6.081L16.9646 6.36356ZM11.8876 2.55584L12.1702 2.8384C12.3646 2.64396 12.6799 2.64396 12.8743 2.8384L13.1569 2.55584L13.4394 2.27328C12.9329 1.76673 12.1116 1.76673 11.6051 2.27328L11.8876 2.55584ZM10.3011 5.41163L10.5837 5.12907C10.3892 4.93463 10.3892 4.61939 10.5837 4.42495L10.3011 4.14239L10.0185 3.85983C9.512 4.36637 9.512 5.18764 10.0185 5.69419L10.3011 5.41163ZM14.1088 9.21935L13.8263 9.50191C14.3328 10.0085 15.1541 10.0085 15.6606 9.50191L15.3781 9.21935L15.0955 8.93679C14.9011 9.13123 14.5858 9.13123 14.3914 8.93679L14.1088 9.21935ZM7.44531 9.53666L7.72787 9.81922C8.2728 9.27429 9.1563 9.27429 9.70123 9.81922L9.98379 9.53666L10.2663 9.2541C9.40931 8.39707 8.01978 8.39707 7.16275 9.2541L7.44531 9.53666ZM9.98379 9.53666L9.70123 9.81922C10.2462 10.3641 10.2462 11.2477 9.70123 11.7926L9.98379 12.0751L10.2663 12.3577C11.1234 11.5007 11.1234 10.1111 10.2663 9.2541L9.98379 9.53666ZM9.98379 12.0751L9.70123 11.7926C9.1563 12.3375 8.2728 12.3375 7.72787 11.7926L7.44531 12.0751L7.16275 12.3577C8.01978 13.2147 9.40931 13.2147 10.2663 12.3577L9.98379 12.0751ZM7.44531 12.0751L7.72787 11.7926C7.18294 11.2477 7.18294 10.3641 7.72787 9.81922L7.44531 9.53666L7.16275 9.2541C6.30571 10.1111 6.30571 11.5007 7.16275 12.3577L7.44531 12.0751Z" fill="white"/>
</svg>
