<svg width="17" height="17" viewBox="0 0 17 17" fill="none" xmlns="http://www.w3.org/2000/svg">
<path d="M13.8059 8.92601C13.9101 8.63233 13.7565 8.30978 13.4628 8.20557C13.1691 8.10136 12.8466 8.25496 12.7424 8.54864L13.8059 8.92601ZM11.5932 13.4743L12.125 13.663V13.663L11.5932 13.4743ZM10.4596 14.4558L10.5703 15.0091L10.4596 14.4558ZM0.564096 16.4349L0.00881617 16.3348C-0.0243269 16.5186 0.035621 16.7069 0.168926 16.8377C0.302232 16.9685 0.491621 17.0248 0.674752 16.9882L0.564096 16.4349ZM2.36992 6.42082L2.9252 6.52095L2.36992 6.42082ZM3.41172 5.24055L3.58002 5.7791H3.58002L3.41172 5.24055ZM8.43 4.26348C8.72744 4.17053 8.89321 3.85406 8.80026 3.55663C8.70731 3.25919 8.39084 3.09342 8.09341 3.18637L8.43 4.26348ZM0.344135 15.8569C0.123787 16.0773 0.123787 16.4345 0.344135 16.6549C0.564483 16.8752 0.921738 16.8752 1.14209 16.6549L0.344135 15.8569ZM5.43843 12.3586C5.65878 12.1382 5.65878 11.781 5.43843 11.5606C5.21808 11.3403 4.86082 11.3403 4.64048 11.5606L5.43843 12.3586ZM16.1383 5.15704L16.5373 4.75806H16.5373L16.1383 5.15704ZM16.1383 6.58915L15.7394 6.19018L16.1383 6.58915ZM10.4099 0.860697L10.0109 0.461722V0.461722L10.4099 0.860697ZM11.842 0.860697L11.443 1.25967V1.25967L11.842 0.860697ZM8.61973 4.08295L9.01871 3.68398L8.61973 4.08295ZM8.61973 2.65084L9.01871 3.04981L8.61973 2.65084ZM12.9161 8.37929L12.5171 8.77827L12.9161 8.37929ZM14.3482 8.37929L14.7472 8.77827L14.3482 8.37929ZM13.2741 8.73732L12.7424 8.54864L11.0615 13.2856L11.5932 13.4743L12.125 13.663L13.8059 8.92601L13.2741 8.73732ZM10.4596 14.4558L10.3489 13.9026L0.45344 15.8817L0.564096 16.4349L0.674752 16.9882L10.5703 15.0091L10.4596 14.4558ZM0.564096 16.4349L1.11938 16.5351L2.9252 6.52095L2.36992 6.42082L1.81464 6.32069L0.00881617 16.3348L0.564096 16.4349ZM3.41172 5.24055L3.58002 5.7791L8.43 4.26348L8.26171 3.72492L8.09341 3.18637L3.24342 4.70199L3.41172 5.24055ZM2.36992 6.42082L2.9252 6.52095C2.9883 6.17103 3.24063 5.88516 3.58002 5.7791L3.41172 5.24055L3.24342 4.70199C2.5029 4.93341 1.95232 5.55716 1.81464 6.32069L2.36992 6.42082ZM11.5932 13.4743L11.0615 13.2856C10.9491 13.6023 10.6785 13.8366 10.3489 13.9026L10.4596 14.4558L10.5703 15.0091C11.2893 14.8653 11.8798 14.3541 12.125 13.663L11.5932 13.4743ZM0.74311 16.2559L1.14209 16.6549L5.43843 12.3586L5.03945 11.9596L4.64048 11.5606L0.344135 15.8569L0.74311 16.2559ZM12.9161 8.37929L13.3151 7.98032L9.01871 3.68398L8.61973 4.08295L8.22076 4.48193L12.5171 8.77827L12.9161 8.37929ZM8.61973 2.65084L9.01871 3.04981L10.8089 1.25967L10.4099 0.860697L10.0109 0.461722L8.22076 2.25186L8.61973 2.65084ZM11.842 0.860697L11.443 1.25967L15.7394 5.55601L16.1383 5.15704L16.5373 4.75806L12.241 0.461721L11.842 0.860697ZM16.1383 6.58915L15.7394 6.19018L13.9492 7.98032L14.3482 8.37929L14.7472 8.77827L16.5373 6.98813L16.1383 6.58915ZM16.1383 5.15704L15.7394 5.55601C15.9145 5.73113 15.9145 6.01506 15.7394 6.19018L16.1383 6.58915L16.5373 6.98813C17.1531 6.37231 17.1531 5.37388 16.5373 4.75806L16.1383 5.15704ZM10.4099 0.860697L10.8089 1.25967C10.984 1.08455 11.2679 1.08455 11.443 1.25967L11.842 0.860697L12.241 0.461721C11.6252 -0.154094 10.6267 -0.154093 10.0109 0.461722L10.4099 0.860697ZM8.61973 4.08295L9.01871 3.68398C8.84359 3.50886 8.84359 3.22493 9.01871 3.04981L8.61973 2.65084L8.22076 2.25186C7.60494 2.86768 7.60494 3.86611 8.22076 4.48193L8.61973 4.08295ZM12.9161 8.37929L12.5171 8.77827C13.1329 9.39408 14.1314 9.39408 14.7472 8.77827L14.3482 8.37929L13.9492 7.98032C13.7741 8.15544 13.4902 8.15544 13.3151 7.98032L12.9161 8.37929ZM5.39748 8.73732L5.79645 9.1363C6.36704 8.56571 7.29214 8.56571 7.86273 9.1363L8.26171 8.73732L8.66068 8.33835C7.6494 7.32706 6.00979 7.32706 4.9985 8.33835L5.39748 8.73732ZM8.26171 8.73732L7.86273 9.1363C8.43332 9.70688 8.43332 10.632 7.86273 11.2026L8.26171 11.6015L8.66068 12.0005C9.67196 10.9892 9.67196 9.34963 8.66068 8.33835L8.26171 8.73732ZM8.26171 11.6015L7.86273 11.2026C7.29214 11.7732 6.36704 11.7732 5.79646 11.2026L5.39748 11.6015L4.99851 12.0005C6.00979 13.0118 7.6494 13.0118 8.66068 12.0005L8.26171 11.6015ZM5.39748 11.6015L5.79646 11.2026C5.22587 10.632 5.22587 9.70688 5.79645 9.1363L5.39748 8.73732L4.9985 8.33835C3.98722 9.34963 3.98722 10.9892 4.99851 12.0005L5.39748 11.6015Z" fill="white"/>
</svg>
