<svg width="15" height="15" viewBox="0 0 15 15" fill="none" xmlns="http://www.w3.org/2000/svg">
<path d="M12.1501 7.84651C12.2245 7.63663 12.1148 7.40612 11.9049 7.33164C11.695 7.25717 11.4645 7.36694 11.39 7.57682L12.1501 7.84651ZM10.2668 11.9481L10.6468 12.083L10.2668 11.9481ZM9.25294 12.8259L9.33203 13.2213L9.25294 12.8259ZM0.403048 14.5959L0.00621451 14.5243C-0.0174713 14.6557 0.0253708 14.7903 0.120638 14.8837C0.215905 14.9772 0.351254 15.0175 0.482129 14.9913L0.403048 14.5959ZM2.01806 5.63994L2.41489 5.7115L2.01806 5.63994ZM2.94978 4.58438L3.07005 4.96925H3.07005L2.94978 4.58438ZM7.40756 3.61378C7.62013 3.54735 7.73859 3.32119 7.67217 3.10863C7.60574 2.89606 7.37958 2.7776 7.16702 2.84402L7.40756 3.61378ZM0.278017 14.1507C0.120544 14.3082 0.120544 14.5635 0.278017 14.7209C0.43549 14.8784 0.690804 14.8784 0.848276 14.7209L0.278017 14.1507ZM4.69064 10.8786C4.84812 10.7211 4.84812 10.4658 4.69064 10.3083C4.53317 10.1508 4.27786 10.1508 4.12039 10.3083L4.69064 10.8786ZM14.3316 4.50969L14.6168 4.22456L14.3316 4.50969ZM14.3316 5.79048L14.0465 5.50535L14.3316 5.79048ZM9.20847 0.667323L8.92334 0.382193L8.92334 0.382193L9.20847 0.667323ZM10.4893 0.667323L10.2041 0.952453L10.4893 0.667323ZM7.60749 3.5491L7.89262 3.26397L7.60749 3.5491ZM7.60749 2.26831L7.89262 2.55344L7.60749 2.26831ZM11.4499 7.39147L11.1647 7.6766L11.4499 7.39147ZM12.7306 7.39147L13.0158 7.6766L12.7306 7.39147ZM11.7701 7.71166L11.39 7.57682L9.88678 11.8133L10.2668 11.9481L10.6468 12.083L12.1501 7.84651L11.7701 7.71166ZM9.25294 12.8259L9.17386 12.4305L0.323967 14.2005L0.403048 14.5959L0.482129 14.9913L9.33203 13.2213L9.25294 12.8259ZM0.403048 14.5959L0.799882 14.6675L2.41489 5.7115L2.01806 5.63994L1.62122 5.56838L0.00621451 14.5243L0.403048 14.5959ZM2.94978 4.58438L3.07005 4.96925L7.40756 3.61378L7.28729 3.2289L7.16702 2.84402L2.8295 4.1995L2.94978 4.58438ZM2.01806 5.63994L2.41489 5.7115C2.47803 5.36139 2.73049 5.07537 3.07005 4.96925L2.94978 4.58438L2.8295 4.1995C2.20326 4.3952 1.73766 4.92269 1.62122 5.56838L2.01806 5.63994ZM10.2668 11.9481L9.88678 11.8133C9.77434 12.1302 9.50358 12.3646 9.17386 12.4305L9.25294 12.8259L9.33203 13.2213C9.94009 13.0997 10.4394 12.6674 10.6468 12.083L10.2668 11.9481ZM0.563147 14.4358L0.848276 14.7209L4.69064 10.8786L4.40552 10.5934L4.12039 10.3083L0.278017 14.1507L0.563147 14.4358ZM11.4499 7.39147L11.735 7.10634L7.89262 3.26397L7.60749 3.5491L7.32236 3.83423L11.1647 7.6766L11.4499 7.39147ZM7.60749 2.26831L7.89262 2.55344L9.4936 0.952453L9.20847 0.667323L8.92334 0.382193L7.32236 1.98318L7.60749 2.26831ZM10.4893 0.667323L10.2041 0.952453L14.0465 4.79482L14.3316 4.50969L14.6168 4.22456L10.7744 0.382193L10.4893 0.667323ZM14.3316 5.79048L14.0465 5.50535L12.4455 7.10634L12.7306 7.39147L13.0158 7.6766L14.6168 6.07561L14.3316 5.79048ZM14.3316 4.50969L14.0465 4.79482C14.2427 4.99103 14.2427 5.30914 14.0465 5.50535L14.3316 5.79048L14.6168 6.07561C15.1279 5.56446 15.1279 4.73571 14.6168 4.22456L14.3316 4.50969ZM9.20847 0.667323L9.4936 0.952453C9.68981 0.756245 10.0079 0.756245 10.2041 0.952453L10.4893 0.667323L10.7744 0.382193C10.2632 -0.12896 9.4345 -0.128959 8.92334 0.382193L9.20847 0.667323ZM7.60749 3.5491L7.89262 3.26397C7.69641 3.06776 7.69641 2.74965 7.89262 2.55344L7.60749 2.26831L7.32236 1.98318C6.8112 2.49433 6.8112 3.32308 7.32236 3.83423L7.60749 3.5491ZM11.4499 7.39147L11.1647 7.6766C11.6759 8.18775 12.5046 8.18775 13.0158 7.6766L12.7306 7.39147L12.4455 7.10634C12.2493 7.30254 11.9312 7.30255 11.735 7.10634L11.4499 7.39147ZM4.72571 7.71166L5.01084 7.99679C5.56073 7.44691 6.45227 7.44691 7.00216 7.99679L7.28729 7.71166L7.57242 7.42654C6.70759 6.5617 5.30542 6.5617 4.44058 7.42654L4.72571 7.71166ZM7.28729 7.71166L7.00216 7.99679C7.55205 8.54668 7.55205 9.43823 7.00216 9.98811L7.28729 10.2732L7.57242 10.5584C8.43725 9.69354 8.43725 8.29137 7.57242 7.42654L7.28729 7.71166ZM7.28729 10.2732L7.00216 9.98811C6.45227 10.538 5.56073 10.538 5.01084 9.98811L4.72571 10.2732L4.44058 10.5584C5.30542 11.4232 6.70759 11.4232 7.57242 10.5584L7.28729 10.2732ZM4.72571 10.2732L5.01084 9.98811C4.46095 9.43823 4.46095 8.54668 5.01084 7.99679L4.72571 7.71166L4.44058 7.42654C3.57575 8.29137 3.57575 9.69354 4.44058 10.5584L4.72571 10.2732Z" fill="white"/>
</svg>
