<svg width="16" height="16" viewBox="0 0 16 16" fill="none" xmlns="http://www.w3.org/2000/svg">
<path d="M0.857422 6.87891C0.857422 3.59033 3.53076 0.916992 6.81934 0.916992C10.1079 0.916992 12.7812 3.59033 12.7812 6.87891C12.7812 8.16064 12.3638 9.34717 11.668 10.3066L15.0151 13.6611C15.2129 13.8662 15.3154 14.1372 15.3154 14.4302C15.3154 15.0381 14.8687 15.5068 14.2461 15.5068C13.9604 15.5068 13.6748 15.4116 13.4697 15.1992L10.1006 11.8301C9.16309 12.4673 8.04248 12.8408 6.81934 12.8408C3.53076 12.8408 0.857422 10.1675 0.857422 6.87891ZM2.41016 6.87891C2.41016 9.31055 4.38037 11.2881 6.81934 11.2881C9.25098 11.2881 11.2285 9.31055 11.2285 6.87891C11.2285 4.44727 9.25098 2.46973 6.81934 2.46973C4.38037 2.46973 2.41016 4.44727 2.41016 6.87891Z" fill="#6B6B75"/>
</svg>
