<svg width="7" height="7" viewBox="0 0 7 7" fill="none" xmlns="http://www.w3.org/2000/svg">
<path d="M3.62385 0.0403954L3.74396 0.081411L3.82697 0.130239C3.90162 0.185254 3.95408 0.255793 3.99299 0.314809C4.04657 0.396117 4.10474 0.503757 4.16877 0.623403L4.61701 1.46227C4.7043 1.62538 4.7236 1.65686 4.74494 1.67907C4.76966 1.70477 4.79957 1.72543 4.83185 1.74059C4.8597 1.75358 4.89615 1.76215 5.07795 1.79235L6.05939 1.95543C6.2109 1.9806 6.34506 2.00282 6.44807 2.02965C6.54507 2.05496 6.67527 2.09839 6.77033 2.20543C6.88935 2.33973 6.94046 2.52213 6.90803 2.6986C6.882 2.83939 6.79253 2.94417 6.72248 3.01598C6.64808 3.09216 6.54438 3.18083 6.42756 3.28063L5.7674 3.84411C5.58417 4.00065 5.54934 4.03613 5.5301 4.06969C5.5079 4.10873 5.49458 4.15279 5.49201 4.19762C5.4899 4.23639 5.50023 4.28471 5.57014 4.51696L5.85139 5.44957C5.90417 5.62493 5.94969 5.77549 5.97443 5.89391C5.99661 6.00026 6.01963 6.1557 5.95393 6.29918C5.87416 6.47266 5.71413 6.59664 5.52619 6.63024C5.37087 6.65784 5.22712 6.5955 5.12971 6.54723C5.02129 6.49348 4.88686 6.41115 4.73029 6.31579L3.83381 5.76989C3.64059 5.6522 3.59908 5.63147 3.5633 5.6234C3.52178 5.61417 3.47789 5.61425 3.43635 5.6234C3.40051 5.63141 3.35926 5.65209 3.16584 5.76989L2.26936 6.31579C2.11298 6.41103 1.9783 6.49345 1.86994 6.54723C1.7726 6.59548 1.62875 6.65769 1.47346 6.63024C1.28529 6.59677 1.12556 6.47282 1.04572 6.29918C0.979821 6.1556 1.00302 6.00034 1.02521 5.89391C1.04996 5.77552 1.09551 5.62484 1.14826 5.44957L1.42951 4.51696C1.49935 4.28493 1.50975 4.23638 1.50764 4.19762C1.50508 4.15277 1.49175 4.10875 1.46955 4.06969C1.45035 4.03601 1.41615 4.00122 1.23225 3.84411L0.572089 3.28063C0.455085 3.18067 0.351666 3.09225 0.277167 3.01598C0.207055 2.94416 0.117703 2.83968 0.0916206 2.6986C0.0591237 2.52208 0.110255 2.33977 0.229316 2.20543C0.324456 2.09859 0.454684 2.05491 0.551582 2.02965C0.654606 2.00286 0.788846 1.98058 0.940253 1.95543L1.9217 1.79235C2.10355 1.76214 2.13995 1.75363 2.16779 1.74059C2.19988 1.72545 2.23012 1.70464 2.25471 1.67907C2.27588 1.65688 2.29593 1.6243 2.38264 1.46227L2.83088 0.623403C2.89482 0.503913 2.95313 0.396029 3.00666 0.314809C3.05863 0.236054 3.13503 0.137076 3.25568 0.081411C3.37164 0.0281222 3.50133 0.0137569 3.62385 0.0403954Z" fill="#775DFF"/>
</svg>
