<svg width="200" height="158" viewBox="0 0 200 158" fill="none" xmlns="http://www.w3.org/2000/svg">
<path d="M102.663 157.452C81.7927 157.452 64.8736 153.364 64.8736 148.32C64.8736 143.276 81.7927 139.187 102.663 139.187C123.534 139.187 140.453 143.276 140.453 148.32C140.453 153.364 123.534 157.452 102.663 157.452Z" fill="black"/>
<path d="M135.625 0C159.133 0 178.19 19.0565 178.19 42.5639V81.5243C178.19 105.032 159.133 124.089 135.625 124.089C122.498 124.089 110.759 118.146 102.951 108.805C95.1434 118.146 83.4052 124.089 70.2784 124.089C46.7706 124.089 27.7139 105.032 27.7139 81.5243V42.5639C27.714 19.0566 46.7707 0.000101279 70.2784 0C83.4051 0 95.1434 5.94263 102.951 15.2836C110.759 5.9424 122.498 4.06037e-05 135.625 0Z" fill="#775DFF"/>
<path d="M104.401 107.593C111.865 116.523 123.081 122.199 135.625 122.199V124.089C122.498 124.089 110.759 118.146 102.951 108.805C95.1434 118.146 83.4052 124.089 70.2784 124.089V122.199C82.8218 122.199 94.0373 116.523 101.502 107.593L102.951 105.858L104.401 107.593ZM176.301 81.5243V42.5639C176.301 20.1001 158.089 1.88946 135.625 1.88946C123.082 1.8895 111.865 7.56517 104.401 16.4953L102.951 18.2297L101.502 16.4953C94.0373 7.56536 82.8217 1.88946 70.2784 1.88946C47.9898 1.88956 29.8881 19.8166 29.6064 42.0381L29.6034 42.5639V81.5243C29.6034 103.988 47.8142 122.199 70.2784 122.199V124.089C46.7706 124.089 27.7139 105.032 27.7139 81.5243V42.5639C27.714 19.0566 46.7707 0.000101279 70.2784 0C83.4051 0 95.1434 5.94263 102.951 15.2836C110.759 5.9424 122.498 4.06037e-05 135.625 0C159.133 0 178.19 19.0565 178.19 42.5639V81.5243C178.19 105.032 159.133 124.089 135.625 124.089V122.199C158.089 122.199 176.301 103.988 176.301 81.5243Z" fill="black"/>
<path d="M118.093 31.4883C128.702 31.4883 137.303 39.6657 137.303 49.7531C137.303 59.8405 128.702 68.0179 118.093 68.0179C111.771 68.0179 106.163 65.1136 102.662 60.6322C99.1615 65.1136 93.5533 68.0179 87.2313 68.0179C76.622 68.0179 68.0215 59.8405 68.0215 49.7531C68.0215 39.6657 76.622 31.4883 87.2313 31.4883C93.5532 31.4883 99.1614 34.3922 102.662 38.8733C106.163 34.3922 111.771 31.4883 118.093 31.4883Z" fill="white"/>
<path d="M104.151 59.4692C107.296 63.4944 112.356 66.1284 118.093 66.1284V68.0179C111.771 68.0179 106.163 65.1136 102.662 60.6322C99.1615 65.1136 93.5533 68.0179 87.2313 68.0179V66.1284C92.9687 66.1284 98.0286 63.4944 101.173 59.4692L102.662 57.5631L104.151 59.4692ZM135.413 49.7531C135.413 40.9379 127.987 33.6103 118.544 33.3833L118.093 33.3777C112.356 33.3777 107.296 36.0114 104.151 40.0364L102.662 41.9424L101.173 40.0364C98.1269 36.1372 93.2829 33.5434 87.767 33.3851L87.2313 33.3777C77.5746 33.3777 69.911 40.7979 69.911 49.7531C69.911 58.7083 77.5746 66.1284 87.2313 66.1284V68.0179C76.622 68.0179 68.0215 59.8405 68.0215 49.7531C68.0215 39.6657 76.622 31.4883 87.2313 31.4883C93.5532 31.4883 99.1614 34.3922 102.662 38.8733C106.163 34.3922 111.771 31.4883 118.093 31.4883C128.702 31.4883 137.303 39.6657 137.303 49.7531C137.303 59.8405 128.702 68.0179 118.093 68.0179V66.1284C127.599 66.1284 135.173 58.9385 135.408 50.1719L135.413 49.7531Z" fill="black"/>
<path d="M118.094 58.5734C113.05 58.5734 108.962 54.4847 108.962 49.441C108.962 44.3973 113.05 40.3086 118.094 40.3086C123.138 40.3086 127.227 44.3973 127.227 49.441C127.227 54.4847 123.138 58.5734 118.094 58.5734Z" fill="black"/>
<path d="M87.2327 58.5734C82.189 58.5734 78.1002 54.4847 78.1002 49.441C78.1002 44.3973 82.189 40.3086 87.2327 40.3086C92.2765 40.3086 96.3652 44.3973 96.3652 49.441C96.3652 54.4847 92.2765 58.5734 87.2327 58.5734Z" fill="black"/>
<path d="M36.6429 79.8715C43.5839 76.901 58.3933 74.0977 71.6924 83.1782C72.7697 83.9137 73.0469 85.3836 72.3114 86.4608C71.5988 87.5041 70.1972 87.7967 69.1311 87.1455L69.0288 87.0792L68.4527 86.6951C56.3796 78.8395 42.8613 82.0201 37.5635 84.6468C36.8456 85.0309 35.9522 85.0303 35.2177 84.5817L35.1154 84.5153L34.5393 84.1313C22.4215 76.2466 8.84738 79.4797 3.59116 82.1119C2.42483 82.696 1.0056 82.2236 0.421493 81.0573C-0.16242 79.8911 0.309367 78.4724 1.4754 77.8883C7.56733 74.8375 22.7733 71.1461 36.6429 79.8715Z" fill="black"/>
<path d="M47.2373 91.9501C47.2373 98.2112 42.1616 103.287 35.9004 103.287C29.6392 103.287 24.5635 98.2112 24.5635 91.9501C24.5635 85.6889 29.6392 80.6133 35.9004 80.6133C42.1616 80.6133 47.2373 85.6889 47.2373 91.9501Z" fill="white"/>
<path d="M45.3478 91.9501C45.3478 86.7324 41.1181 82.5027 35.9004 82.5027C30.6827 82.5027 26.453 86.7324 26.453 91.9501C26.453 97.1677 30.6827 101.397 35.9004 101.397V103.287C29.6392 103.287 24.5635 98.2112 24.5635 91.9501C24.5635 85.6889 29.6392 80.6133 35.9004 80.6133C42.1616 80.6133 47.2373 85.6889 47.2373 91.9501C47.2373 98.2112 42.1616 103.287 35.9004 103.287V101.397C41.1181 101.397 45.3478 97.1677 45.3478 91.9501Z" fill="black"/>
<path d="M193.938 81.3164L159.374 83.4118L158.763 76.4433L193.327 74.3479L193.938 81.3164Z" fill="white"/>
<path d="M163.4 85.3809C159.08 85.5685 155.408 83.3907 155.15 80.4562C154.889 77.4752 158.251 74.8418 162.659 74.5745L196.726 72.5093C197.972 72.4337 199.043 73.0559 199.117 73.8988C199.191 74.7417 198.24 75.4863 196.994 75.5619L195.017 75.6817L195.428 80.372L197.405 80.2522C198.651 80.1766 199.722 80.7988 199.796 81.6416C199.87 82.4846 198.919 83.2292 197.673 83.3048L163.605 85.3701L163.4 85.3809ZM191.406 75.9007L162.926 77.6272C161.011 77.7433 159.551 78.8875 159.664 80.1825C159.774 81.4372 161.322 82.3733 163.159 82.325L163.338 82.3174L191.817 80.5909L191.406 75.9007Z" fill="black"/>
<path d="M194.009 71.7969L160.884 73.805L160.273 66.8365L193.398 64.8284L194.009 71.7969Z" fill="white"/>
<path d="M165.121 75.7652C160.997 75.941 157.481 73.7537 157.223 70.8191C156.962 67.8382 160.162 65.2146 164.371 64.9594L196.898 62.9875C198.088 62.9153 199.113 63.5403 199.187 64.3831C199.261 65.2261 198.356 65.9679 197.166 66.0401L195.279 66.1545L195.69 70.8448L197.577 70.7303C198.767 70.6582 199.792 71.2832 199.866 72.126C199.94 72.969 199.035 73.7108 197.845 73.783L165.318 75.7549L165.121 75.7652ZM191.831 66.3635L164.639 68.012C162.81 68.1229 161.42 69.2629 161.533 70.5579C161.643 71.8126 163.125 72.7527 164.88 72.7094L165.05 72.7023L192.242 71.0538L191.831 66.3635Z" fill="black"/>
<path d="M189.579 91.9501C189.579 98.2112 184.503 103.287 178.242 103.287C171.981 103.287 166.905 98.2112 166.905 91.9501C166.905 85.6889 171.981 80.6133 178.242 80.6133C184.503 80.6133 189.579 85.6889 189.579 91.9501Z" fill="white"/>
<path d="M187.69 91.9501C187.69 86.7324 183.46 82.5027 178.242 82.5027C173.025 82.5027 168.795 86.7324 168.795 91.9501C168.795 97.1677 173.025 101.397 178.242 101.397V103.287C171.981 103.287 166.905 98.2112 166.905 91.9501C166.905 85.6889 171.981 80.6133 178.242 80.6133C184.503 80.6133 189.579 85.6889 189.579 91.9501C189.579 98.2112 184.503 103.287 178.242 103.287V101.397C183.46 101.397 187.69 97.1677 187.69 91.9501Z" fill="black"/>
</svg>
