<svg width="24" height="24" viewBox="0 0 24 24" fill="none" xmlns="http://www.w3.org/2000/svg">
<path d="M10.3357 2.96375C10.8509 2.00101 11.1085 1.51964 11.4512 1.36172C11.7497 1.22415 12.0936 1.22415 12.3921 1.36172C12.7348 1.51964 12.9924 2.00101 13.5076 2.96374L14.939 5.63866C15.2455 6.2115 15.3988 6.49793 15.614 6.72174C15.8046 6.91999 16.03 7.08158 16.2789 7.19849C16.56 7.33048 16.8805 7.38371 17.5214 7.49018L20.6327 8.00701C21.8473 8.20877 22.4547 8.30965 22.7188 8.60774C22.9485 8.86685 23.0459 9.21732 22.983 9.55778C22.9106 9.94945 22.4425 10.3493 21.5063 11.1491L19.4855 12.8754C18.8397 13.4271 18.5168 13.703 18.3221 14.0454C18.15 14.3481 18.0506 14.6866 18.0317 15.0342C18.0102 15.4276 18.1326 15.8342 18.3774 16.6476L19.2365 19.5017C19.6567 20.8976 19.8668 21.5956 19.6893 21.9819C19.5355 22.3167 19.2274 22.5549 18.8646 22.6194C18.4461 22.6939 17.8235 22.3147 16.5784 21.5563L13.793 19.8598C13.1131 19.4457 12.7732 19.2387 12.4097 19.1578C12.0883 19.0863 11.755 19.0863 11.4335 19.1578C11.0701 19.2387 10.7301 19.4457 10.0503 19.8598L7.26484 21.5563C6.01976 22.3147 5.39722 22.6939 4.97866 22.6194C4.61591 22.5549 4.30779 22.3167 4.15396 21.9819C3.97647 21.5956 4.18657 20.8976 4.60676 19.5017L5.46585 16.6476C5.71067 15.8342 5.83308 15.4276 5.81163 15.0342C5.79267 14.6866 5.69323 14.3481 5.52115 14.0454C5.32647 13.703 5.00356 13.4271 4.35774 12.8754L2.33695 11.1491C1.40079 10.3493 0.932708 9.94945 0.860295 9.55778C0.79735 9.21732 0.894794 8.86685 1.12444 8.60774C1.38863 8.30965 1.99593 8.20877 3.21055 8.00701L6.3219 7.49018C6.96283 7.38371 7.28329 7.33048 7.56433 7.19849C7.81328 7.08158 8.03866 6.91999 8.22928 6.72174C8.44449 6.49793 8.59776 6.2115 8.9043 5.63866L10.3357 2.96375Z" stroke="#6B6B75" stroke-width="0.913574" stroke-linecap="round" stroke-linejoin="round"/>
</svg>
