<svg width="100" height="106" viewBox="0 0 100 106" fill="none" xmlns="http://www.w3.org/2000/svg">
<path d="M49.8084 105.318C35.9387 105.318 24.695 102.601 24.695 99.2488C24.695 95.8969 35.9387 93.1797 49.8084 93.1797C63.6782 93.1797 74.9219 95.8969 74.9219 99.2488C74.9219 102.601 63.6782 105.318 49.8084 105.318Z" fill="black"/>
<path d="M49.8084 105.318C35.9387 105.318 24.695 102.601 24.695 99.2488C24.695 95.8969 35.9387 93.1797 49.8084 93.1797C63.6782 93.1797 74.9219 95.8969 74.9219 99.2488C74.9219 102.601 63.6782 105.318 49.8084 105.318Z" fill="black"/>
<path d="M71.7131 0.679688C87.3353 0.679688 99.9999 13.344 100 28.9662V54.8579C100 70.4802 87.3353 83.1448 71.7131 83.1448C62.9894 83.1448 55.1884 79.1954 49.9996 72.9875C44.8108 79.1953 37.0101 83.1448 28.2865 83.1448C12.6643 83.1448 0 70.4801 0 54.8579V28.9662C7.66128e-05 13.344 12.6644 0.679755 28.2865 0.679688C37.01 0.679688 44.8108 4.62896 49.9996 10.8366C55.1884 4.6288 62.9895 0.679714 71.7131 0.679688Z" fill="#775DFF"/>
<path d="M50.963 72.1822C55.9235 78.117 63.3771 81.8891 71.7131 81.8892V83.1448C62.9894 83.1448 55.1884 79.1954 49.9996 72.9875C44.8108 79.1953 37.0101 83.1448 28.2865 83.1448V81.8892C36.6223 81.8892 44.0756 78.1169 49.0362 72.1822L49.9996 71.0296L50.963 72.1822ZM98.7443 54.8579V28.9662C98.7443 14.0375 86.6418 1.93536 71.7131 1.93536C63.3772 1.93539 55.9235 5.70724 50.963 11.6419L49.9996 12.7945L49.0362 11.6419C44.0757 5.70736 36.6223 1.93536 28.2865 1.93536C13.4745 1.93543 1.4449 13.8491 1.25772 28.6167L1.25567 28.9662V54.8579C1.25567 69.7867 13.3578 81.8891 28.2865 81.8892V83.1448C12.6643 83.1448 0 70.4801 0 54.8579V28.9662C7.66128e-05 13.344 12.6644 0.679755 28.2865 0.679688C37.01 0.679688 44.8108 4.62896 49.9996 10.8366C55.1884 4.6288 62.9895 0.679714 71.7131 0.679688C87.3353 0.679688 99.9999 13.344 100 28.9662V54.8579C100 70.4802 87.3353 83.1448 71.7131 83.1448V81.8892C86.6419 81.8892 98.7443 69.7867 98.7443 54.8579Z" fill="black"/>
<path d="M47.2971 35.0025C47.2971 28.2987 53.0126 22.8643 60.0631 22.8643C67.1136 22.8643 72.8291 28.2987 72.8291 35.0025C72.8291 41.7062 67.1136 47.1406 60.0631 47.1406C53.0126 47.1406 47.2971 41.7062 47.2971 35.0025Z" fill="white"/>
<path d="M48.5528 35.0025C48.5528 40.9538 53.6457 45.885 60.0631 45.885C66.4805 45.885 71.5734 40.9538 71.5734 35.0025C71.5734 29.0512 66.4805 24.12 60.0631 24.12L60.0631 22.8643L60.3926 22.8684C67.1813 23.0319 72.6531 28.2344 72.825 34.6894L72.8291 35.0025C72.8291 41.7062 67.1136 47.1406 60.0631 47.1406C53.0126 47.1406 47.2971 41.7062 47.2971 35.0025L47.3012 34.6894C47.4759 28.1304 53.1227 22.8643 60.0631 22.8643L60.0631 24.12C53.6457 24.12 48.5528 29.0512 48.5528 35.0025Z" fill="black"/>
<path d="M66.76 40.8608C63.4082 40.8608 60.6909 38.1436 60.6909 34.7917C60.6909 31.4399 63.4082 28.7227 66.76 28.7227C70.1119 28.7227 72.8291 31.4399 72.8291 34.7917C72.8291 38.1436 70.1119 40.8608 66.76 40.8608Z" fill="black"/>
<path d="M26.7874 35.0025C26.7874 28.2987 32.5029 22.8643 39.5533 22.8643C46.6038 22.8643 52.3193 28.2987 52.3193 35.0025C52.3193 41.7062 46.6038 47.1406 39.5533 47.1406C32.5029 47.1406 26.7874 41.7062 26.7874 35.0025Z" fill="white"/>
<path d="M28.043 35.0025C28.043 40.9538 33.1359 45.885 39.5533 45.885C45.9707 45.885 51.0637 40.9538 51.0637 35.0025C51.0637 29.0512 45.9707 24.12 39.5533 24.12L39.5533 22.8643L39.8828 22.8684C46.6716 23.0319 52.1434 28.2344 52.3152 34.6894L52.3193 35.0025C52.3193 41.7062 46.6038 47.1406 39.5533 47.1406C32.5029 47.1406 26.7874 41.7062 26.7874 35.0025L26.7914 34.6894C26.9661 28.1304 32.613 22.8643 39.5533 22.8643L39.5533 24.12C33.1359 24.12 28.043 29.0512 28.043 35.0025Z" fill="black"/>
<path d="M45.8323 40.8608C42.4804 40.8608 39.7632 38.1436 39.7632 34.7917C39.7632 31.4399 42.4804 28.7227 45.8323 28.7227C49.1841 28.7227 51.9014 31.4399 51.9014 34.7917C51.9014 38.1436 49.1841 40.8608 45.8323 40.8608Z" fill="black"/>
</svg>
