<svg width="100" height="106" viewBox="0 0 100 106" fill="none" xmlns="http://www.w3.org/2000/svg">
<path d="M49.8084 105.318C35.9387 105.318 24.695 102.601 24.695 99.2488C24.695 95.8969 35.9387 93.1797 49.8084 93.1797C63.6782 93.1797 74.9219 95.8969 74.9219 99.2488C74.9219 102.601 63.6782 105.318 49.8084 105.318Z" fill="black"/>
<path d="M49.8084 105.318C35.9387 105.318 24.695 102.601 24.695 99.2488C24.695 95.8969 35.9387 93.1797 49.8084 93.1797C63.6782 93.1797 74.9219 95.8969 74.9219 99.2488C74.9219 102.601 63.6782 105.318 49.8084 105.318Z" fill="black"/>
<path d="M71.7131 0.679688C87.3353 0.679688 99.9999 13.344 100 28.9662V54.8579C100 70.4802 87.3353 83.1448 71.7131 83.1448C62.9894 83.1448 55.1884 79.1954 49.9996 72.9875C44.8108 79.1953 37.0101 83.1448 28.2865 83.1448C12.6643 83.1448 0 70.4801 0 54.8579V28.9662C7.66128e-05 13.344 12.6644 0.679755 28.2865 0.679688C37.01 0.679688 44.8108 4.62896 49.9996 10.8366C55.1884 4.6288 62.9895 0.679714 71.7131 0.679688Z" fill="#775DFF"/>
<path d="M50.963 72.1822C55.9235 78.117 63.3771 81.8891 71.7131 81.8892V83.1448C62.9894 83.1448 55.1884 79.1954 49.9996 72.9875C44.8108 79.1953 37.0101 83.1448 28.2865 83.1448V81.8892C36.6223 81.8892 44.0756 78.1169 49.0362 72.1822L49.9996 71.0296L50.963 72.1822ZM98.7443 54.8579V28.9662C98.7443 14.0375 86.6418 1.93536 71.7131 1.93536C63.3772 1.93539 55.9235 5.70724 50.963 11.6419L49.9996 12.7945L49.0362 11.6419C44.0757 5.70736 36.6223 1.93536 28.2865 1.93536C13.4745 1.93543 1.4449 13.8491 1.25772 28.6167L1.25567 28.9662V54.8579C1.25567 69.7867 13.3578 81.8891 28.2865 81.8892V83.1448C12.6643 83.1448 0 70.4801 0 54.8579V28.9662C7.66128e-05 13.344 12.6644 0.679755 28.2865 0.679688C37.01 0.679688 44.8108 4.62896 49.9996 10.8366C55.1884 4.6288 62.9895 0.679714 71.7131 0.679688C87.3353 0.679688 99.9999 13.344 100 28.9662V54.8579C100 70.4802 87.3353 83.1448 71.7131 83.1448V81.8892C86.6419 81.8892 98.7443 69.7867 98.7443 54.8579Z" fill="black"/>
<path d="M60.0629 21.6094C67.1133 21.6094 72.8289 27.0438 72.8289 33.7475C72.8289 40.4513 67.1133 45.8857 60.0629 45.8857C55.8615 45.8857 52.1346 43.9556 49.8082 40.9775C47.4819 43.9556 43.755 45.8857 39.5536 45.8857C32.5031 45.8857 26.7876 40.4513 26.7876 33.7475C26.7876 27.0438 32.5031 21.6094 39.5536 21.6094C43.7548 21.6094 47.4819 23.5392 49.8082 26.5172C52.1346 23.5392 55.8616 21.6094 60.0629 21.6094Z" fill="white"/>
<path d="M50.7978 40.2045C52.8874 42.8796 56.2501 44.63 60.0629 44.63V45.8857C55.8615 45.8857 52.1346 43.9556 49.8082 40.9775C47.4819 43.9556 43.755 45.8857 39.5536 45.8857V44.63C43.3664 44.63 46.729 42.8796 48.8187 40.2045L49.8082 38.9378L50.7978 40.2045ZM71.5732 33.7475C71.5732 27.8893 66.6383 23.0196 60.3629 22.8687L60.0629 22.865C56.2501 22.865 52.8874 24.6153 50.7978 27.2901L49.8082 28.5569L48.8187 27.2901C46.7943 24.6989 43.5752 22.9751 39.9096 22.87L39.5536 22.865C33.1362 22.865 28.0433 27.7962 28.0433 33.7475C28.0433 39.6988 33.1362 44.63 39.5536 44.63V45.8857C32.5031 45.8857 26.7876 40.4513 26.7876 33.7475C26.7876 27.0438 32.5031 21.6094 39.5536 21.6094C43.7548 21.6094 47.4819 23.5392 49.8082 26.5172C52.1346 23.5392 55.8616 21.6094 60.0629 21.6094C67.1133 21.6094 72.8289 27.0438 72.8289 33.7475C72.8289 40.4513 67.1133 45.8857 60.0629 45.8857V44.63C66.38 44.63 71.4137 39.8518 71.5695 34.0259L71.5732 33.7475Z" fill="black"/>
<path d="M60.0628 39.6069C56.7109 39.6069 53.9937 36.8897 53.9937 33.5378C53.9937 30.186 56.7109 27.4687 60.0628 27.4687C63.4146 27.4687 66.1318 30.186 66.1318 33.5378C66.1318 36.8897 63.4146 39.6069 60.0628 39.6069Z" fill="black"/>
<path d="M39.5535 39.6069C36.2016 39.6069 33.4844 36.8897 33.4844 33.5378C33.4844 30.186 36.2016 27.4687 39.5535 27.4687C42.9053 27.4687 45.6226 30.186 45.6226 33.5378C45.6226 36.8897 42.9053 39.6069 39.5535 39.6069Z" fill="black"/>
<path d="M66.1318 50.7257C66.1318 52.9062 64.3515 54.6739 62.1555 54.6739C59.9594 54.6739 58.1792 52.9062 58.1792 50.7257C58.1792 48.5451 62.1555 42.1172 62.1555 42.1172C62.1555 42.1172 66.1318 48.5451 66.1318 50.7257Z" fill="white"/>
<path d="M64.8761 50.7258C64.8761 50.4538 64.7228 49.8493 64.3488 48.9371C63.998 48.0814 63.5216 47.1137 63.0335 46.1908C62.7319 45.6205 62.4291 45.0751 62.1555 44.5934C61.8819 45.0751 61.5791 45.6205 61.2775 46.1908C60.7894 47.1137 60.313 48.0814 59.9622 48.9371C59.5882 49.8493 59.4349 50.4538 59.4349 50.7258C59.435 52.2044 60.6446 53.4182 62.1555 53.4182V54.6739L61.9507 54.6686C59.9177 54.5662 58.2876 52.9477 58.1845 50.929L58.1792 50.7258C58.1792 48.5453 62.1555 42.1172 62.1555 42.1172C62.1558 42.1178 66.1318 48.5454 66.1318 50.7258L66.1265 50.929C66.0199 53.015 64.2829 54.6739 62.1555 54.6739V53.4182C63.6664 53.4182 64.876 52.2044 64.8761 50.7258Z" fill="black"/>
</svg>
