<svg width="100" height="108" viewBox="0 0 100 108" fill="none" xmlns="http://www.w3.org/2000/svg">
<path d="M49.808 107.439C35.9382 107.439 24.6945 104.722 24.6945 101.37C24.6945 98.018 35.9382 95.3008 49.808 95.3008C63.6777 95.3008 74.9214 98.018 74.9214 101.37C74.9214 104.722 63.6777 107.439 49.808 107.439Z" fill="black"/>
<path d="M49.808 107.439C35.9382 107.439 24.6945 104.722 24.6945 101.37C24.6945 98.018 35.9382 95.3008 49.808 95.3008C63.6777 95.3008 74.9214 98.018 74.9214 101.37C74.9214 104.722 63.6777 107.439 49.808 107.439Z" fill="black"/>
<path d="M71.7131 2.79688C87.3353 2.79688 99.9999 15.4612 100 31.0834V56.9751C100 72.5974 87.3353 85.262 71.7131 85.262C62.9894 85.262 55.1884 81.3126 49.9996 75.1047C44.8108 81.3125 37.0101 85.262 28.2865 85.262C12.6643 85.262 0 72.5973 0 56.9751V31.0834C7.66128e-05 15.4612 12.6644 2.79694 28.2865 2.79688C37.01 2.79688 44.8108 6.74614 49.9996 12.9538C55.1884 6.74599 62.9895 2.7969 71.7131 2.79688Z" fill="#775DFF"/>
<path d="M50.963 74.2994C55.9235 80.2342 63.3771 84.0063 71.7131 84.0064V85.262C62.9894 85.262 55.1884 81.3126 49.9996 75.1047C44.8108 81.3125 37.0101 85.262 28.2865 85.262V84.0064C36.6223 84.0064 44.0756 80.2341 49.0362 74.2994L49.9996 73.1468L50.963 74.2994ZM98.7443 56.9751V31.0834C98.7443 16.1547 86.6418 4.05255 71.7131 4.05255C63.3772 4.05257 55.9235 7.82443 50.963 13.7591L49.9996 14.9117L49.0362 13.7591C44.0757 7.82455 36.6223 4.05255 28.2865 4.05255C13.4745 4.05261 1.4449 15.9663 1.25772 30.7339L1.25567 31.0834V56.9751C1.25567 71.9039 13.3578 84.0063 28.2865 84.0064V85.262C12.6643 85.262 0 72.5973 0 56.9751V31.0834C7.66128e-05 15.4612 12.6644 2.79694 28.2865 2.79688C37.01 2.79688 44.8108 6.74614 49.9996 12.9538C55.1884 6.74599 62.9895 2.7969 71.7131 2.79688C87.3353 2.79688 99.9999 15.4612 100 31.0834V56.9751C100 72.5974 87.3353 85.262 71.7131 85.262V84.0064C86.6419 84.0064 98.7443 71.9039 98.7443 56.9751Z" fill="black"/>
<path d="M60.0624 23.7266C67.1129 23.7266 72.8284 29.161 72.8284 35.8647C72.8284 42.5684 67.1129 48.0029 60.0624 48.0029C55.861 48.0029 52.1341 46.0728 49.8078 43.0946C47.4814 46.0728 43.7545 48.0029 39.5531 48.0029C32.5026 48.0029 26.7871 42.5684 26.7871 35.8647C26.7871 29.161 32.5026 23.7266 39.5531 23.7266C43.7544 23.7266 47.4814 25.6564 49.8078 28.6344C52.1341 25.6564 55.8611 23.7266 60.0624 23.7266Z" fill="white"/>
<path d="M50.7973 42.3217C52.8869 44.9967 56.2496 46.7472 60.0624 46.7472V48.0029C55.861 48.0029 52.1341 46.0728 49.8078 43.0946C47.4814 46.0728 43.7545 48.0029 39.5531 48.0029V46.7472C43.3659 46.7472 46.7286 44.9967 48.8182 42.3217L49.8078 41.055L50.7973 42.3217ZM71.5727 35.8647C71.5727 30.0065 66.6378 25.1368 60.3624 24.9859L60.0624 24.9822C56.2496 24.9822 52.8869 26.7325 50.7973 29.4073L49.8078 30.674L48.8182 29.4073C46.7939 26.816 43.5747 25.0923 39.9091 24.9871L39.5531 24.9822C33.1357 24.9822 28.0428 29.9134 28.0428 35.8647C28.0428 41.816 33.1357 46.7472 39.5531 46.7472V48.0029C32.5026 48.0029 26.7871 42.5684 26.7871 35.8647C26.7871 29.161 32.5026 23.7266 39.5531 23.7266C43.7544 23.7266 47.4814 25.6564 49.8078 28.6344C52.1341 25.6564 55.8611 23.7266 60.0624 23.7266C67.1129 23.7266 72.8284 29.161 72.8284 35.8647C72.8284 42.5684 67.1129 48.0029 60.0624 48.0029V46.7472C66.3795 46.7472 71.4132 41.969 71.569 36.1431L71.5727 35.8647Z" fill="black"/>
<path d="M60.0624 39.2131C58.0975 39.2131 56.5046 37.6203 56.5046 35.6554C56.5046 33.6905 58.0975 32.0977 60.0624 32.0977C62.0273 32.0977 63.6201 33.6905 63.6201 35.6554C63.6201 37.6203 62.0273 39.2131 60.0624 39.2131Z" fill="black"/>
<path d="M39.5531 39.2131C37.5882 39.2131 35.9954 37.6203 35.9954 35.6554C35.9954 33.6905 37.5882 32.0977 39.5531 32.0977C41.518 32.0977 43.1108 33.6905 43.1108 35.6554C43.1108 37.6203 41.518 39.2131 39.5531 39.2131Z" fill="black"/>
<path d="M89.7494 1.8125L89.4837 12.1742H86.8677L86.602 1.8125H89.7494ZM88.1961 16.7931C87.2356 16.7931 86.459 16.0165 86.4794 15.0763C86.459 14.1362 87.2356 13.38 88.1961 13.38C89.0954 13.38 89.8924 14.1362 89.8924 15.0763C89.8924 16.0165 89.0954 16.7931 88.1961 16.7931Z" fill="white"/>
<path d="M89.8922 15.0781C89.8922 14.138 89.0951 13.3818 88.1959 13.3818C87.2353 13.3818 86.4587 14.138 86.4791 15.0781C86.4587 16.0182 87.2353 16.7948 88.1959 16.7948C89.0951 16.7948 89.8922 16.0182 89.8922 15.0781ZM86.6017 1.81427L86.8674 12.176H89.4834L89.7491 1.81427H86.6017ZM91.1478 15.0781C91.1478 16.7117 89.7886 18.0505 88.1959 18.0505C86.5573 18.0505 85.1875 16.7207 85.2239 15.0507C85.2217 14.4436 85.4036 13.89 85.7139 13.4317H85.6436L85.3134 0.558594H91.0375L90.7072 13.4317H90.6377C90.9573 13.8995 91.1478 14.4643 91.1478 15.0781Z" fill="black"/>
</svg>
