<svg width="132" height="118" viewBox="0 0 132 118" fill="none" xmlns="http://www.w3.org/2000/svg">
<path d="M65.9023 117.345C51.9927 117.345 40.7167 114.62 40.7167 111.258C40.7167 107.897 51.9927 105.172 65.9023 105.172C79.8119 105.172 91.0879 107.897 91.0879 111.258C91.0879 114.62 79.8119 117.345 65.9023 117.345Z" fill="black"/>
<path d="M65.9023 117.345C51.9927 117.345 40.7167 114.62 40.7167 111.258C40.7167 107.897 51.9927 105.172 65.9023 105.172C79.8119 105.172 91.0879 107.897 91.0879 111.258C91.0879 114.62 79.8119 117.345 65.9023 117.345Z" fill="black"/>
<path d="M87.8708 12.4023C103.538 12.4023 116.239 25.1028 116.239 40.7696V66.7351C116.239 82.402 103.538 95.1028 87.8708 95.1028C79.1221 95.1027 71.2986 91.1421 66.0949 84.9164C60.8912 91.1419 53.068 95.1028 44.3195 95.1028C28.6523 95.1027 15.9517 82.4019 15.9517 66.7351V40.7696C15.9517 25.1028 28.6524 12.4024 44.3195 12.4023C53.068 12.4023 60.8912 16.3629 66.0949 22.5883C71.2986 16.3627 79.1221 12.4024 87.8708 12.4023Z" fill="#775DFF"/>
<path d="M67.0611 84.1089C72.0358 90.0606 79.5109 93.8435 87.8708 93.8435V95.1028C79.1221 95.1027 71.2986 91.1421 66.0949 84.9164C60.8912 91.1419 53.068 95.1028 44.3195 95.1028V93.8435C52.6792 93.8435 60.1539 90.0604 65.1287 84.1089L66.0949 82.9529L67.0611 84.1089ZM114.98 66.7351V40.7696C114.98 25.7983 102.842 13.6616 87.8708 13.6616C79.5109 13.6616 72.0358 17.4442 67.0611 23.3958L66.0949 24.5518L65.1287 23.3958C60.154 17.4444 52.6791 13.6616 44.3195 13.6616C29.4649 13.6617 17.4007 25.6093 17.213 40.4191L17.2109 40.7696V66.7351C17.2109 81.7065 29.3478 93.8434 44.3195 93.8435V95.1028C28.6523 95.1027 15.9517 82.4019 15.9517 66.7351V40.7696C15.9517 25.1028 28.6524 12.4024 44.3195 12.4023C53.068 12.4023 60.8912 16.3629 66.0949 22.5883C71.2986 16.3627 79.1221 12.4024 87.8708 12.4023C103.538 12.4023 116.239 25.1028 116.239 40.7696V66.7351C116.239 82.402 103.538 95.1028 87.8708 95.1028V93.8435C102.842 93.8435 114.98 81.7065 114.98 66.7351Z" fill="black"/>
<path d="M76.1863 34.6484C83.257 34.6484 88.989 40.0984 88.989 46.8212C88.989 53.5441 83.257 58.994 76.1863 58.994C71.9729 58.994 68.2353 57.0584 65.9022 54.0718C63.5692 57.0584 59.8315 58.994 55.6181 58.994C48.5474 58.994 42.8154 53.5441 42.8154 46.8212C42.8154 40.0984 48.5474 34.6484 55.6181 34.6484C59.8314 34.6484 63.5691 36.5838 65.9022 39.5703C68.2353 36.5838 71.973 34.6484 76.1863 34.6484Z" fill="white"/>
<path d="M66.8946 53.2966C68.9902 55.9793 72.3625 57.7348 76.1863 57.7348V58.994C71.9729 58.994 68.2353 57.0584 65.9022 54.0718C63.5692 57.0584 59.8315 58.994 55.6181 58.994V57.7348C59.4419 57.7348 62.8142 55.9793 64.9098 53.2966L65.9022 52.0263L66.8946 53.2966ZM87.7297 46.8212C87.7297 40.9462 82.7806 36.0627 76.4872 35.9114L76.1863 35.9077C72.3626 35.9077 68.9902 37.6629 66.8946 40.3454L65.9022 41.6157L64.9098 40.3454C62.8797 37.7467 59.6513 36.0181 55.9751 35.9126L55.6181 35.9077C49.1823 35.9077 44.0747 40.8529 44.0747 46.8212C44.0747 52.7895 49.1823 57.7347 55.6181 57.7348V58.994C48.5474 58.994 42.8154 53.5441 42.8154 46.8212C42.8154 40.0984 48.5474 34.6484 55.6181 34.6484C59.8314 34.6484 63.5691 36.5838 65.9022 39.5703C68.2353 36.5838 71.973 34.6484 76.1863 34.6484C83.257 34.6484 88.989 40.0984 88.989 46.8212C88.989 53.5441 83.257 58.994 76.1863 58.994V57.7348C82.5215 57.7348 87.5697 52.9429 87.726 47.1004L87.7297 46.8212Z" fill="black"/>
<path d="M76.1874 52.7001C72.8259 52.7001 70.1009 49.9752 70.1009 46.6137C70.1009 43.2523 72.8259 40.5273 76.1874 40.5273C79.5489 40.5273 82.2739 43.2523 82.2739 46.6137C82.2739 49.9752 79.5489 52.7001 76.1874 52.7001Z" fill="black"/>
<path d="M55.6181 52.7001C52.2566 52.7001 49.5316 49.9752 49.5316 46.6137C49.5316 43.2523 52.2566 40.5273 55.6181 40.5273C58.9796 40.5273 61.7046 43.2523 61.7046 46.6137C61.7046 49.9752 58.9796 52.7001 55.6181 52.7001Z" fill="black"/>
<path d="M57.2974 47.2458C55.7906 47.2458 54.569 46.0243 54.569 44.5174C54.569 43.0106 55.7906 41.7891 57.2974 41.7891C58.8043 41.7891 60.0259 43.0106 60.0259 44.5174C60.0259 46.0243 58.8043 47.2458 57.2974 47.2458Z" fill="white"/>
<path d="M77.4459 47.2458C75.939 47.2458 74.7174 46.0243 74.7174 44.5174C74.7174 43.0106 75.939 41.7891 77.4459 41.7891C78.9528 41.7891 80.1743 43.0106 80.1743 44.5174C80.1743 46.0243 78.9528 47.2458 77.4459 47.2458Z" fill="white"/>
<path d="M53.9397 51.4457C52.8965 51.4457 52.0508 50.6 52.0508 49.5568C52.0508 48.5136 52.8965 47.668 53.9397 47.668C54.9829 47.668 55.8286 48.5136 55.8286 49.5568C55.8286 50.6 54.9829 51.4457 53.9397 51.4457Z" fill="white"/>
<path d="M74.0876 51.4457C73.0444 51.4457 72.1987 50.6 72.1987 49.5568C72.1987 48.5136 73.0444 47.668 74.0876 47.668C75.1309 47.668 75.9766 48.5136 75.9766 49.5568C75.9766 50.6 75.1309 51.4457 74.0876 51.4457Z" fill="white"/>
<path d="M67.1624 71.379C67.1624 75.2041 64.5314 78.3049 61.2858 78.3049C58.0402 78.3049 55.4092 75.2041 55.4092 71.379C55.4092 67.554 58.0402 64.4531 61.2858 64.4531C64.5314 64.4531 67.1624 67.554 67.1624 71.379Z" fill="white"/>
<path d="M65.9032 71.379C65.9032 68.0475 63.6499 65.7124 61.2858 65.7124C58.9218 65.7124 56.6685 68.0475 56.6685 71.379C56.6685 74.7105 58.9218 77.0457 61.2858 77.0457V78.3049C58.0402 78.3049 55.4092 75.2041 55.4092 71.379C55.4092 67.554 58.0402 64.4531 61.2858 64.4531C64.5314 64.4531 67.1624 67.554 67.1624 71.379C67.1624 75.2041 64.5314 78.3049 61.2858 78.3049V77.0457C63.6499 77.0457 65.9032 74.7105 65.9032 71.379Z" fill="black"/>
<path d="M75.9774 71.379C75.9774 75.2041 73.3463 78.3049 70.1008 78.3049C66.8552 78.3049 64.2241 75.2041 64.2241 71.379C64.2241 67.554 66.8552 64.4531 70.1008 64.4531C73.3463 64.4531 75.9774 67.554 75.9774 71.379Z" fill="white"/>
<path d="M74.7181 71.379C74.7181 68.0475 72.4648 65.7124 70.1008 65.7124C67.7367 65.7124 65.4834 68.0475 65.4834 71.379C65.4834 74.7105 67.7367 77.0457 70.1008 77.0457V78.3049C66.8552 78.3049 64.2241 75.2041 64.2241 71.379C64.2241 67.554 66.8552 64.4531 70.1008 64.4531C73.3463 64.4531 75.9774 67.554 75.9774 71.379C75.9774 75.2041 73.3463 78.3049 70.1008 78.3049V77.0457C72.4648 77.0457 74.7181 74.7105 74.7181 71.379Z" fill="black"/>
<path d="M19.1147 0.652344L22.4116 10.3069L32.0664 13.6037L22.4116 16.9005L19.1147 28.806L15.8179 16.9005L6.16313 13.6037L15.8179 10.3069L19.1147 0.652344Z" fill="white"/>
<path d="M22.4116 16.9003L19.1147 28.8063L15.8179 16.9003L6.16301 13.6038L15.8179 10.3067L19.1147 0.652344L22.4116 10.3067L32.0665 13.6038L22.4116 16.9003ZM21.4197 11.2986L19.1147 4.54912L16.8098 11.2986L10.0602 13.6035L16.8541 15.9238L19.1147 24.0869L21.3754 15.9238L28.1693 13.6035L21.4197 11.2986Z" fill="black"/>
<path d="M119.729 29.6172L122.603 38.0327L131.019 40.9065L122.603 43.7802L119.729 54.1579L116.856 43.7802L108.44 40.9065L116.856 38.0327L119.729 29.6172Z" fill="white"/>
<path d="M122.603 43.7803L119.729 54.1579L116.856 43.7803L108.44 40.9064L116.856 38.0328L119.729 29.6172L122.603 38.0328L131.019 40.9064L122.603 43.7803ZM121.611 39.0247L119.729 33.5134L117.848 39.0247L112.337 40.9061L117.892 42.8035L119.729 49.4391L121.567 42.8035L127.122 40.9061L121.611 39.0247Z" fill="black"/>
<path d="M8.2832 18.2852L10.2231 23.9658L15.9038 25.9056L10.2231 27.8455L8.2832 34.8506L6.34333 27.8455L0.662567 25.9056L6.34333 23.9658L8.2832 18.2852Z" fill="white"/>
<path d="M10.2232 27.8454L8.2832 34.8508L6.34318 27.8454L0.66254 25.9057L6.34347 23.9657L8.2832 18.2852L10.2229 23.9657L15.9039 25.9057L10.2232 27.8454ZM9.23104 24.9576L8.2832 22.1819L7.33537 24.9576L4.55968 25.9054L7.37943 26.8688L8.2832 30.132L9.18698 26.8688L12.0067 25.9054L9.23104 24.9576Z" fill="black"/>
<path d="M111.544 22.0547L113.484 27.7353L119.165 29.6752L113.484 31.615L111.544 38.6201L109.604 31.615L103.923 29.6752L109.604 27.7353L111.544 22.0547Z" fill="white"/>
<path d="M113.484 31.6149L111.544 38.6203L109.604 31.6149L103.923 29.6752L109.604 27.7352L111.544 22.0547L113.484 27.7352L119.165 29.6752L113.484 31.6149ZM112.492 28.7271L111.544 25.9515L110.596 28.7271L107.82 29.6749L110.64 30.6384L111.544 33.9015L112.448 30.6384L115.267 29.6749L112.492 28.7271Z" fill="black"/>
</svg>
