<svg width="24" height="22" viewBox="0 0 24 22" fill="none" xmlns="http://www.w3.org/2000/svg">
<path d="M10.4138 1.96375C10.929 1.00101 11.1866 0.519636 11.5293 0.361722C11.8279 0.224151 12.1717 0.224151 12.4702 0.361722C12.8129 0.519636 13.0705 1.00101 13.5857 1.96374L15.0171 4.63866C15.3236 5.2115 15.4769 5.49793 15.6921 5.72174C15.8828 5.91999 16.1081 6.08158 16.3571 6.19849C16.6381 6.33048 16.9586 6.38371 17.5995 6.49018L20.7109 7.00701C21.9255 7.20877 22.5328 7.30965 22.797 7.60774C23.0266 7.86685 23.1241 8.21732 23.0611 8.55778C22.9887 8.94945 22.5206 9.34933 21.5845 10.1491L19.5637 11.8754C18.9178 12.4271 18.5949 12.703 18.4003 13.0454C18.2282 13.3481 18.1287 13.6866 18.1098 14.0342C18.0883 14.4276 18.2107 14.8342 18.4556 15.6476L19.3146 18.5017C19.7348 19.8976 19.9449 20.5956 19.7674 20.9819C19.6136 21.3167 19.3055 21.5549 18.9427 21.6194C18.5242 21.6939 17.9016 21.3147 16.6566 20.5563L13.8711 18.8598C13.1913 18.4457 12.8513 18.2387 12.4879 18.1578C12.1664 18.0863 11.8331 18.0863 11.5117 18.1578C11.1482 18.2387 10.8083 18.4457 10.1284 18.8598L7.34297 20.5563C6.09789 21.3147 5.47535 21.6939 5.05679 21.6194C4.69403 21.5549 4.38591 21.3167 4.23209 20.9819C4.05459 20.5956 4.26469 19.8976 4.68489 18.5017L5.54397 15.6476C5.78879 14.8342 5.9112 14.4276 5.88975 14.0342C5.8708 13.6866 5.77136 13.3481 5.59928 13.0454C5.4046 12.703 5.08169 12.4271 4.43586 11.8754L2.41507 10.1491C1.47891 9.34933 1.01083 8.94945 0.93842 8.55778C0.875475 8.21732 0.972919 7.86685 1.20256 7.60774C1.46675 7.30965 2.07406 7.20877 3.28867 7.00701L6.40003 6.49018C7.04095 6.38371 7.36141 6.33048 7.64246 6.19849C7.8914 6.08158 8.11678 5.91999 8.30741 5.72174C8.52262 5.49793 8.67589 5.2115 8.98242 4.63866L10.4138 1.96375Z" fill="#8670FF"/>
</svg>
