<svg width="200" height="173" viewBox="0 0 200 173" fill="none" xmlns="http://www.w3.org/2000/svg">
<path d="M89.7513 172.42C69.1454 172.42 52.441 168.383 52.441 163.403C52.441 158.424 69.1454 154.387 89.7513 154.387C110.357 154.387 127.062 158.424 127.062 163.403C127.062 168.383 110.357 172.42 89.7513 172.42Z" fill="black"/>
<path d="M105.544 13.1317C128.536 9.96248 149.744 26.032 152.914 49.0241L158.166 87.1303C161.335 110.122 145.265 131.331 122.273 134.5C109.434 136.27 97.1518 132.04 88.2558 123.956C81.8784 134.145 71.1989 141.54 58.3601 143.31C35.368 146.479 14.16 130.409 10.9908 107.417L5.73832 69.3105C2.56926 46.3185 18.6388 25.1106 41.6308 21.9414C54.4696 20.1717 66.7516 24.4015 75.6476 32.4851C82.0249 22.2961 92.7051 14.9014 105.544 13.1317Z" fill="#775DFF"/>
<path d="M89.5103 122.575C98.0149 130.304 109.75 134.343 122.019 132.652L122.273 134.5C109.434 136.27 97.1518 132.04 88.2558 123.956C81.8784 134.145 71.1989 141.54 58.3601 143.31L58.1053 141.462C70.3735 139.771 80.5778 132.707 86.6745 122.966L87.8586 121.074L89.5103 122.575ZM156.318 87.385L151.066 49.2788C148.061 27.4791 128.086 12.1914 106.313 14.9118L105.799 14.9797C93.5304 16.6708 83.3255 23.7341 77.2289 33.4748L76.0448 35.3667L74.393 33.8657C66.0213 26.2585 54.5195 22.2256 42.46 23.7145L41.8856 23.7894C20.0859 26.7943 4.79815 46.7687 7.51847 68.541L7.58636 69.0558L12.8389 107.162C15.8674 129.133 36.1339 144.49 58.1053 141.462L58.3601 143.31C35.368 146.479 14.16 130.409 10.9908 107.417L5.73832 69.3105C2.56926 46.3185 18.6388 25.1106 41.6308 21.9414C54.4696 20.1717 66.7516 24.4015 75.6476 32.4851C82.0249 22.2961 92.7051 14.9014 105.544 13.1317C128.536 9.96248 149.744 26.032 152.914 49.0241L158.166 87.1303C161.335 110.122 145.265 131.331 122.273 134.5L122.019 132.652C143.99 129.624 159.347 109.357 156.318 87.385Z" fill="black"/>
<path d="M118.612 65.9036C118.062 66.4907 117.162 66.5552 116.536 66.077L116.415 65.9742L116.158 65.7374C113.44 63.2865 108.924 60.6649 103.933 60.3962C98.9239 60.1265 93.1509 62.2083 87.9693 69.9502C87.4918 70.6637 86.5263 70.8549 85.8128 70.3774C85.0993 69.8998 84.9081 68.9344 85.3856 68.2209C91.1009 59.6816 97.865 56.9558 104.1 57.2915C110.002 57.6093 115.166 60.6537 118.25 63.4372L118.542 63.7059L118.652 63.8206C119.169 64.4149 119.163 65.3164 118.612 65.9036Z" fill="black"/>
<path d="M79.2803 71.97C78.7297 72.5571 77.8303 72.6216 77.204 72.1434L77.0826 72.0406L76.8256 71.8038C74.1083 69.3529 69.5924 66.7313 64.601 66.4626C59.5918 66.1929 53.8189 68.2747 48.6373 76.0166C48.1597 76.7301 47.1943 76.9213 46.4808 76.4438C45.7673 75.9662 45.576 75.0008 46.0536 74.2873C51.7688 65.7481 58.533 63.0222 64.7683 63.3579C70.6699 63.6757 75.8342 66.7201 78.9176 69.5036L79.2097 69.7723L79.3199 69.887C79.8372 70.4813 79.8307 71.3828 79.2803 71.97Z" fill="black"/>
<path d="M168.724 75.4157C168.724 81.5975 163.713 86.6088 157.531 86.6088C151.349 86.6088 146.338 81.5975 146.338 75.4157C146.338 69.234 151.349 64.2227 157.531 64.2227C163.713 64.2227 168.724 69.234 168.724 75.4157Z" fill="white"/>
<path d="M166.859 75.4157C166.859 70.2643 162.682 66.0882 157.531 66.0882C152.379 66.0882 148.203 70.2643 148.203 75.4157C148.203 80.5672 152.379 84.7433 157.531 84.7433V86.6088C151.349 86.6088 146.338 81.5975 146.338 75.4157C146.338 69.234 151.349 64.2227 157.531 64.2227C163.713 64.2227 168.724 69.234 168.724 75.4157C168.724 81.5975 163.713 86.6088 157.531 86.6088V84.7433C162.682 84.7433 166.859 80.5672 166.859 75.4157Z" fill="black"/>
<path d="M142.675 66.9995C143.663 66.8287 144.603 67.4914 144.774 68.4794C145.912 75.0658 141.496 81.3279 134.909 82.4665L132.767 82.8369C132.637 82.8593 132.51 82.866 132.386 82.8618C132.192 82.9164 131.995 82.9628 131.792 82.9978L84.1055 91.2408C83.0902 91.4163 82.1246 90.7355 81.9491 89.7202L81.4475 86.8169C81.272 85.8017 81.9528 84.836 82.9681 84.6605L131.101 76.3398C130.905 75.2384 130.094 74.1253 129.126 73.148C127.903 71.9121 128.409 69.4663 130.122 69.1698L142.675 66.9995Z" fill="#FF61D7"/>
<path d="M142.675 66.9995C143.663 66.8287 144.603 67.4915 144.774 68.4794C145.912 75.0658 141.496 81.3279 134.909 82.4665L132.767 82.8369C132.638 82.8593 132.51 82.866 132.386 82.8618C132.192 82.9164 131.994 82.9628 131.792 82.9978L84.1055 91.2409C83.0903 91.4162 82.1245 90.7354 81.9491 89.7203L81.4475 86.8169C81.272 85.8018 81.953 84.8361 82.968 84.6605L131.101 76.3398C130.905 75.2385 130.094 74.1252 129.126 73.148C127.903 71.9121 128.409 69.4665 130.122 69.1698L142.675 66.9995ZM130.442 71.0074C130.441 71.0084 130.441 71.0103 130.44 71.0116C130.418 71.0351 130.369 71.1042 130.339 71.2315C130.31 71.3576 130.311 71.494 130.339 71.6116C130.366 71.7249 130.412 71.7948 130.452 71.8357C131.484 72.8771 132.638 74.3311 132.938 76.0131L133.266 77.8586L83.2863 86.4987L83.7879 89.4027L131.474 81.1596C131.605 81.1371 131.74 81.1062 131.879 81.0667L132.159 80.9878L132.449 80.9975C132.453 80.9976 132.455 80.9975 132.457 80.9975L134.592 80.6283L134.851 80.5797C140.262 79.5025 143.861 74.3123 142.943 68.8461L130.442 71.0074Z" fill="black"/>
<path d="M80.7416 86.9086C80.5661 85.8933 81.2468 84.928 82.2621 84.7525L89.5214 83.4977L90.6588 90.0777L83.3995 91.3326C82.3843 91.5081 81.419 90.8274 81.2435 89.8121L80.7416 86.9086Z" fill="#EBFF86"/>
<path d="M81.2435 89.8119L80.7416 86.9086C80.5661 85.8933 81.2468 84.928 82.2621 84.7525L89.5211 83.4977L90.6586 90.0776L83.3995 91.3324L83.0817 89.4942L88.5025 88.5571L88.0006 85.6537L82.5798 86.5908L83.3995 91.3324L83.3045 91.3464C82.3247 91.4651 81.4135 90.7955 81.2435 89.8119Z" fill="black"/>
<path d="M175.401 48.9447C174.232 50.1637 172.173 49.3245 172.19 47.6352L172.232 43.2547C172.244 41.9373 173.581 41.0478 174.801 41.5452L177.792 42.7646C179.012 43.262 179.346 44.833 178.434 45.7836L175.401 48.9447Z" fill="#FFB05C"/>
<path d="M175.401 48.9446C174.231 50.1636 172.173 49.3245 172.19 47.6352L172.232 43.2547C172.244 41.9785 173.499 41.1037 174.687 41.5025L174.801 41.5453L174.097 43.2727L174.055 47.6535L177.088 44.4922L177.792 42.7648C178.974 43.2467 179.324 44.736 178.516 45.6929L178.434 45.7833L175.401 48.9446ZM174.097 43.2727L174.801 41.5453L177.792 42.7648L177.088 44.4922L174.097 43.2727Z" fill="black"/>
<path d="M150.715 31.0529C149.035 31.2334 148 29.2667 149.099 27.984L151.95 24.6579C152.808 23.6576 154.404 23.8371 155.017 25.0029L156.522 27.8608C157.136 29.0265 156.381 30.4439 155.071 30.5847L150.715 31.0529Z" fill="#FF61D7"/>
<path d="M150.715 31.0527C149.035 31.2333 148 29.2667 149.099 27.984L151.95 24.658C152.781 23.6891 154.305 23.827 154.957 24.8965L155.017 25.0028L153.366 25.8719L150.516 29.1984L154.871 28.73L156.522 27.8609C157.116 28.9902 156.426 30.3557 155.192 30.5679L155.071 30.5843L150.715 31.0527ZM153.366 25.8719L155.017 25.0028L156.522 27.8609L154.871 28.73L153.366 25.8719Z" fill="black"/>
<path d="M181.966 17.799C180.286 17.9795 179.251 16.0128 180.35 14.7301L183.201 11.404C184.059 10.4037 185.655 10.5832 186.268 11.749L187.773 14.6069C188.387 15.7726 187.632 17.19 186.322 17.3308L181.966 17.799Z" fill="#FF61D7"/>
<path d="M181.966 17.7988C180.286 17.9794 179.251 16.0128 180.35 14.7301L183.201 11.4041C184.032 10.4352 185.556 10.5731 186.208 11.6426L186.268 11.7489L184.617 12.618L181.767 15.9445L186.122 15.4761L187.773 14.607C188.367 15.7363 187.677 17.1018 186.443 17.314L186.322 17.3304L181.966 17.7988ZM184.617 12.618L186.268 11.7489L187.773 14.607L186.122 15.4761L184.617 12.618Z" fill="black"/>
<path d="M141.716 1.78773C142.314 0.532607 144.051 0.328689 145.011 1.33484C146.229 2.61307 147.844 4.09687 149.375 4.85022C151.02 5.65988 153.368 6.01898 155.234 6.17732C156.614 6.29444 157.543 7.76845 156.947 9.0193L155.465 12.1309C155.161 12.7698 154.522 13.1815 153.814 13.1592C151.979 13.1015 148.372 12.8422 146.101 11.7249C143.945 10.6638 141.623 8.15382 140.474 6.80996C140.017 6.27486 139.937 5.52377 140.239 4.88834L141.716 1.78773Z" fill="#FFB05C"/>
<path d="M155.404 12.2479C155.081 12.8195 154.477 13.1796 153.814 13.1588C151.979 13.101 148.371 12.842 146.101 11.7247L146.925 10.0508C147.804 10.4832 149.05 10.7931 150.397 10.9946C151.678 11.1863 152.926 11.2617 153.799 11.2911L155.263 8.2175C155.266 8.21014 155.265 8.21116 155.265 8.20985C155.264 8.2029 155.26 8.17958 155.24 8.14704C155.195 8.07331 155.129 8.04034 155.076 8.03584C153.182 7.87511 150.532 7.49871 148.551 6.52405C146.706 5.61601 144.901 3.92354 143.661 2.62235C143.623 2.58332 143.556 2.55184 143.47 2.563C143.431 2.56804 143.409 2.57978 143.404 2.58354C143.404 2.58354 143.404 2.58284 143.4 2.58986L141.941 5.65358C142.488 6.29057 143.285 7.17094 144.183 8.01007C145.129 8.89279 146.091 9.64026 146.925 10.0508L146.101 11.7247C144.215 10.7963 142.201 8.75881 140.957 7.36362L140.474 6.81008C140.017 6.27498 139.937 5.52365 140.24 4.88822L141.716 1.78777C142.314 0.53264 144.052 0.328832 145.011 1.33498C146.23 2.61314 147.844 4.09663 149.375 4.84995C150.815 5.5584 152.792 5.92216 154.514 6.10804L155.234 6.17732C156.615 6.29456 157.543 7.7688 156.947 9.0196L155.465 12.131L155.404 12.2479Z" fill="black"/>
<path d="M128.266 23.6743C129.424 22.6893 131.277 23.4308 131.711 24.8876C131.986 25.8086 132.363 26.7159 132.877 27.3429C133.447 28.0386 134.378 28.6252 135.331 29.0897C136.692 29.7535 137.117 31.6942 135.963 32.6754L133.647 34.6458C133.186 35.0377 132.565 35.1834 131.989 34.9978C130.644 34.5638 128.183 33.6251 127.078 32.2766C126.028 30.9958 125.546 28.5456 125.352 27.1974C125.266 26.6032 125.51 26.0191 125.967 25.6302L128.266 23.6743Z" fill="#EBFF86"/>
<path d="M133.559 34.7125C133.109 35.0507 132.529 35.1683 131.989 34.9943L131.437 34.8076C130.05 34.3188 128.045 33.4528 127.078 32.273L128.52 31.0905C128.819 31.4549 129.424 31.8842 130.273 32.3055C131.044 32.6883 131.86 32.9875 132.476 33.1893L134.755 31.2507C134.759 31.2469 134.757 31.2501 134.759 31.2449C134.763 31.2308 134.772 31.1847 134.758 31.11C134.725 30.9405 134.616 30.8127 134.513 30.7625C133.491 30.264 132.264 29.5345 131.434 28.5216C130.684 27.6062 130.221 26.4144 129.923 25.4164C129.889 25.303 129.778 25.172 129.614 25.1115C129.542 25.0849 129.495 25.0867 129.481 25.0886C129.476 25.0894 129.48 25.0874 129.475 25.0916L127.212 27.0164C127.304 27.6331 127.453 28.4472 127.684 29.2339C127.938 30.1001 128.236 30.7432 128.52 31.0905L127.078 32.273L126.98 32.1492C125.998 30.8397 125.54 28.4994 125.352 27.1933C125.266 26.5992 125.51 26.0151 125.967 25.6262L128.266 23.6706C129.424 22.6857 131.277 23.4268 131.711 24.8834C131.968 25.7469 132.317 26.5985 132.783 27.2182L132.878 27.3392C133.376 27.9479 134.152 28.473 134.976 28.906L135.331 29.0859C136.692 29.7498 137.117 31.6904 135.963 32.6716L133.647 34.6421L133.559 34.7125Z" fill="black"/>
<path d="M171.795 23.6743C172.952 22.6893 174.805 23.4308 175.239 24.8876C175.514 25.8086 175.892 26.7159 176.406 27.3429C176.976 28.0386 177.907 28.6252 178.859 29.0897C180.22 29.7535 180.645 31.6942 179.492 32.6754L177.175 34.6458C176.715 35.0377 176.093 35.1834 175.518 34.9978C174.172 34.5638 171.711 33.6251 170.606 32.2766C169.556 30.9958 169.074 28.5456 168.88 27.1974C168.795 26.6032 169.038 26.0191 169.495 25.6302L171.795 23.6743Z" fill="#EBFF86"/>
<path d="M177.087 34.7125C176.637 35.0507 176.057 35.1683 175.518 34.9943L174.966 34.8076C173.578 34.3188 171.573 33.4528 170.606 32.273L172.049 31.0905C172.347 31.4549 172.953 31.8842 173.801 32.3055C174.572 32.6883 175.388 32.9875 176.004 33.1893L178.283 31.2507C178.287 31.2469 178.285 31.2501 178.287 31.2449C178.291 31.2308 178.3 31.1847 178.286 31.11C178.254 30.9405 178.145 30.8127 178.042 30.7625C177.019 30.264 175.793 29.5345 174.963 28.5216C174.212 27.6062 173.749 26.4144 173.452 25.4164C173.418 25.303 173.307 25.172 173.143 25.1115C173.071 25.0849 173.024 25.0867 173.009 25.0886C173.004 25.0894 173.008 25.0874 173.003 25.0916L170.74 27.0164C170.832 27.6331 170.982 28.4472 171.212 29.2339C171.466 30.1001 171.764 30.7432 172.049 31.0905L170.606 32.273L170.509 32.1492C169.526 30.8397 169.068 28.4994 168.88 27.1933C168.795 26.5992 169.038 26.0151 169.495 25.6262L171.794 23.6706C172.952 22.6857 174.805 23.4268 175.239 24.8834C175.497 25.7469 175.845 26.5985 176.311 27.2182L176.406 27.3392C176.905 27.9479 177.68 28.473 178.504 28.906L178.86 29.0859C180.22 29.7498 180.645 31.6904 179.492 32.6716L177.175 34.6421L177.087 34.7125Z" fill="black"/>
<path d="M147.013 45.7223C146.123 44.6785 146.619 43.0348 147.906 42.5597C149.682 41.904 151.906 40.9252 153.351 39.7225C154.901 38.433 156.338 36.2358 157.328 34.4959C158.004 33.3075 159.698 33.0842 160.585 34.1246L162.851 36.7811C163.32 37.3311 163.429 38.1011 163.101 38.745C162.229 40.4538 160.362 43.7943 158.292 45.5163C156.327 47.1511 152.924 48.3723 151.163 48.9304C150.478 49.1477 149.738 48.9177 149.272 48.3706L147.013 45.7223Z" fill="#FFB05C"/>
<path d="M162.934 36.8869C163.332 37.427 163.409 38.1415 163.101 38.7451L162.729 39.4559C161.759 41.2636 160.103 44.0093 158.292 45.516L157.099 44.082C157.925 43.3944 158.791 42.3069 159.589 41.0979C160.352 39.9426 160.987 38.7769 161.405 37.9612L159.166 35.3348C159.162 35.3302 159.161 35.3301 159.161 35.3301C159.155 35.3281 159.134 35.3224 159.099 35.3265C159.023 35.3358 158.973 35.3766 158.949 35.418C157.948 37.1784 156.373 39.6354 154.544 41.1566C152.837 42.5769 150.354 43.6446 148.552 44.3096C148.507 44.3264 148.457 44.37 148.435 44.4454C148.425 44.4793 148.428 44.5009 148.429 44.5065C148.429 44.5065 148.428 44.5064 148.433 44.512L150.665 47.1301C152.458 46.5581 155.47 45.437 157.099 44.082L158.292 45.516L158.104 45.6682C156.372 47.0255 153.686 48.0831 151.894 48.6906L151.163 48.9301C150.52 49.1338 149.831 48.9447 149.362 48.4696L149.272 48.3706L147.013 45.7225C146.123 44.6787 146.619 43.0349 147.906 42.5598C149.571 41.9451 151.63 41.046 153.071 39.9451L153.351 39.7222C154.708 38.5938 155.977 36.7708 156.936 35.1671L157.327 34.4961C158.003 33.3077 159.698 33.0842 160.585 34.1243L162.851 36.7812L162.934 36.8869Z" fill="black"/>
<path d="M184.979 39.5559C183.785 38.8808 183.687 37.1667 184.733 36.2789C186.176 35.0539 187.929 33.3714 188.875 31.7459C189.888 30.0029 190.484 27.4463 190.817 25.4725C191.044 24.1242 192.559 23.3332 193.749 24.0061L196.788 25.7243C197.418 26.08 197.785 26.7657 197.697 27.4832C197.465 29.3872 196.857 33.1656 195.503 35.4931C194.218 37.7028 191.44 40.0175 189.978 41.1457C189.409 41.5849 188.635 41.6226 188.009 41.2687L184.979 39.5559Z" fill="#EBFF86"/>
<path d="M196.904 25.7949C197.462 26.166 197.779 26.8107 197.697 27.4832L197.591 28.2787C197.301 30.3092 196.687 33.4563 195.503 35.4929L193.89 34.5552C194.431 33.6259 194.871 32.3073 195.206 30.8979C195.526 29.5511 195.723 28.2382 195.836 27.3286L192.831 25.6299C192.826 25.6269 192.825 25.6271 192.825 25.6271C192.819 25.6271 192.797 25.6291 192.766 25.6448C192.697 25.6798 192.664 25.7353 192.656 25.7822C192.319 27.7794 191.683 30.6275 190.487 32.6837C189.371 34.6034 187.404 36.4583 185.94 37.7009C185.903 37.7323 185.872 37.7904 185.877 37.8687C185.879 37.9038 185.889 37.9233 185.892 37.9282C185.892 37.9282 185.891 37.9284 185.898 37.932L188.893 39.6253C190.38 38.4732 192.825 36.3867 193.89 34.5552L195.503 35.4929L195.378 35.7005C194.218 37.5694 192.057 39.4845 190.582 40.6697L189.978 41.1455C189.444 41.5572 188.731 41.6162 188.128 41.3306L188.009 41.2687L184.98 39.556C183.785 38.8809 183.687 37.1667 184.733 36.279C186.086 35.1304 187.711 33.5797 188.688 32.0509L188.875 31.7456C189.761 30.2204 190.329 28.0725 190.679 26.2371L190.817 25.4726C191.044 24.1245 192.559 23.3333 193.749 24.0059L196.789 25.7243L196.904 25.7949Z" fill="black"/>
<path d="M158.376 78.8762C157.575 80.3784 156.556 81.1629 155.725 81.7912C154.914 82.4041 154.327 82.8422 153.801 83.7052C153.289 84.5454 152.801 85.789 152.427 86.9008C152.245 87.4414 152.1 87.9235 151.999 88.2699C151.949 88.4427 151.911 88.5809 151.886 88.6745C151.873 88.7211 151.863 88.7567 151.857 88.7799C151.854 88.7914 151.852 88.8 151.851 88.8053C151.85 88.8078 151.849 88.8097 151.849 88.8107L151.849 88.8112L151.801 88.9629C151.528 89.7018 150.733 90.1279 149.954 89.9259C149.123 89.7104 148.624 88.8619 148.839 88.0309L150.344 88.421L148.839 88.0303L148.839 88.029C148.84 88.0282 148.84 88.0272 148.84 88.026C148.841 88.0236 148.842 88.0203 148.843 88.0163C148.845 88.008 148.849 87.9963 148.852 87.9815C148.86 87.952 148.871 87.9097 148.886 87.8561C148.915 87.7488 148.958 87.5949 149.013 87.4054C149.122 87.0271 149.282 86.5018 149.48 85.9103C149.868 84.7577 150.445 83.2386 151.146 82.0876C152.015 80.66 153.06 79.9085 153.85 79.3116C154.619 78.73 155.168 78.284 155.632 77.4138C156.015 76.6942 156.34 75.635 156.575 74.6702C156.688 74.2045 156.774 73.7906 156.831 73.4939C156.86 73.346 156.881 73.2283 156.895 73.149C156.901 73.1096 156.906 73.0798 156.91 73.0606C156.911 73.051 156.912 73.0435 156.913 73.0395C156.913 73.0376 156.913 73.0363 156.913 73.0357L156.914 73.036C157.048 72.1881 157.845 71.6101 158.693 71.7447C159.54 71.8794 160.118 72.6756 159.984 73.5235L158.449 73.2797C159.977 73.5222 159.984 73.5236 159.984 73.5238L159.983 73.5254C159.983 73.5261 159.984 73.5271 159.983 73.5281C159.983 73.5304 159.982 73.5337 159.982 73.5376C159.98 73.5452 159.979 73.5559 159.977 73.5692C159.972 73.5958 159.966 73.6335 159.958 73.6812C159.941 73.7766 159.916 73.9127 159.884 74.0804C159.82 74.4149 159.724 74.88 159.596 75.4058C159.348 76.4241 158.95 77.7978 158.376 78.8762Z" fill="black"/>
<path d="M159.436 76.0337C158.275 77.1028 156.393 76.3355 156.31 74.759L155.211 53.8607C155.139 52.4952 156.512 51.519 157.778 52.0352L174.276 58.762C175.542 59.2782 175.841 60.9362 174.835 61.8621L159.436 76.0337Z" fill="#FF6469"/>
<path d="M159.437 76.0338C158.275 77.1028 156.393 76.3355 156.31 74.759L155.211 53.861C155.141 52.5381 156.428 51.5804 157.659 51.9914L157.778 52.0352L157.073 53.7626L158.173 74.6609L173.572 60.4896L174.276 58.7621C175.503 59.2623 175.821 60.8338 174.925 61.7733L174.835 61.8622L159.437 76.0338ZM157.073 53.7626L157.778 52.0352L174.276 58.7621L173.572 60.4896L157.073 53.7626Z" fill="black"/>
<path d="M94.975 88.958L93.9556 88.2456L97.9855 82.479L99.0049 83.1914L94.975 88.958Z" fill="black"/>
<path d="M102.585 88.1103L101.566 87.3979L105.596 81.6313L106.615 82.3438L102.585 88.1103Z" fill="black"/>
<path d="M110.37 86.8681L109.351 86.1557L113.381 80.3892L114.4 81.1016L110.37 86.8681Z" fill="black"/>
<path d="M117.832 85.0009L116.813 84.2885L120.843 78.522L121.862 79.2344L117.832 85.0009Z" fill="black"/>
<path d="M125.294 83.7587L124.275 83.0463L128.305 77.2798L129.324 77.9922L125.294 83.7587Z" fill="black"/>
<path d="M131.254 82.4162L130.17 81.8052L137.633 68.5765L138.716 69.1875L131.254 82.4162Z" fill="black"/>
<path d="M136.228 81.7951L135.145 81.1841L142.607 67.9554L143.69 68.5664L136.228 81.7951Z" fill="black"/>
<path d="M154.422 96.5564C154.422 102.738 149.411 107.749 143.229 107.749C137.047 107.749 132.036 102.738 132.036 96.5564C132.036 90.3746 137.047 85.3633 143.229 85.3633C149.411 85.3633 154.422 90.3746 154.422 96.5564Z" fill="white"/>
<path d="M152.557 96.5564C152.557 91.4049 148.381 87.2288 143.229 87.2288C138.078 87.2288 133.902 91.4049 133.902 96.5564C133.902 101.708 138.078 105.884 143.229 105.884V107.749C137.047 107.749 132.036 102.738 132.036 96.5564C132.036 90.3746 137.047 85.3633 143.229 85.3633C149.411 85.3633 154.422 90.3746 154.422 96.5564C154.422 102.738 149.411 107.749 143.229 107.749V105.884C148.381 105.884 152.557 101.708 152.557 96.5564Z" fill="black"/>
</svg>
