<svg
  width="16"
  height="15"
  viewBox="0 0 16 15"
  fill="none"
  xmlns="http://www.w3.org/2000/svg"
>
  <g clip-path="url(#clip0_2173_2133)">
    <path
      d="M10.2761 7.05469C10.2761 7.05469 9.26344 9.95305 8.78223 10.4591C8.30098 10.9651 7.50686 10.9791 7.00853 10.4905C6.51016 10.0018 6.4963 9.19553 6.97754 8.68949C7.45879 8.18349 10.2761 7.05469 10.2761 7.05469Z"
      stroke="#8E79FF"
      stroke-width="1.3"
      stroke-linejoin="round"
    />
    <path
      d="M12.958 13.4464C14.1498 12.2363 14.8869 10.5646 14.8869 8.71809C14.8869 5.02504 11.9384 2.03125 8.30135 2.03125C4.66425 2.03125 1.71582 5.02504 1.71582 8.71809C1.71582 10.5646 2.45293 12.2363 3.64468 13.4464"
      stroke="#8E79FF"
      stroke-width="1.3"
      stroke-linecap="round"
      stroke-linejoin="round"
    />
    <path
      d="M8.30127 2.34375V3.61743"
      stroke="#8E79FF"
      stroke-width="1.3"
      stroke-linecap="round"
      stroke-linejoin="round"
    />
    <path
      d="M12.9565 4.61328L11.9817 5.41481"
      stroke="#8E79FF"
      stroke-width="1.3"
      stroke-linecap="round"
      stroke-linejoin="round"
    />
    <path
      d="M14.1099 9.75917L12.8877 9.47266"
      stroke="#8E79FF"
      stroke-width="1.3"
      stroke-linecap="round"
      stroke-linejoin="round"
    />
    <path
      d="M2.49292 9.75917L3.71516 9.47266"
      stroke="#8E79FF"
      stroke-width="1.3"
      stroke-linecap="round"
      stroke-linejoin="round"
    />
    <path
      d="M3.64673 4.61328L4.62157 5.41484"
      stroke="#8E79FF"
      stroke-width="1.3"
      stroke-linecap="round"
      stroke-linejoin="round"
    />
  </g>
  <defs>
    <clipPath id="clip0_2173_2133">
      <rect
        width="15.0526"
        height="13.8947"
        fill="white"
        transform="translate(0.789551 0.871094)"
      />
    </clipPath>
  </defs>
</svg>
