<svg width="7" height="8" viewBox="0 0 7 8" fill="none" xmlns="http://www.w3.org/2000/svg">
<g clip-path="url(#clip0_602_3578)">
<path d="M3.62338 0.290413L3.7435 0.331429L3.82651 0.380257C3.90124 0.435304 3.95359 0.505769 3.99252 0.564827C4.04613 0.646162 4.10426 0.753727 4.16831 0.873421L4.61655 1.71229C4.70375 1.87524 4.72316 1.90688 4.74448 1.92909C4.76916 1.95475 4.79917 1.97545 4.83139 1.99061C4.85925 2.00366 4.89544 2.01212 5.07749 2.04237L6.05893 2.20545C6.21047 2.23062 6.34454 2.25285 6.4476 2.27967C6.54462 2.30496 6.6747 2.34831 6.76987 2.45545C6.889 2.58987 6.94018 2.772 6.90756 2.94862C6.88142 3.08956 6.79208 3.19422 6.72202 3.266C6.64754 3.34222 6.54397 3.4308 6.42709 3.53065L5.76694 4.09412C5.58305 4.25123 5.54882 4.28601 5.52963 4.31971C5.50747 4.3588 5.49405 4.40278 5.49155 4.44764C5.48949 4.48638 5.49984 4.53498 5.56967 4.76698L5.85092 5.69959C5.90373 5.87505 5.94925 6.02549 5.97397 6.14393C5.99617 6.2504 6.01942 6.40564 5.95346 6.5492C5.87357 6.72268 5.71379 6.84681 5.52573 6.88026C5.37043 6.90771 5.22659 6.8455 5.12924 6.79725C5.02082 6.74347 4.88637 6.66115 4.72983 6.5658L3.83334 6.01991C3.63961 5.90191 3.5987 5.88143 3.56284 5.87342C3.52122 5.86421 3.47749 5.86417 3.43588 5.87342C3.4001 5.88149 3.35858 5.90223 3.16538 6.01991L2.26889 6.5658C2.1124 6.66112 1.97785 6.74352 1.86948 6.79725C1.77206 6.84551 1.62824 6.90784 1.47299 6.88026C1.28497 6.84672 1.12507 6.72272 1.04526 6.5492C0.979326 6.4057 1.00256 6.25039 1.02475 6.14393C1.04946 6.02553 1.09501 5.87497 1.1478 5.69959L1.42905 4.76698C1.4989 4.53491 1.50924 4.48639 1.50717 4.44764C1.50467 4.40267 1.49135 4.35887 1.46909 4.31971C1.44989 4.28599 1.41594 4.25145 1.23178 4.09412L0.571626 3.53065C0.454643 3.43071 0.351186 3.34226 0.276704 3.266C0.206625 3.1942 0.117269 3.08958 0.0911572 2.94862C0.0585674 2.77212 0.109904 2.58984 0.228853 2.45545C0.32391 2.34841 0.454121 2.30498 0.551118 2.27967C0.654133 2.25284 0.788269 2.23062 0.93979 2.20545L1.92124 2.04237C2.10276 2.01221 2.13951 2.00357 2.16733 1.99061C2.19951 1.9755 2.22957 1.95467 2.25424 1.92909C2.27557 1.90689 2.29503 1.87513 2.38217 1.71229L2.83042 0.873421C2.89439 0.753877 2.95265 0.646126 3.0062 0.564827C3.05812 0.486067 3.13452 0.38724 3.25522 0.331429C3.37123 0.277976 3.50076 0.263814 3.62338 0.290413Z" fill="#775DFF"/>
</g>
<defs>
<clipPath id="clip0_602_3578">
<rect width="7" height="7" fill="white" transform="translate(0 0.25)"/>
</clipPath>
</defs>
</svg>
