<svg width="15" height="15" viewBox="0 0 15 15" fill="none" xmlns="http://www.w3.org/2000/svg">
<path d="M6.68013 0.972865C6.96175 0.211796 8.03819 0.211795 8.31982 0.972865L9.72153 4.76095C9.81007 5.00023 9.99873 5.18888 10.238 5.27742L14.0261 6.67914C14.7872 6.96076 14.7872 8.03721 14.0261 8.31883L10.238 9.72055C9.99873 9.80909 9.81007 9.99774 9.72153 10.237L8.31982 14.0251C8.03819 14.7862 6.96175 14.7862 6.68013 14.0251L5.27841 10.237C5.18987 9.99774 5.00121 9.80909 4.76194 9.72055L0.973851 8.31883C0.212781 8.03721 0.21278 6.96076 0.97385 6.67914L4.76194 5.27742C5.00121 5.18888 5.18987 5.00023 5.27841 4.76095L6.68013 0.972865Z" stroke="white" stroke-width="0.799197" stroke-linejoin="round"/>
</svg>
