<svg width="19" height="19" viewBox="0 0 19 19" fill="none" xmlns="http://www.w3.org/2000/svg">
<path d="M8.62575 2.80394C8.90484 2.04973 9.97157 2.04973 10.2507 2.80394L11.6397 6.55787C11.7275 6.79499 11.9144 6.98194 12.1516 7.06968L15.9055 8.45876C16.6597 8.73784 16.6597 9.80458 15.9055 10.0837L12.1516 11.4727C11.9144 11.5605 11.7275 11.7474 11.6397 11.9846L10.2507 15.7385C9.97157 16.4927 8.90484 16.4927 8.62575 15.7385L7.23667 11.9846C7.14893 11.7474 6.96198 11.5605 6.72486 11.4727L2.97093 10.0837C2.21672 9.80458 2.21672 8.73784 2.97093 8.45876L6.72486 7.06968C6.96198 6.98194 7.14893 6.79499 7.23667 6.55787L8.62575 2.80394Z" stroke="white" stroke-width="0.799197" stroke-linejoin="round"/>
</svg>
