<svg width="16" height="17" viewBox="0 0 16 17" fill="none" xmlns="http://www.w3.org/2000/svg">
<path d="M0.681641 14.3894C0.681641 16.259 4.58172 16.6825 8.18164 16.6839C11.7816 16.6825 15.6816 16.259 15.6816 14.3894C15.6816 11.9112 13 11.0828 10.7358 10.3237C10.5725 10.2729 9.88619 9.86577 9.88619 8.80555C11.0095 7.74267 12.2025 6.00586 12.2025 4.30177C12.2025 1.68702 10.355 0.320312 8.18164 0.320312C6.00831 0.320312 4.16081 1.68702 4.16081 4.30177C4.16081 6.00586 5.35376 7.74267 6.4771 8.80555C6.4771 9.86577 5.79081 10.2729 5.62747 10.3237C3.36331 11.0828 0.681641 11.9112 0.681641 14.3894Z" fill="#6B6B75"/>
</svg>
