<svg width="130" height="138" viewBox="0 0 130 138" fill="none" xmlns="http://www.w3.org/2000/svg">
<path d="M69.5606 137.099C51.8781 137.099 37.5436 133.825 37.5436 129.788C37.5436 125.75 51.8781 122.477 69.5606 122.477C87.2431 122.477 101.578 125.75 101.578 129.788C101.578 133.825 87.2431 137.099 69.5606 137.099Z" fill="black"/>
<path d="M85.9335 8.62441C104.654 6.69773 121.391 20.3114 123.318 39.0314L126.511 70.0573C128.438 88.7775 114.824 105.515 96.1039 107.442C85.6504 108.518 75.8154 104.747 68.832 97.9485C63.3799 106.027 54.5194 111.722 44.066 112.798C25.346 114.724 8.60846 101.11 6.68178 82.3903L3.48857 51.3644C1.56198 32.6444 15.1757 15.9069 33.8956 13.9802C44.3489 12.9043 54.1836 16.6747 61.167 23.4734C66.6191 15.3946 75.4801 9.70031 85.9335 8.62441Z" fill="#775DFF"/>
<path d="M69.8872 96.8647C76.5632 103.365 85.9601 106.965 95.949 105.937L96.1039 107.442L95.6142 107.489C85.3436 108.399 75.7062 104.641 68.832 97.9485C63.3799 106.027 54.5194 111.722 44.066 112.798L43.9112 111.293C53.8999 110.265 62.366 104.826 67.5782 97.1024L68.5905 95.6023L69.8872 96.8647ZM125.007 70.2122L121.814 39.1863C119.972 21.2973 103.977 8.28792 86.0883 10.1291C76.0995 11.1572 67.6329 16.5962 62.4207 24.3195L61.4084 25.8195L60.1118 24.5571C53.54 18.1591 44.3321 14.5701 34.5181 15.4402L34.0505 15.4849C16.3013 17.3117 3.3556 33.0714 4.95258 50.7905L4.99323 51.2095L8.18644 82.2354C10.0276 100.125 26.0221 113.134 43.9112 111.293L44.066 112.798C25.346 114.724 8.60846 101.11 6.68178 82.3903L3.48857 51.3644C1.56198 32.6444 15.1757 15.9069 33.8956 13.9802L34.3853 13.9333C44.6556 13.0229 54.2928 16.7809 61.167 23.4734C66.6191 15.3946 75.4801 9.70031 85.9335 8.62441C104.654 6.69773 121.391 20.3114 123.318 39.0314L126.511 70.0573L126.554 70.4955C128.225 89.038 114.678 105.53 96.1039 107.442L95.949 105.937C113.838 104.096 126.848 88.1013 125.007 70.2122Z" fill="black"/>
<path d="M66.2888 73.521C68.7181 69.6211 73.3699 68.1306 76.679 70.1918C79.988 72.2531 80.7011 77.0856 78.2717 80.9855C75.8424 84.8854 71.1906 86.3759 67.8815 84.3146C64.5725 82.2534 63.8594 77.4209 66.2888 73.521Z" fill="white"/>
<path d="M67.5726 74.3208C65.4568 77.7175 66.2711 81.5293 68.6813 83.0308C71.0916 84.5322 74.872 83.5824 76.9879 80.1857C79.1037 76.789 78.2894 72.9771 75.8792 71.4757L76.679 70.1918C79.988 72.2531 80.7011 77.0856 78.2717 80.9855C75.8424 84.8854 71.1906 86.3759 67.8815 84.3146C64.5725 82.2534 63.8594 77.4209 66.2888 73.521C68.7181 69.6211 73.3699 68.1306 76.679 70.1918L75.8792 71.4757C73.4689 69.9743 69.6885 70.9241 67.5726 74.3208Z" fill="black"/>
<path d="M56.0769 82.5369C53.3406 78.8459 53.6612 73.9716 56.793 71.6499C59.9248 69.3282 64.6818 70.4383 67.4181 74.1293C70.1544 77.8203 69.8337 82.6946 66.702 85.0163C63.5702 87.338 58.8132 86.228 56.0769 82.5369Z" fill="white"/>
<path d="M57.292 81.6361C59.6752 84.8509 63.52 85.4923 65.8012 83.8012C68.0823 82.1101 68.5862 78.2449 66.2029 75.0301C63.8197 71.8154 59.975 71.1739 57.6938 72.8651L56.793 71.6499C59.9248 69.3282 64.6818 70.4383 67.4181 74.1293C70.1544 77.8203 69.8337 82.6946 66.702 85.0163C63.5702 87.338 58.8132 86.228 56.0769 82.5369C53.3406 78.8459 53.6612 73.9716 56.793 71.6499L57.6938 72.8651C55.4126 74.5562 54.9088 78.4213 57.292 81.6361Z" fill="black"/>
<path d="M36.204 56.8565C36.6666 56.3961 37.3972 56.3689 37.8913 56.7739L37.9869 56.8606L38.1885 57.0596C40.3221 59.1215 43.9084 61.372 47.9457 61.729C51.9973 62.0872 56.7336 60.5613 61.1484 54.4323C61.5553 53.8674 62.343 53.7393 62.9079 54.1462C63.4727 54.5531 63.6008 55.3408 63.1939 55.9057C58.3243 62.666 52.7669 64.6861 47.7235 64.2401C42.95 63.818 38.8501 61.2069 36.4291 58.8653L36.1999 58.6394L36.1138 58.5433C35.7112 58.0473 35.7416 57.317 36.204 56.8565Z" fill="black"/>
<path d="M65.2944 53.8643C65.7569 53.4039 66.4875 53.3767 66.9817 53.7817L67.0772 53.8684L67.2789 54.0674C69.4124 56.1294 72.9988 58.3798 77.036 58.7368C81.0877 59.0951 85.8239 57.5691 90.2388 51.4401C90.6457 50.8752 91.4333 50.7472 91.9982 51.154C92.5631 51.5609 92.6911 52.3486 92.2842 52.9135C87.4146 59.6738 81.8573 61.6939 76.8138 61.248C72.0404 60.8258 67.9404 58.2147 65.5194 55.8731L65.2902 55.6472L65.2041 55.5511C64.8015 55.0551 64.8319 54.3248 65.2944 53.8643Z" fill="black"/>
<path d="M105.098 2.63679C105.468 2.40454 105.581 1.95271 105.352 1.62768C105.122 1.30265 104.636 1.22755 104.267 1.4598C95.1345 7.19817 93.4313 16.2311 93.7238 20.0752C93.754 20.4711 94.13 20.7488 94.5641 20.6956C94.9981 20.6423 95.3255 20.2784 95.2955 19.8825C95.0293 16.3854 96.6132 7.96858 105.098 2.63679Z" fill="black"/>
<path d="M100.019 20.5913C100.419 20.4936 100.686 20.1384 100.647 19.7767L100.635 19.7043L100.591 19.4816C100.16 17.0951 100.785 12.0407 106.584 9.26094C106.98 9.07136 107.154 8.6324 106.972 8.28076C106.791 7.9293 106.323 7.79804 105.928 7.98754L105.609 8.14446C99.2271 11.3762 98.5438 17.0866 99.0383 19.8225L99.0906 20.0816L99.1108 20.1522C99.2291 20.4945 99.6192 20.6889 100.019 20.5913Z" fill="black"/>
</svg>
