<?xml version='1.0' encoding='utf-8'?>
<svg xmlns="http://www.w3.org/2000/svg" xml:space="preserve" width="100%" x="0" y="0" version="1.1" viewBox="0 0 900 600"><path fill="#3c1d1d" stroke="none" d="M465.516785,7.872403 C470.703033,8.154253 475.436005,8.512565 480.599731,8.833504 C485.729034,9.193470 490.427582,9.590808 495.553467,9.931154 C496.712646,10.008157 497.444427,10.142152 498.787567,10.350402 C499.569641,10.458903 499.740356,10.493150 499.911102,10.527397 C502.682678,10.979634 505.454254,11.431870 508.624939,11.860954 C514.413208,12.821935 519.802368,13.806067 525.582520,14.790322 C532.053406,16.154346 538.133362,17.518250 544.855042,18.956230 C545.662781,18.992237 545.828796,18.954170 545.994751,18.916100 C546.785339,19.252903 547.575867,19.589708 548.986206,20.013102 C550.417908,20.293640 551.229858,20.487589 552.255371,20.816193 C552.635376,20.924883 552.801758,20.898916 552.968140,20.872948 C553.663513,21.087893 554.358948,21.302841 555.707520,21.726065 C561.240112,23.286146 566.119446,24.637949 571.253174,26.257744 C575.492676,27.746639 579.477844,28.967545 583.714050,30.470036 C585.603333,31.359467 587.241577,31.967310 589.144836,32.783890 C592.424316,34.058365 595.438782,35.124104 598.705933,36.470478 C604.626465,39.210987 610.294250,41.670860 616.115417,44.442200 C618.160889,45.540833 620.053040,46.327999 622.122192,47.416458 C625.199036,49.142231 628.098755,50.566719 631.233276,52.245110 C635.464905,54.727310 639.461670,56.955608 643.692871,59.457542 C645.573242,60.674885 647.219299,61.618587 649.093994,62.782177 C652.496033,65.015144 655.669434,67.028221 659.017944,69.338112 C664.098572,73.099777 669.004089,76.564621 674.056641,80.338417 C683.536987,89.000153 693.431335,96.817276 702.053040,105.849304 C711.573730,115.823006 719.927673,126.910461 728.843750,137.837967 C730.746155,140.824219 732.594666,143.485306 734.591370,146.453339 C735.668213,148.250610 736.596863,149.740967 737.641235,151.571747 C740.459595,156.621429 743.162292,161.330673 745.935974,166.406219 C747.642822,170.059982 749.278625,173.347473 750.902588,176.938385 C751.420471,178.527145 751.950256,179.812454 752.618774,181.458038 C754.770203,187.053787 756.782837,192.289246 758.830994,197.901123 C759.964172,202.526413 761.061829,206.775299 762.179077,211.415039 C763.134827,215.536133 764.070923,219.266373 764.979248,223.337585 C765.009338,224.128159 765.067261,224.577759 765.088440,225.300720 C765.286011,225.834061 765.520325,226.094040 765.752319,226.265533 C765.750122,226.177032 765.596680,226.265411 765.598267,226.691452 C766.120544,231.736664 766.641296,236.355835 767.089478,241.249374 C767.166443,242.041473 767.315979,242.559189 767.502808,243.457367 C767.622253,244.593796 767.704529,245.349762 767.787659,246.554794 C767.901062,250.009216 768.013550,253.014572 768.068970,256.483887 C767.826599,262.944000 767.641174,268.940094 767.251587,275.271332 C766.751526,279.079559 766.455566,282.552643 766.086670,286.449402 C764.011902,296.581573 762.010010,306.290161 759.772461,316.288635 C758.673218,319.840729 757.809692,323.102905 756.673706,326.547546 C756.309204,327.141083 756.217163,327.552155 755.991943,328.274628 C755.575012,329.391144 755.291260,330.196198 754.765991,331.275238 C750.019775,341.365540 745.515076,351.181885 740.759277,361.228577 C736.547241,367.714417 732.631042,373.998901 728.606995,380.213623 C726.485168,383.490509 724.175171,386.645569 721.650452,389.991547 C720.729431,391.018494 720.108215,391.909546 719.194702,392.930542 C715.846375,396.739136 712.790344,400.417847 709.431213,404.288300 C707.702637,406.305145 706.277222,408.130219 704.538940,410.064026 C701.100342,413.266266 697.974548,416.359833 694.566406,419.617798 C693.112915,421.030518 691.941772,422.278870 690.440674,423.637054 C686.023499,427.315735 681.936340,430.884583 677.581482,434.603241 C676.878723,435.185364 676.443726,435.617676 675.671997,436.111084 C665.184509,443.426758 655.033691,450.681396 644.531494,457.978638 C640.433472,460.310791 636.686829,462.600433 632.636475,464.921234 C631.875854,465.258240 631.419006,465.564087 630.624451,465.974304 C625.443970,468.561401 620.601318,471.044128 615.408936,473.640930 C610.995422,475.647003 606.931702,477.539062 602.549866,479.581116 C601.169250,480.208160 600.106750,480.685181 598.677979,481.130615 C594.175415,482.870575 590.039124,484.642151 585.539856,486.578308 C579.796326,488.561859 574.415771,490.380859 568.658081,492.247437 C563.683655,493.793274 559.086304,495.291534 554.104736,496.830933 C549.474182,497.956940 545.227722,499.041748 540.584473,500.082520 C535.467224,501.078278 530.746826,502.118134 525.623291,503.135315 C521.451416,503.896637 517.682617,504.680542 513.653320,505.517548 C513.229553,505.639771 513.066345,505.708923 512.572571,505.733765 C511.821289,505.833466 511.400604,505.977478 510.560577,506.065735 C505.433472,506.715668 500.725647,507.421356 495.680023,508.045593 C494.885315,508.018463 494.428467,508.072754 493.736877,508.076477 C493.502197,508.025879 493.041748,508.162048 492.763733,508.091187 C491.961029,508.170166 491.436340,508.320007 490.573273,508.502930 C489.792419,508.618561 489.350006,508.701080 488.481903,508.777618 C486.361938,508.889221 484.667664,509.006805 482.737701,509.073334 C482.502045,509.022308 482.039673,509.159393 481.609314,509.089447 C476.131317,509.650665 471.083679,510.281860 465.827332,510.574707 C463.756409,510.225555 461.894165,510.214813 459.765839,510.122162 C459.322357,510.094879 459.144989,510.149445 458.527222,510.218964 C454.400146,510.299591 450.713470,510.365265 446.671448,510.236511 C442.868286,510.082367 439.420502,510.122650 435.510986,510.103271 C425.372742,509.404327 415.696228,508.765076 405.657257,508.041229 C404.559784,507.899841 403.824799,507.843079 402.762726,507.686584 C401.981903,507.545776 401.528107,507.504669 400.758667,507.257202 C397.134552,507.177155 393.329407,506.301758 390.623688,507.643463 C385.390717,510.238403 380.777405,514.082886 375.577087,517.571594 C371.447174,520.474609 367.647430,523.215454 363.545349,525.997192 C362.486847,526.656860 361.730713,527.275696 360.638000,527.984802 C350.151093,535.032654 340.000793,541.990295 329.512482,549.003906 C326.410919,551.017212 323.647369,552.974426 320.568390,555.013184 C318.838257,556.079773 317.423523,557.064819 315.668823,558.113037 C305.520203,564.922180 295.711609,571.668274 285.574097,578.566895 C282.408020,580.668579 279.570862,582.617798 276.733704,584.567017 C274.932800,585.715698 273.131897,586.864380 271.098450,588.224792 C266.174072,590.747620 262.886719,596.024292 256.354736,595.158813 C251.739456,593.960022 249.315079,591.150452 248.837433,585.967407 C249.946579,580.465820 250.968628,575.733521 252.257782,570.741455 C253.629715,566.303528 254.734558,562.125244 255.964722,557.575073 C256.586761,555.174316 257.083527,553.145447 257.790771,550.838623 C258.615631,548.022583 259.229950,545.484497 259.968140,542.574768 C261.466339,536.785583 262.840668,531.368103 264.425293,525.655151 C265.704010,521.222229 266.772400,517.084778 267.968140,512.578003 C270.908539,501.831390 273.721588,491.453949 276.743774,480.781982 C277.627136,477.514618 278.301392,474.541840 279.066772,471.167236 C276.370209,469.833191 273.672180,468.498444 270.656799,467.014465 C268.935944,466.053101 267.532440,465.240997 265.891022,464.206421 C262.515045,462.163849 259.376984,460.343781 255.982010,458.309479 C245.825226,451.361389 235.925385,444.627563 225.949982,437.631653 C225.120529,436.886932 224.366638,436.404266 223.394699,435.627533 C219.145401,432.017517 215.114151,428.701569 210.971130,425.107208 C209.298141,423.534973 207.736938,422.241150 206.023193,420.644104 C202.593155,417.183746 199.315643,414.026581 195.918213,410.572784 C194.257202,408.833405 192.716125,407.390686 191.022034,405.643494 C188.055847,402.137207 185.242676,398.935455 182.335938,395.413788 C181.143204,393.726868 180.044037,392.359802 178.857590,390.667480 C171.579117,379.715057 164.387939,369.087952 157.165558,358.122498 C155.590393,354.810272 154.046432,351.836426 152.366394,348.533020 C151.555344,346.965027 150.880341,345.726593 150.166901,344.136200 C148.364777,339.515564 146.601089,335.246857 144.765472,330.617737 C142.251602,322.786896 139.809662,315.316406 137.279327,307.462891 C136.739685,305.061584 136.288422,303.043274 135.858643,300.622192 C135.097992,296.120758 134.315887,292.022125 133.481323,287.478821 C132.902313,281.699432 132.375763,276.364716 131.924789,270.645203 C131.762466,269.035950 131.524567,267.811462 131.354584,266.158813 C131.802994,256.164215 132.183472,246.597778 132.764893,236.717712 C133.258011,233.584885 133.550186,230.765701 133.914368,227.535767 C136.500565,216.779221 139.014786,206.433426 141.737762,195.808395 C143.369263,191.186340 144.792007,186.843506 146.492264,182.242584 C151.843323,171.656769 156.916840,161.329025 162.237488,150.775757 C163.671722,148.419052 164.858856,146.287903 166.360291,144.007248 C168.432693,141.241333 170.190781,138.624924 172.207153,135.787506 C173.933029,133.577911 175.316055,131.519836 176.883194,129.613022 C182.937943,122.245865 189.051453,114.927002 195.430084,107.405212 C196.319901,106.544449 196.922729,105.868629 197.817001,105.067459 C202.432281,100.699265 206.756104,96.456429 211.387039,92.060654 C221.122513,83.832352 230.558273,75.766449 241.335785,68.915161 C245.322800,66.254623 248.975662,63.667896 252.916168,61.075951 C254.123367,60.449997 255.042923,59.829258 256.296234,59.081676 C261.202057,56.360283 265.840454,53.873341 270.312378,51.116402 C272.020142,50.063572 273.126526,47.919052 274.891266,47.098190 C278.974121,45.199039 283.291626,43.804321 287.865387,42.167122 C292.490692,40.130894 296.764557,38.132587 301.412354,36.072262 C305.734375,34.366550 309.682465,32.722855 313.892365,31.111652 C314.798737,30.938669 315.443359,30.733191 316.458496,30.386959 C322.202301,28.444113 327.575531,26.642019 333.331665,24.866549 C337.815948,23.553539 341.917328,22.213907 346.018738,20.874275 C356.400696,18.580269 366.782684,16.286261 377.570709,13.915434 C382.587280,13.172391 387.197784,12.506166 392.108185,11.555376 C396.645966,10.842476 400.883820,10.414141 405.548523,9.913848 C410.366730,9.486725 414.758148,9.131560 419.578857,8.621015 C426.793610,8.270126 433.579102,8.074618 440.736511,7.688145 C449.093475,7.647741 457.078491,7.798303 465.516785,7.872403 z" opacity="1" /></svg>