<svg xmlns="http://www.w3.org/2000/svg" viewBox="0 0 48 48" width="48px" height="48px"><path fill="#FFEB3B" d="M41.4,8.6C34.9,2.4,26.1,2.1,19.3,7.6c-5.1,4.1-7.2,10.6-5.6,16.5c-0.1-0.1-0.1-0.2-0.2-0.2c-4.9-3.2-10.7-3.9-16.1-1.3C-1,23.3-0.1,29.9,3.8,34.9c4.5,5.7,11.8,7.9,18.8,5.4c-0.1-0.1-0.2-0.2-0.3-0.3c-0.6,4.5,1.2,9.1,4.7,12c3.5,2.9,8,3.6,12.1,1.9c4.4-1.9,7.5-6.2,8.2-11.1c0.1-0.2,0.2-0.3,0.3-0.5c5.3-2,8.4-7.4,8-13.1C55,19.6,49.1,12.6,41.4,8.6z M27.1,33.4c-3.7,2.2-8.3,1.4-11.1-1.8c-2.9-3.3-3.2-8.2-0.7-11.9c3.7-2.2,8.3-1.4,11.1,1.8C30,25.1,30.3,30,27.1,33.4z M42.1,31.4c-3.7,2.2-8.3,1.4-11.1-1.8c-2.9-3.3-3.2-8.2-0.7-11.9c3.7-2.2,8.3-1.4,11.1,1.8C45,23.1,45.3,28,42.1,31.4z"/></svg> 